<svg width="1020" height="500" viewBox="0 0 1020 500" fill="none" xmlns="http://www.w3.org/2000/svg">
<path d="M1016.5 0C1018.43 0 1020 1.567 1020 3.5V496.5C1020 498.433 1018.43 500 1016.5 500H3.5C1.567 500 0 498.433 0 496.5C0 496.33 0.0118016 496.163 0.0351562 496C0.0118016 495.837 0 495.67 0 495.5V382.5C0 380.567 1.567 379 3.5 379C5.433 379 7 380.567 7 382.5V493H213V382.5C213 380.567 214.567 379 216.5 379C218.433 379 220 380.567 220 382.5V493H760.036C760.013 492.837 760 492.67 760 492.5V479.5C760 477.567 761.567 476 763.5 476C765.433 476 767 477.567 767 479.5V492.5C767 492.67 766.987 492.837 766.964 493H1013V341H767V354.5C767 356.433 765.433 358 763.5 358C761.567 358 760 356.433 760 354.5V321.5C760 319.567 761.567 318 763.5 318C765.433 318 767 319.567 767 321.5V334H1013V175H767V188.5C767 190.433 765.433 192 763.5 192C761.567 192 760 190.433 760 188.5V155.5C760 153.567 761.567 152 763.5 152C765.433 152 767 153.567 767 155.5V168H1013V7H766.964C766.987 7.16333 767 7.33021 767 7.5V20.5C767 22.433 765.433 24 763.5 24C761.567 24 760 22.433 760 20.5V7.5C760 7.33021 760.013 7.16333 760.036 7H227V196.5C227 198.433 225.433 200 223.5 200C221.567 200 220 198.433 220 196.5V7H7V196.5C7 198.433 5.433 200 3.5 200C1.567 200 0 198.433 0 196.5V3.5C0 1.567 1.567 0 3.5 0H1016.5ZM94.3096 427.004C100.691 427.166 105.834 432.309 105.996 438.69L106 439V480C106 486.627 100.627 492 94 492H28C21.3726 492 16 486.627 16 480V439C16 432.476 21.2061 427.168 27.6904 427.004L28 427H94L94.3096 427.004ZM192.31 427.004C198.691 427.166 203.834 432.309 203.996 438.69L204 439V480C204 486.627 198.627 492 192 492H126C119.373 492 114 486.627 114 480V439C114 432.476 119.206 427.168 125.69 427.004L126 427H192L192.31 427.004ZM28 431C23.5817 431 20 434.582 20 439V480C20 484.418 23.5817 488 28 488H94C98.4183 488 102 484.418 102 480V439C102 434.582 98.4183 431 94 431H28ZM126 431C121.582 431 118 434.582 118 439V480C118 484.418 121.582 488 126 488H192C196.418 488 200 484.418 200 480V439C200 434.582 196.418 431 192 431H126ZM86.5 434C93.0239 434 98.3319 439.206 98.4961 445.69L98.5 446V467C98.5 473.524 93.2939 478.832 86.8096 478.996L86.5 479H64.5V482C64.5 483.105 63.6046 484 62.5 484H59.5C58.3954 484 57.5 483.105 57.5 482V479H35.5L35.1904 478.996C28.7061 478.832 23.5 473.524 23.5 467V446C23.5 439.373 28.8726 434 35.5 434H86.5ZM184.5 434C191.024 434 196.332 439.206 196.496 445.69L196.5 446V467C196.5 473.524 191.294 478.832 184.81 478.996L184.5 479H162.5V482C162.5 483.105 161.605 484 160.5 484H157.5C156.395 484 155.5 483.105 155.5 482V479H133.5L133.19 478.996C126.706 478.832 121.5 473.524 121.5 467V446C121.5 439.373 126.873 434 133.5 434H184.5ZM59.5 482H62.5V466H59.5V482ZM157.5 482H160.5V466H157.5V482ZM35.5 436C29.9772 436 25.5 440.477 25.5 446V467C25.5 472.523 29.9772 477 35.5 477H57.5V466L57.5107 465.796C57.6062 464.854 58.3543 464.106 59.2959 464.011L59.5 464H62.5L62.7041 464.011C63.6457 464.106 64.3938 464.854 64.4893 465.796L64.5 466V477H86.5C92.0228 477 96.5 472.523 96.5 467V446C96.5 440.477 92.0228 436 86.5 436H35.5ZM133.5 436C127.977 436 123.5 440.477 123.5 446V467C123.5 472.523 127.977 477 133.5 477H155.5V466L155.511 465.796C155.606 464.854 156.354 464.106 157.296 464.011L157.5 464H160.5L160.704 464.011C161.646 464.106 162.394 464.854 162.489 465.796L162.5 466V477H184.5C190.023 477 194.5 472.523 194.5 467V446C194.5 440.477 190.023 436 184.5 436H133.5ZM1007 372C1009.76 372 1012 374.239 1012 377V457C1012 459.761 1009.76 462 1007 462H982C980.346 462 978.88 461.197 977.97 459.959C974.516 459.468 971.423 454.215 969.247 446.076L969.124 445.605C960.421 454.431 947.689 460 933.5 460C907.471 460 886.332 441.268 886.004 418.049C886.001 417.866 886 417.683 886 417.5C886 417.317 886.001 417.134 886.004 416.951C886.332 393.732 907.471 375 933.5 375C947.688 375 960.42 380.567 969.123 389.392C971.174 381.49 974.077 376.202 977.342 375.182C978.069 373.319 979.88 372 982 372H1007ZM982 376C981.789 376 981.592 376.065 981.431 376.177C986.92 380.662 991 397.461 991 417.5C991 436.469 987.343 452.533 982.297 458H1007C1007.55 458 1008 457.552 1008 457V377C1008 376.448 1007.55 376 1007 376H982ZM933.5 379C909.046 379 890 396.644 890 417.5C890 438.356 909.046 456 933.5 456C947.761 456 960.18 449.997 968.057 440.858C967.254 436.72 966.658 432.076 966.32 427.098L966.295 426.713C961.825 439.076 949.057 448 934 448C915.222 448 900 434.121 900 417C900 399.879 915.222 386 934 386C949.121 386 961.935 395.001 966.353 407.447C966.695 402.64 967.279 398.153 968.057 394.141C960.18 385.002 947.761 379 933.5 379ZM978.5 379.017C978.33 379.086 977.779 379.387 976.919 380.623C975.768 382.278 974.57 384.934 973.499 388.576C973.324 389.17 973.155 389.784 972.991 390.417C972.629 391.816 972.291 393.314 971.983 394.902L971.899 395.338C971.23 398.889 970.712 402.85 970.388 407.104L970.343 407.731L970.264 408.911C970.091 411.678 970 414.552 970 417.5C970 418.564 970.012 419.618 970.035 420.66C970.045 421.083 970.056 421.503 970.069 421.922C970.072 421.997 970.075 422.072 970.077 422.147C970.087 422.444 970.097 422.74 970.108 423.034C970.14 423.829 970.178 424.616 970.223 425.395C970.527 430.746 971.134 435.69 971.967 440.012L971.983 440.097C972.29 441.68 972.627 443.175 972.988 444.571C973.153 445.208 973.323 445.827 973.499 446.424C974.57 450.066 975.768 452.722 976.919 454.377C977.778 455.612 978.33 455.913 978.5 455.982C978.543 455.965 978.608 455.932 978.697 455.875C978.854 455.77 979.078 455.59 979.357 455.287L979.497 455.135C979.671 454.932 979.867 454.684 980.081 454.377C981.232 452.722 982.43 450.066 983.501 446.424C985.628 439.192 987 428.965 987 417.5C987 406.035 985.628 395.808 983.501 388.576C982.43 384.934 981.232 382.278 980.081 380.623C979.643 379.993 979.284 379.607 979.016 379.369L978.899 379.274C978.771 379.17 978.669 379.105 978.596 379.063C978.556 379.042 978.524 379.026 978.5 379.017ZM934 388C916.149 388 902 401.154 902 417C902 432.846 916.149 446 934 446C951.851 446 966 432.846 966 417C966 401.154 951.851 388 934 388ZM995 412C997.209 412 999 414.239 999 417C999 419.761 997.209 422 995 422C992.791 422 991 419.761 991 417C991 414.239 992.791 412 995 412ZM995 413C993.54 413 992 414.571 992 417C992 419.429 993.54 421 995 421C996.46 421 998 419.429 998 417C998 414.571 996.46 413 995 413ZM1007 208C1009.76 208 1012 210.239 1012 213V293C1012 295.761 1009.76 298 1007 298H982C980.346 298 978.88 297.197 977.97 295.959C974.516 295.468 971.423 290.215 969.247 282.076L969.124 281.605C960.421 290.431 947.689 296 933.5 296C907.471 296 886.332 277.268 886.004 254.049C886.001 253.866 886 253.683 886 253.5C886 253.317 886.001 253.134 886.004 252.951C886.332 229.732 907.471 211 933.5 211C947.688 211 960.42 216.567 969.123 225.392C971.174 217.49 974.077 212.202 977.342 211.182C978.069 209.319 979.88 208 982 208H1007ZM982 212C981.789 212 981.592 212.065 981.431 212.177C986.92 216.662 991 233.461 991 253.5C991 272.469 987.343 288.533 982.297 294H1007C1007.55 294 1008 293.552 1008 293V213C1008 212.448 1007.55 212 1007 212H982ZM933.5 215C909.046 215 890 232.644 890 253.5C890 274.356 909.046 292 933.5 292C947.761 292 960.18 285.997 968.057 276.858C967.254 272.72 966.658 268.076 966.32 263.098L966.295 262.713C961.825 275.076 949.057 284 934 284C915.222 284 900 270.121 900 253C900 235.879 915.222 222 934 222C949.121 222 961.935 231.001 966.353 243.447C966.695 238.64 967.279 234.153 968.057 230.141C960.18 221.002 947.761 215 933.5 215ZM978.5 215.017C978.33 215.086 977.779 215.387 976.919 216.623C975.768 218.278 974.57 220.934 973.499 224.576C973.324 225.17 973.155 225.784 972.991 226.417C972.629 227.816 972.291 229.314 971.983 230.902L971.899 231.338C971.23 234.889 970.712 238.85 970.388 243.104L970.343 243.731L970.264 244.911C970.091 247.678 970 250.552 970 253.5C970 254.564 970.012 255.618 970.035 256.66C970.045 257.083 970.056 257.503 970.069 257.922C970.072 257.997 970.075 258.072 970.077 258.147C970.087 258.444 970.097 258.74 970.108 259.034C970.14 259.829 970.178 260.616 970.223 261.395C970.527 266.746 971.134 271.69 971.967 276.012L971.983 276.097C972.29 277.68 972.627 279.175 972.988 280.571C973.153 281.208 973.323 281.827 973.499 282.424C974.57 286.066 975.768 288.722 976.919 290.377C977.778 291.612 978.33 291.913 978.5 291.982C978.543 291.965 978.608 291.932 978.697 291.875C978.854 291.77 979.078 291.59 979.357 291.287L979.497 291.135C979.671 290.932 979.867 290.684 980.081 290.377C981.232 288.722 982.43 286.066 983.501 282.424C985.628 275.192 987 264.965 987 253.5C987 242.035 985.628 231.808 983.501 224.576C982.43 220.934 981.232 218.278 980.081 216.623C979.643 215.993 979.284 215.607 979.016 215.369L978.899 215.274C978.771 215.17 978.669 215.105 978.596 215.063C978.556 215.042 978.524 215.026 978.5 215.017ZM934 224C916.149 224 902 237.154 902 253C902 268.846 916.149 282 934 282C951.851 282 966 268.846 966 253C966 237.154 951.851 224 934 224ZM995 248C997.209 248 999 250.239 999 253C999 255.761 997.209 258 995 258C992.791 258 991 255.761 991 253C991 250.239 992.791 248 995 248ZM995 249C993.54 249 992 250.571 992 253C992 255.429 993.54 257 995 257C996.46 257 998 255.429 998 253C998 250.571 996.46 249 995 249ZM61 103.5C67.5239 103.5 72.8319 108.706 72.9961 115.19L73 115.5V171.5L72.9961 171.81C72.8345 178.191 67.691 183.334 61.3096 183.496L61 183.5H20C13.3726 183.5 8 178.127 8 171.5V115.5C8 108.873 13.3726 103.5 20 103.5H61ZM20 107.5C15.5817 107.5 12 111.082 12 115.5V171.5C12 175.918 15.5817 179.5 20 179.5H61C65.4183 179.5 69 175.918 69 171.5V115.5C69 111.082 65.4183 107.5 61 107.5H20ZM56 108.5C62.5239 108.5 67.8319 113.706 67.9961 120.19L68 120.5V166.5L67.9961 166.81C67.8319 173.294 62.5239 178.5 56 178.5H34C27.3726 178.5 22 173.127 22 166.5V147H16C14.8954 147 14 146.105 14 145V142C14 140.895 14.8954 140 16 140H22V120.5C22 113.873 27.3726 108.5 34 108.5H56ZM214 103C216.675 103 218.859 105.101 218.993 107.743L219 108V173L218.993 173.257C218.864 175.814 216.814 177.864 214.257 177.993L214 178H189C186.239 178 184 175.761 184 173V108C184 105.239 186.239 103 189 103H214ZM34 110.5C28.6498 110.5 24.2805 114.702 24.0127 119.985L24 120.5V140H42C43.0357 140 43.887 140.787 43.9893 141.796L44 142V145L43.9893 145.204C43.8938 146.146 43.1457 146.894 42.2041 146.989L42 147H24V166.5C24 172.023 28.4772 176.5 34 176.5H56C61.5228 176.5 66 172.023 66 166.5V120.5C66 114.977 61.5228 110.5 56 110.5H34ZM189 107C188.448 107 188 107.448 188 108V173C188 173.552 188.448 174 189 174H214C214.552 174 215 173.552 215 173V108C215 107.448 214.552 107 214 107H189ZM16 145H42V142H16V145ZM1007 42C1009.76 42 1012 44.2386 1012 47V127C1012 129.761 1009.76 132 1007 132H982C980.346 132 978.88 131.197 977.97 129.959C974.516 129.468 971.423 124.215 969.247 116.076L969.124 115.605C960.421 124.431 947.689 130 933.5 130C907.471 130 886.332 111.268 886.004 88.0488C886.001 87.8662 886 87.6832 886 87.5C886 87.3168 886.001 87.1338 886.004 86.9512C886.332 63.732 907.471 45 933.5 45C947.688 45 960.42 50.5672 969.123 59.3916C971.174 51.4896 974.077 46.2019 977.342 45.1816C978.069 43.3195 979.88 42 982 42H1007ZM982 46C981.789 46 981.592 46.0649 981.431 46.1768C986.92 50.6623 991 67.4608 991 87.5C991 106.469 987.343 122.533 982.297 128H1007C1007.55 128 1008 127.552 1008 127V47C1008 46.4477 1007.55 46 1007 46H982ZM933.5 49C909.046 49 890 66.6438 890 87.5C890 108.356 909.046 126 933.5 126C947.761 126 960.18 119.997 968.057 110.858C967.254 106.72 966.658 102.076 966.32 97.0977L966.295 96.7129C961.825 109.076 949.057 118 934 118C915.222 118 900 104.121 900 87C900 69.8792 915.222 56 934 56C949.121 56 961.935 65.0014 966.353 77.4473C966.695 72.6405 967.279 68.1532 968.057 64.1406C960.18 55.0019 947.761 49 933.5 49ZM978.5 49.0166C978.33 49.0857 977.779 49.3867 976.919 50.623C975.768 52.2781 974.57 54.9345 973.499 58.5762C973.324 59.1697 973.155 59.7841 972.991 60.417C972.629 61.8158 972.291 63.3143 971.983 64.9023L971.899 65.3379C971.23 68.8889 970.712 72.8496 970.388 77.1035L970.343 77.7314L970.264 78.9111C970.091 81.6783 970 84.5517 970 87.5C970 88.5636 970.012 89.6175 970.035 90.6602C970.045 91.0828 970.056 91.5033 970.069 91.9219C970.072 91.9971 970.075 92.0723 970.077 92.1475C970.087 92.4441 970.097 92.7397 970.108 93.0342C970.14 93.8286 970.178 94.6156 970.223 95.3945C970.527 100.746 971.134 105.69 971.967 110.012L971.983 110.097C972.29 111.68 972.627 113.175 972.988 114.571C973.153 115.208 973.323 115.827 973.499 116.424C974.57 120.066 975.768 122.722 976.919 124.377C977.778 125.612 978.33 125.913 978.5 125.982C978.543 125.965 978.608 125.932 978.697 125.875C978.854 125.77 979.078 125.59 979.357 125.287L979.497 125.135C979.671 124.932 979.867 124.684 980.081 124.377C981.232 122.722 982.43 120.066 983.501 116.424C985.628 109.192 987 98.9647 987 87.5C987 76.0353 985.628 65.8077 983.501 58.5762C982.43 54.9345 981.232 52.2781 980.081 50.623C979.643 49.9929 979.284 49.6065 979.016 49.3691L978.899 49.2744C978.771 49.1697 978.669 49.1052 978.596 49.0635C978.556 49.042 978.524 49.0265 978.5 49.0166ZM934 58C916.149 58 902 71.1536 902 87C902 102.846 916.149 116 934 116C951.851 116 966 102.846 966 87C966 71.1536 951.851 58 934 58ZM995 82C997.209 82 999 84.2386 999 87C999 89.7614 997.209 92 995 92C992.791 92 991 89.7614 991 87C991 84.2386 992.791 82 995 82ZM995 83C993.54 83 992 84.5711 992 87C992 89.4289 993.54 91 995 91C996.46 91 998 89.4289 998 87C998 84.5711 996.46 83 995 83ZM34 7C35.1046 7 36 7.89543 36 9V15.5C46.873 15.5 55.7192 24.1765 55.9932 34.9834L56 35.5V65.5L55.9932 66.0166C55.7235 76.6519 47.1519 85.2235 36.5166 85.4932L36 85.5H31C19.9543 85.5 11 76.5457 11 65.5V35.5C11 24.4543 19.9543 15.5 31 15.5H32V9C32 7.89543 32.8954 7 34 7ZM32 45.3096C26.3075 45.544 20.6539 47.1047 15.5195 49.999L15 50.291V65.5C15 74.3366 22.1634 81.5 31 81.5H36C44.8366 81.5 52 74.3366 52 65.5V50.2871C47.035 47.3843 41.5529 45.7412 36 45.3633V48.1318C43.3387 49.1096 49 55.3938 49 63C49 71.2843 42.2843 78 34 78C25.7157 78 19 71.2843 19 63C19 55.3938 24.6613 49.1096 32 48.1318V45.3096ZM367 8C367.672 8 368.265 8.33306 368.628 8.8418C368.931 9.14079 369.143 9.53693 369.205 9.99121L373.729 43.0186C373.744 43.1346 373.747 43.2501 373.743 43.3633C373.911 44.5553 374 45.769 374 47C374 63.5684 358.33 77 339 77C319.67 77 304 63.5684 304 47C304 45.6382 304.105 44.2971 304.31 42.9834C304.289 42.816 304.289 42.6436 304.313 42.4688L308.763 10.4307C308.787 10.2522 308.837 10.0832 308.904 9.9248C308.944 8.85512 309.821 8 310.9 8H367ZM519 8C519.672 8 520.265 8.33306 520.628 8.8418C520.931 9.14079 521.143 9.53693 521.205 9.99121L525.729 43.0186C525.744 43.1346 525.747 43.2501 525.743 43.3633C525.911 44.5553 526 45.769 526 47C526 63.5684 510.33 77 491 77C471.67 77 456 63.5684 456 47C456 45.6382 456.105 44.2971 456.31 42.9834C456.289 42.816 456.289 42.6436 456.313 42.4688L460.763 10.4307C460.787 10.2522 460.837 10.0832 460.904 9.9248C460.944 8.85512 461.821 8 462.9 8H519ZM671 8C671.672 8 672.265 8.33306 672.628 8.8418C672.931 9.14079 673.143 9.53693 673.205 9.99121L677.729 43.0186C677.744 43.1346 677.747 43.2501 677.743 43.3633C677.911 44.5553 678 45.769 678 47C678 63.5684 662.33 77 643 77C623.67 77 608 63.5684 608 47C608 45.6382 608.105 44.2971 608.31 42.9834C608.289 42.816 608.289 42.6436 608.313 42.4688L612.763 10.4307C612.787 10.2522 612.837 10.0832 612.904 9.9248C612.944 8.85512 613.821 8 614.9 8H671ZM34.292 68.4629C34.4066 68.6204 34.4238 68.8373 34.3174 69.0146C34.1428 69.3056 33.6905 70.4179 33.4717 71.4678C33.3546 72.03 33.4207 72.3626 33.5127 72.5869C33.5616 72.7061 33.6247 72.8118 33.6992 72.9209C33.7586 73.0079 33.875 73.1652 33.9473 73.2812C34.1599 73.6231 34.1764 74.1047 34.126 74.5117L34.1201 74.5596L34.1055 74.6055C34.0523 74.7688 33.9491 74.9295 33.7627 75.0361C33.6104 75.1231 33.4428 75.148 33.3213 75.1611C33.0651 75.1887 32.682 75.1885 32.335 75.1885C32.0589 75.1885 31.835 74.9646 31.835 74.6885C31.835 74.4123 32.0588 74.1885 32.335 74.1885C32.6686 74.1885 32.9568 74.1856 33.1494 74.1709C33.1531 73.9625 33.1187 73.8424 33.0986 73.8096C33.0353 73.7079 32.9825 73.6448 32.873 73.4844C32.7787 73.3462 32.6729 73.1763 32.5869 72.9668C32.4093 72.5337 32.3409 71.9946 32.4932 71.2637C32.7181 70.1844 33.1742 69.013 33.4297 68.5547C32.7156 68.6325 31.9905 68.7333 31.3623 68.8438C30.9313 68.9195 30.5519 68.9985 30.2568 69.0762C30.0662 69.1264 29.9339 69.1711 29.8496 69.2041C29.8831 69.2978 29.9503 69.4302 30.0566 69.5986C30.1832 69.7989 30.3383 70.0102 30.4932 70.2197C30.6397 70.4179 30.7986 70.6312 30.9023 70.8037C31.1859 71.2754 31.3665 71.7046 31.4961 72.1455C31.5509 72.3324 31.5137 72.5012 31.4707 72.6152C31.428 72.7282 31.3649 72.8271 31.3105 72.9033C31.2105 73.0435 31.054 73.2189 30.9688 73.3223L30.876 73.4346L30.7373 73.4795C30.319 73.6152 29.7326 73.6074 29.1963 73.5479C28.6405 73.4861 28.0501 73.3578 27.584 73.1963L27.5791 73.1953C27.5184 73.1736 27.3997 73.1348 27.2998 73.0889C27.1914 73.039 27.0503 72.9582 26.9346 72.8174C26.7594 72.6041 26.7907 72.2886 27.0039 72.1133C27.1905 71.9601 27.455 71.9642 27.6357 72.1104L27.6914 72.166C27.6914 72.166 27.6973 72.1702 27.7178 72.1797C27.7363 72.1882 27.7606 72.1985 27.7949 72.2109C27.8119 72.2171 27.8303 72.2234 27.8506 72.2305C27.8686 72.2368 27.8894 72.2446 27.9102 72.252C28.2959 72.3856 28.8134 72.4989 29.3066 72.5537C29.7311 72.6008 30.0818 72.5965 30.3057 72.5566C30.329 72.5294 30.3519 72.5032 30.3711 72.4805C30.4246 72.4173 30.4661 72.3666 30.4971 72.3232C30.4985 72.3212 30.4997 72.3184 30.501 72.3164C30.3979 71.9942 30.2598 71.6753 30.0459 71.3193C29.9729 71.1978 29.8488 71.0313 29.6885 70.8145C29.5366 70.6089 29.3602 70.3681 29.2109 70.1318C29.1952 70.1069 29.1798 70.0806 29.1641 70.0547C29.148 70.1461 29.1348 70.2355 29.1172 70.3184C29.058 70.5961 28.9655 70.9398 28.7617 71.1846C28.4302 71.5823 28.0194 71.7501 27.624 71.832C27.4323 71.8717 27.2371 71.8919 27.0576 71.9082C26.8701 71.9253 26.7048 71.9376 26.5312 71.959L26.5088 71.9619L26.4873 71.9629C26.116 71.976 25.456 71.9784 25.1387 71.9326C25.0595 71.9212 24.9443 71.8996 24.8389 71.8438C24.7829 71.814 24.6963 71.7568 24.6289 71.6543C24.5524 71.5379 24.5266 71.4017 24.5479 71.2734C24.551 71.2546 24.5549 71.2367 24.5596 71.2197C24.3524 71.2499 24.1543 71.2693 23.9756 71.2773C26.36 74.1618 29.9653 76 34 76C34.7098 76 35.406 75.9415 36.085 75.832C35.9465 75.7227 35.8773 75.62 35.9141 75.6562C35.722 75.4961 35.5775 75.2922 35.4678 75.1084C35.3504 74.9117 35.2351 74.6756 35.1406 74.4971L35.1025 74.4248L35.0889 74.3447C35.0105 73.8669 34.9989 73.2515 35.042 72.7061C35.0637 72.4315 35.1006 72.1616 35.1543 71.9268C35.2045 71.7072 35.2817 71.4609 35.4141 71.2764C35.5927 71.0275 35.818 70.7877 35.9463 70.6348C36.0482 70.5134 36.108 70.4244 36.1436 70.3535C35.8161 70.03 34.9268 69.1512 34.4326 68.5947C34.3928 68.5499 34.3637 68.499 34.3428 68.4463C34.3261 68.4524 34.3095 68.4585 34.292 68.4629ZM35.8926 67.6641C35.6457 67.7546 35.391 67.8291 35.1289 67.8838C35.1463 67.8987 35.165 67.9131 35.1807 67.9307C35.7271 68.546 36.7953 69.5916 36.959 69.7549C37.1978 69.9933 37.1994 70.3026 37.1523 70.4971C37.0732 70.8235 36.8764 71.0813 36.7119 71.2773C36.5247 71.5004 36.3776 71.6489 36.2266 71.8594C36.2266 71.8594 36.2219 71.8657 36.2148 71.8799C36.2078 71.894 36.1991 71.9136 36.1895 71.9395C36.1695 71.9926 36.1488 72.0635 36.1289 72.1504C36.0892 72.3245 36.0581 72.5428 36.0391 72.7842C36.0029 73.2421 36.0144 73.7393 36.0674 74.1123C36.1632 74.2962 36.2397 74.4491 36.3271 74.5957C36.4008 74.7191 36.4626 74.8026 36.5156 74.8564L36.5664 74.9004L36.5928 74.9209L36.6152 74.9434C36.6385 74.9663 36.6588 74.9883 36.6729 75.0049C36.6862 75.0206 36.699 75.0371 36.7061 75.0459C36.7101 75.051 36.7132 75.0554 36.7158 75.0586C36.9638 75.1333 37.112 75.384 37.0596 75.6367C37.2999 75.5787 37.5376 75.5145 37.7725 75.4434C37.7001 75.3585 37.6713 75.3185 37.6055 75.2529L37.6045 75.252C37.2464 74.8929 36.7601 74.4158 36.582 73.7578C36.5058 73.4759 36.4438 73.1565 36.4395 72.8447C36.4353 72.5387 36.4863 72.1864 36.6875 71.8887C36.7629 71.7771 36.9132 71.5941 37.0117 71.4639C37.1297 71.3078 37.2483 71.1347 37.3457 70.9443C37.5374 70.5697 37.638 70.1441 37.4736 69.6543C37.4805 69.6748 37.4596 69.6236 37.3418 69.4814C37.2413 69.3601 37.1053 69.214 36.9512 69.0586C36.6426 68.7475 36.2848 68.4232 36.043 68.2256C35.8731 68.0864 35.8197 67.8589 35.8926 67.6641ZM38.1094 66.1533C37.9936 66.2835 37.8716 66.4077 37.7441 66.5264C37.8282 66.5573 37.8983 66.6008 37.9355 66.625C37.998 66.6656 38.0659 66.7155 38.1338 66.7695C38.2704 66.8784 38.431 67.0218 38.5967 67.1826C38.9244 67.5008 39.3024 67.9194 39.5586 68.3213C39.7772 68.6644 39.894 69.0069 39.9746 69.3096C40.0141 69.4578 40.0468 69.606 40.0762 69.7314C40.1068 69.862 40.1349 69.9733 40.167 70.0742C40.1949 70.1619 40.287 70.2892 40.4854 70.4785C40.5798 70.5686 40.6757 70.6527 40.7842 70.751C40.8864 70.8436 40.9987 70.9479 41.0967 71.0566L41.1699 71.1377L41.2031 71.2432C41.2438 71.3738 41.279 71.4981 41.3096 71.6064C41.341 71.7177 41.3663 71.8091 41.3916 71.8877C41.4131 71.9546 41.4317 71.9993 41.4453 72.0293C41.5292 72.0769 41.6773 72.1671 41.7959 72.2842C41.9922 72.4782 41.9936 72.7958 41.7998 72.9922C41.6057 73.1883 41.2891 73.19 41.0928 72.9961C41.0687 72.9723 41.0434 72.954 41.0098 72.9336C40.9909 72.9222 40.9721 72.911 40.9443 72.8955C40.9195 72.8816 40.8836 72.8615 40.8477 72.8389L40.8252 72.8252L40.8047 72.8086C40.6824 72.7123 40.6064 72.5908 40.5586 72.4961C40.5092 72.3982 40.471 72.2916 40.4395 72.1934C40.4076 72.0941 40.3767 71.9843 40.3467 71.8779C40.3255 71.8029 40.3023 71.727 40.2793 71.6494C40.2316 71.602 40.1769 71.5498 40.1133 71.4922C40.0197 71.4074 39.9019 71.3042 39.7949 71.2021C39.5907 71.0072 39.3256 70.7287 39.2139 70.3779C39.169 70.2371 39.1337 70.093 39.1025 69.96C39.0702 69.8219 39.0423 69.6967 39.0078 69.5674C38.9405 69.3145 38.8575 69.0807 38.7158 68.8584C38.5183 68.5485 38.2007 68.191 37.9004 67.8994C37.7524 67.7558 37.6162 67.6357 37.5107 67.5518C37.4576 67.5094 37.4169 67.4809 37.3906 67.4639C37.3689 67.4498 37.3658 67.4481 37.376 67.4531C37.2086 67.3865 37.0928 67.2371 37.0664 67.0654C36.8984 67.1785 36.7234 67.2817 36.543 67.376C36.5896 67.3945 36.6348 67.4187 36.6758 67.4521C36.9471 67.6738 37.3307 68.0204 37.6611 68.3535C37.8264 68.5202 37.9854 68.6906 38.1123 68.8438C38.2219 68.9761 38.362 69.1579 38.4219 69.3359C38.6967 70.1551 38.5094 70.8654 38.2363 71.3994C38.1014 71.6631 37.9433 71.8882 37.8086 72.0664C37.6545 72.2702 37.5761 72.3589 37.5156 72.4482C37.4751 72.5084 37.4367 72.6273 37.4395 72.8311C37.4422 73.029 37.4837 73.2601 37.5479 73.4971C37.6449 73.8554 37.9183 74.1506 38.3115 74.5449L38.5918 74.8613C38.6511 74.9282 38.7244 75.0001 38.8057 75.082C42.388 73.6559 45.1861 70.6833 46.376 66.9883C46.3052 67.0927 46.1959 67.1712 46.0625 67.1982C45.8648 67.2383 45.8293 67.2645 45.6113 67.3369L45.6035 67.3398L45.5967 67.3418C45.0999 67.4894 44.4268 67.563 43.8096 67.5371L43.7441 67.5342L43.6816 67.5146C43.3124 67.3993 43.018 67.1469 42.8389 67.0117C42.6318 66.8556 42.5014 66.7838 42.3496 66.7705C41.7863 66.7213 41.026 66.6135 40.2822 66.5C40.4315 66.6373 40.5266 66.8105 40.5898 66.959C40.6573 67.1175 40.7072 67.2911 40.748 67.4521C40.8395 67.813 40.8826 68.0789 40.9648 68.3262C40.9863 68.3906 41.0445 68.4824 41.1709 68.5947C41.295 68.705 41.46 68.8137 41.6514 68.916C42.0354 69.1213 42.4627 69.2707 42.7373 69.3662C42.9732 69.4484 43.1423 69.6229 43.2432 69.7822C43.3722 69.9861 43.4009 70.2086 43.4141 70.3896C43.4276 70.5765 43.4268 70.807 43.4268 71.0166C43.4266 71.2925 43.2026 71.5164 42.9268 71.5166C42.651 71.5163 42.4269 71.2924 42.4268 71.0166C42.4268 70.7943 42.4274 70.6046 42.417 70.4619C42.4119 70.3917 42.4051 70.3517 42.3994 70.3281C42.3946 70.3079 42.392 70.3088 42.3975 70.3174C42.3947 70.313 42.3916 70.3082 42.3887 70.3047L42.3877 70.3037C42.1131 70.2082 41.6298 70.0385 41.1797 69.7979C40.9483 69.6741 40.71 69.5232 40.5068 69.3428C40.3059 69.1643 40.1123 68.9329 40.0156 68.6426C39.9207 68.3573 39.8425 67.9477 39.7793 67.6982C39.7428 67.5544 39.7074 67.4386 39.6699 67.3506C39.6343 67.267 39.6089 67.2392 39.6064 67.2363C39.5099 67.1515 39.3349 67.0494 39.1211 66.9561C38.9126 66.8651 38.71 66.8009 38.5859 66.7744C38.3159 66.7167 38.1436 66.4507 38.2012 66.1807C38.2021 66.1764 38.2031 66.1722 38.2041 66.168C38.1713 66.1627 38.1396 66.1581 38.1094 66.1533ZM168 8C174.627 8 180 13.3726 180 20V61C180 67.5239 174.794 72.8319 168.31 72.9961L168 73H102L101.69 72.9961C95.309 72.8345 90.1655 67.691 90.0039 61.3096L90 61V20C90 13.3726 95.3726 8 102 8H168ZM368.812 36.6094C351.014 23.7685 326.954 23.7741 309.162 36.627L308.298 42.8535C308.304 42.962 308.319 43.0689 308.342 43.1729C308.116 44.4284 308 45.7075 308 47C308 60.803 321.279 73 339 73C356.721 73 370 60.803 370 47C370 45.8475 369.905 44.706 369.725 43.582C369.734 43.5194 369.739 43.4556 369.742 43.3916L368.812 36.6094ZM520.812 36.6094C503.014 23.7685 478.954 23.7741 461.162 36.627L460.298 42.8535C460.304 42.962 460.319 43.0689 460.342 43.1729C460.116 44.4284 460 45.7075 460 47C460 60.803 473.279 73 491 73C508.721 73 522 60.803 522 47C522 45.8475 521.905 44.706 521.725 43.582C521.734 43.5194 521.739 43.4556 521.742 43.3916L520.812 36.6094ZM672.812 36.6094C655.014 23.7685 630.954 23.7741 613.162 36.627L612.298 42.8535C612.304 42.962 612.319 43.0689 612.342 43.1729C612.116 44.4284 612 45.7075 612 47C612 60.803 625.279 73 643 73C660.721 73 674 60.803 674 47C674 45.8475 673.905 44.706 673.725 43.582C673.734 43.5194 673.739 43.4556 673.742 43.3916L672.812 36.6094ZM30.0635 66.3389C30.0167 66.5189 29.8723 66.6663 29.6777 66.7051C29.4484 66.751 28.9838 66.9221 28.499 67.1592C28.0058 67.4004 27.5922 67.6621 27.415 67.8506C27.3258 67.9458 27.2562 68.0894 27.2129 68.2939C27.1695 68.499 27.1586 68.7346 27.1621 68.9824C27.1638 69.1049 27.1686 69.2251 27.1738 69.3438C27.1789 69.459 27.1842 69.5785 27.1855 69.6855C27.1868 69.7895 27.1848 69.9076 27.168 70.0166C27.1545 70.1037 27.1174 70.2984 26.9609 70.4473L26.9111 70.4951L26.8506 70.5264C26.5211 70.7012 26.1253 70.8469 25.7256 70.9639C25.9626 70.969 26.236 70.9703 26.4482 70.9629C26.6303 70.9416 26.8141 70.9271 26.9678 70.9131C27.1407 70.8973 27.2886 70.8801 27.4219 70.8525C27.6769 70.7997 27.8519 70.7135 27.9932 70.5439C28.0241 70.5065 28.0808 70.3865 28.1396 70.1104C28.1964 69.8439 28.2339 69.5548 28.2949 69.2012C28.3523 68.8689 28.428 68.5008 28.5547 68.167C28.6808 67.8349 28.8749 67.4894 29.2002 67.25C29.6283 66.9352 30.0339 66.7067 30.3311 66.5967C30.2388 66.514 30.15 66.4276 30.0635 66.3389ZM29.0928 64.9844C29.0294 65.0928 28.9265 65.1778 28.7959 65.2139C28.1792 65.3836 26.41 66.151 25.1719 67.1729C25.0616 67.2638 24.9594 67.3544 24.8584 67.4443C24.7599 67.5322 24.6572 67.624 24.5566 67.709C24.3537 67.8803 24.1254 68.0519 23.8447 68.1699C23.4013 68.3562 22.9159 68.3745 22.541 68.3408C22.3855 68.3268 22.2406 68.3006 22.1133 68.2715C22.4103 68.9402 22.7622 69.579 23.1631 70.1826C23.2781 70.1508 23.4045 70.1584 23.5195 70.2158C23.565 70.2386 23.5799 70.2458 23.6035 70.2529C23.6287 70.2605 23.6786 70.2709 23.7744 70.2803C24.0549 70.2883 24.5148 70.2345 25.0176 70.1182C25.4364 70.0212 25.8507 69.8857 26.1846 69.7354C26.1846 69.7238 26.1867 69.7114 26.1865 69.6982C26.1855 69.6109 26.1802 69.5095 26.1748 69.3877C26.1696 69.2693 26.1641 69.1354 26.1621 68.9961C26.1583 68.7199 26.1682 68.3982 26.2344 68.0859C26.3006 67.7736 26.43 67.4381 26.6865 67.165C26.9983 66.8334 27.5579 66.5066 28.0605 66.2607C28.5712 66.0111 29.1268 65.7956 29.4824 65.7246C29.5018 65.7207 29.5218 65.7203 29.541 65.7188C29.3733 65.4868 29.2232 65.2415 29.0928 64.9844ZM102 12C97.5817 12 94 15.5817 94 20V61C94 65.4183 97.5817 69 102 69H168C172.418 69 176 65.4183 176 61V20C176 15.5817 172.418 12 168 12H102ZM31.0898 67.166C31.0427 67.3329 30.9125 67.4714 30.7324 67.5166C30.6216 67.5443 30.2692 67.7045 29.793 68.0547C29.7415 68.0925 29.6912 68.1459 29.6426 68.2168C29.7584 68.1779 29.8807 68.1416 30.0029 68.1094C30.3346 68.022 30.7427 67.9378 31.1885 67.8594C31.51 67.8029 31.8549 67.7499 32.21 67.7002C31.8141 67.564 31.439 67.3842 31.0898 67.166ZM32 50.1523C25.7698 51.1143 21 56.5004 21 63C21 64.2215 21.1684 65.4036 21.4834 66.5244C21.4914 66.5109 21.5011 66.4987 21.5088 66.4834C21.6333 66.2373 21.9334 66.1385 22.1797 66.2627C22.4259 66.387 22.5252 66.6872 22.4014 66.9336C22.3518 67.0317 22.2995 67.1099 22.2744 67.1494C22.2726 67.1522 22.2701 67.1548 22.2686 67.1572C22.2662 67.2067 22.2691 67.2494 22.2764 67.2842L22.2822 67.2861C22.3718 67.3097 22.4928 67.3323 22.6309 67.3447C22.9154 67.3703 23.2192 67.3479 23.457 67.248C23.5995 67.1881 23.7369 67.0924 23.9111 66.9453C23.9989 66.8712 24.0887 66.7906 24.1934 66.6973C24.2959 66.6059 24.4095 66.5051 24.5352 66.4014C25.8934 65.2803 27.7927 64.4521 28.5303 64.249C28.6169 64.2252 28.704 64.2283 28.7852 64.249C28.7231 64.064 28.6702 63.8748 28.6279 63.6816C28.6247 63.6835 28.6224 63.6867 28.6191 63.6885C28.5313 63.7363 28.3605 63.8613 28.1299 64.0361C27.9191 64.196 27.6712 64.3869 27.4746 64.5205C27.0654 64.7985 26.4948 65.0172 25.8955 65.2363C25.5264 65.3713 25.1718 65.2837 24.9033 65.1748C24.6886 65.0876 24.4674 64.9589 24.2773 64.8477C23.8131 64.8587 23.5225 64.9025 23.3262 64.959C23.1266 65.0164 23.0089 65.0898 22.8867 65.1846L22.8711 65.1963C22.8023 65.2457 22.8058 65.2403 22.7842 65.2607C22.7668 65.2772 22.7262 65.3197 22.6582 65.4258C22.5092 65.658 22.2001 65.7249 21.9678 65.5762C21.7353 65.4271 21.6674 65.1182 21.8164 64.8857C21.8524 64.8296 21.8886 64.7801 21.9229 64.7344C21.8849 64.7319 21.8466 64.7265 21.8086 64.7148C21.5446 64.6337 21.3964 64.3538 21.4775 64.0898C21.56 63.8215 21.6013 63.6607 21.6738 63.5166C21.7475 63.3705 21.847 63.2418 21.9297 63.1455L21.9521 63.1191L21.9785 63.0957C22.1897 62.9097 22.4351 62.7854 22.6611 62.6826C22.9106 62.5693 23.1127 62.4911 23.373 62.3633C23.5866 62.2583 23.7457 62.1247 23.9375 61.9648C24.1112 61.8201 24.3564 61.6116 24.6797 61.5195C24.7174 61.5088 24.7608 61.497 24.8086 61.4844C24.3874 61.4175 24.0357 61.2329 23.7676 61.1123C23.4143 61.1558 23.1584 61.3006 22.8174 61.5225C22.8046 61.5418 22.7864 61.5738 22.7549 61.6367C22.6313 61.8836 22.3309 61.9838 22.084 61.8604C21.8371 61.7369 21.737 61.4364 21.8604 61.1895C21.9048 61.1005 21.9841 60.9346 22.1338 60.7861L22.1689 60.751L22.2109 60.7236C22.6289 60.4496 23.1016 60.1448 23.8223 60.1025L23.9346 60.0957L24.0391 60.1387C24.7174 60.4131 24.931 60.6026 25.3721 60.4736C25.9909 60.2926 27.3346 59.8517 28.3936 59.54C27.9214 59.5498 27.3161 59.5484 26.7939 59.499C26.4596 59.4674 26.1831 59.3492 25.9463 59.2207C25.8296 59.1574 25.7155 59.0876 25.6113 59.0234C25.5041 58.9573 25.4044 58.8961 25.2998 58.8369C25.1441 58.7489 24.9256 58.7343 24.6328 58.8047C24.3445 58.874 24.0625 59.0061 23.8232 59.1201C23.7848 59.1395 23.7517 59.1587 23.6904 59.1943C23.6339 59.2273 23.5558 59.2726 23.4619 59.3105C23.3711 59.3473 23.2762 59.3723 23.1992 59.3936C23.1157 59.4167 23.0189 59.4441 22.8887 59.4873C22.6268 59.574 22.3439 59.4317 22.2568 59.1699C22.1699 58.9078 22.3121 58.625 22.5742 58.5381C22.7292 58.4867 22.8455 58.4538 22.9326 58.4297C23.026 58.4039 23.06 58.3937 23.0869 58.3828C23.1109 58.3731 23.1384 58.3597 23.1875 58.3311C23.23 58.3063 23.3033 58.2617 23.3818 58.2227L23.3887 58.2188C23.6189 58.109 23.9923 57.9298 24.3984 57.832C24.8014 57.7351 25.3185 57.6982 25.792 57.9658C25.9166 58.0363 26.0339 58.1095 26.1367 58.1729C26.2425 58.2381 26.3339 58.2935 26.4229 58.3418C26.5977 58.4367 26.7396 58.4889 26.8877 58.5029C27.6623 58.5762 28.6672 58.5399 28.9863 58.5176C28.4461 58.3666 27.8736 58.1313 27.2295 57.7842C26.6515 57.4727 26.3358 57.0634 26.1504 56.75L26.1094 56.6807L26.0918 56.6016C25.9727 56.0512 25.9963 55.51 26.0352 55.2061C26.0447 55.0931 26.047 54.8636 26.1357 54.5635C26.1596 54.4829 26.203 54.4137 26.2578 54.3574C26.2132 54.3574 26.1676 54.3574 26.1211 54.3574C25.845 54.3574 25.6211 54.1335 25.6211 53.8574C25.6211 53.5813 25.845 53.3574 26.1211 53.3574C26.3798 53.3574 26.6537 53.357 26.8721 53.3701C27.0514 53.3809 27.2589 53.4026 27.4512 53.4883L27.5332 53.5283L27.5771 53.5537L27.6152 53.5869C27.7011 53.6616 27.7614 53.7572 27.792 53.8076C27.8306 53.8713 27.8707 53.9464 27.9092 54.0205C27.992 54.1801 28.0738 54.3482 28.1836 54.5527C28.3986 54.9534 28.6685 55.3926 29.0059 55.7295C29.1425 55.8658 29.4294 56.0522 29.7842 56.2344C30.1286 56.4112 30.4823 56.5564 30.7148 56.627C30.7765 56.6457 30.8313 56.6761 30.8789 56.7139C30.848 56.6585 30.8177 56.6027 30.7871 56.5469C30.3382 56.0913 29.8639 55.5965 29.4424 55.1523C28.831 54.5081 28.3396 53.9825 28.1689 53.8115C28.165 53.8085 28.1528 53.8001 28.123 53.7812C28.1033 53.7688 28.0659 53.7459 28.0293 53.7188C27.9911 53.6904 27.9413 53.6492 27.8936 53.5928C27.7416 53.4129 27.6432 53.1236 27.7656 52.8301C27.8206 52.6986 27.9096 52.6032 27.9473 52.5625C28.0017 52.5037 28.0194 52.4873 28.0439 52.4561C28.0684 52.4249 28.2136 52.1884 28.4492 51.9512C28.6438 51.7554 28.9604 51.7548 29.1562 51.9492C29.352 52.1438 29.3536 52.4603 29.1592 52.6562C28.9695 52.8472 28.9719 52.8905 28.833 53.0684C28.8469 53.0806 28.8632 53.0917 28.877 53.1055C29.0081 53.2369 29.3091 53.5576 29.6895 53.96C29.6787 53.8997 29.6699 53.8402 29.665 53.7822C29.6549 53.6603 29.6565 53.5081 29.7061 53.3594C29.8231 53.0084 30.052 52.7636 30.1963 52.6064C30.3376 52.4525 30.3914 52.3827 30.415 52.333C30.4186 52.2761 30.4191 52.2155 30.4131 52.1602C30.4109 52.1398 30.4103 52.1307 30.3994 52.1016C30.3835 52.0587 30.3488 51.9816 30.2695 51.834C30.1393 51.5909 30.2308 51.2879 30.4736 51.1572C30.7169 51.0267 31.0207 51.1181 31.1514 51.3613C31.3264 51.6875 31.3851 51.8486 31.4072 52.0508C31.4228 52.1934 31.4235 52.3476 31.4072 52.4912L31.4023 52.5293L31.3926 52.5674C31.3009 52.9013 31.0586 53.145 30.9326 53.2822C30.7844 53.4437 30.7028 53.5445 30.6602 53.6611C30.6601 53.6686 30.6606 53.6811 30.6621 53.6992C30.6665 53.7516 30.6798 53.8271 30.7061 53.9277C30.7588 54.1295 30.8528 54.3895 30.9814 54.6895C31.1482 55.0783 31.3659 55.5137 31.6006 55.9482C31.7377 56.0868 31.8717 56.2205 32 56.3467V50.1523ZM36 62C36 63.1046 35.1046 64 34 64C32.8954 64 32 63.1046 32 62V58.4678C30.5183 59.2041 29.5 60.7331 29.5 62.5C29.5 64.9853 31.5147 67 34 67C36.4853 67 38.5 64.9853 38.5 62.5C38.5 60.7331 37.4817 59.2041 36 58.4678V62ZM46.8789 64.3037C46.4737 64.4923 45.8598 64.7399 45.0332 64.7842C44.8354 64.7947 44.5494 64.7663 44.2012 64.7051C44.1543 64.7835 44.0867 64.8512 43.999 64.8955C43.9244 64.9332 43.9037 64.9558 43.7949 65.0508L43.7324 65.1064L43.6543 65.1377C42.8644 65.4579 41.8516 65.3941 41.1377 65.3486L41.1055 65.3457L41.0732 65.3398C40.7036 65.2671 40.2918 65.1703 39.9229 65.082C39.5472 64.9921 39.2237 64.9129 39.0107 64.8682C38.9968 64.8652 38.9841 64.8585 38.9707 64.8545C38.9074 64.9879 38.8381 65.1179 38.7646 65.2451C39.812 65.4165 41.4476 65.6879 42.4375 65.7744C42.8898 65.814 43.214 66.0424 43.4414 66.2139C43.6682 66.385 43.7914 66.4836 43.9277 66.5391C44.4305 66.5521 44.9526 66.4877 45.3076 66.3828C45.4438 66.3367 45.5952 66.2732 45.8643 66.2188C46.1347 66.1642 46.3982 66.3391 46.4531 66.6094C46.4598 66.6425 46.4618 66.6755 46.4619 66.708C46.6944 65.9254 46.855 65.1121 46.9365 64.2754L46.8789 64.3037ZM136.5 16C137.605 16 138.5 16.8954 138.5 18V21H160.5L160.81 21.0039C167.294 21.1681 172.5 26.4761 172.5 33V54C172.5 60.6274 167.127 66 160.5 66H109.5C102.976 66 97.6681 60.7939 97.5039 54.3096L97.5 54V33C97.5 26.4761 102.706 21.1681 109.19 21.0039L109.5 21H131.5V18C131.5 16.8954 132.395 16 133.5 16H136.5ZM39.4736 63.0322C39.4447 63.3337 39.3911 63.6278 39.3154 63.9131C39.5406 63.9629 39.8424 64.0345 40.1553 64.1094C40.5139 64.1952 40.8974 64.2847 41.2383 64.3525C41.7644 64.3856 42.2857 64.4049 42.7324 64.3438C42.3347 64.2236 41.8982 64.0779 41.4326 63.9004C40.8128 63.6641 40.36 63.4791 40.0479 63.3389C39.8925 63.2691 39.7662 63.2077 39.6689 63.1553C39.6129 63.125 39.5405 63.0828 39.4736 63.0322ZM28.5049 62.2705C28.1425 62.2808 27.6705 62.3126 27.2324 62.3721C26.9864 62.4055 26.7604 62.4477 26.5752 62.4941C26.5547 62.6636 26.4773 62.8357 26.3184 62.9658C26.1136 63.133 25.8555 63.1606 25.7061 63.1602C25.6206 63.1599 25.5133 63.1492 25.4141 63.1201C25.374 63.1083 25.2756 63.0774 25.1846 63.001C25.1354 62.9596 25.0581 62.8802 25.0186 62.7539C24.9871 62.6532 24.9901 62.5534 25.0137 62.4648C24.9947 62.47 24.9738 62.4756 24.9531 62.4814C24.8644 62.5068 24.7732 62.5691 24.5771 62.7324C24.3988 62.881 24.1515 63.0946 23.8135 63.2607C23.5454 63.3924 23.2586 63.5095 23.0752 63.5928C22.8861 63.6787 22.7584 63.7495 22.665 63.8252C22.6189 63.8814 22.586 63.9301 22.5674 63.9668C22.5481 64.0051 22.5404 64.0304 22.4717 64.2549C22.6264 64.1566 22.8098 64.0671 23.0498 63.998C23.3856 63.9015 23.8123 63.8503 24.4004 63.8447L24.5371 63.8428L24.6562 63.9111C24.9124 64.0593 25.1001 64.1752 25.2793 64.248C25.4528 64.3184 25.5236 64.3072 25.5518 64.2969C26.1767 64.0684 26.6238 63.8892 26.9121 63.6934C27.0808 63.5788 27.2984 63.4113 27.5254 63.2393C27.7323 63.0824 27.9723 62.9017 28.1416 62.8096C28.2576 62.7465 28.3873 62.7349 28.5059 62.7656C28.5017 62.6776 28.5 62.589 28.5 62.5C28.5 62.4231 28.5018 62.3466 28.5049 62.2705ZM109.5 23C103.977 23 99.5 27.4772 99.5 33V54C99.5 59.5228 103.977 64 109.5 64H160.5C166.023 64 170.5 59.5228 170.5 54V33C170.5 27.4772 166.023 23 160.5 23H138.5V34L138.489 34.2041C138.394 35.1457 137.646 35.8938 136.704 35.9893L136.5 36H133.5L133.296 35.9893C132.354 35.8938 131.606 35.1457 131.511 34.2041L131.5 34V23H109.5ZM46.8125 62.4355L46.8096 62.4365C46.6817 62.4926 46.5498 62.5466 46.4248 62.5977C46.2976 62.6496 46.1772 62.6989 46.0625 62.749C45.8415 62.8456 45.6763 62.9319 45.5645 63.0146C45.2982 63.2977 45.0441 63.5785 44.8721 63.7822C44.9161 63.7845 44.9519 63.7866 44.9795 63.7852C45.5749 63.7532 46.0294 63.5863 46.3701 63.4336C46.4283 63.3708 46.4824 63.3122 46.5303 63.2568C46.4917 63.0169 46.6316 62.7785 46.8701 62.7021L46.9961 62.6729C46.9936 62.571 46.9892 62.4694 46.9844 62.3682C46.9167 62.3909 46.8639 62.4127 46.8125 62.4355ZM36 51.4668C36.0987 51.6185 36.1131 51.818 36.0176 51.9863C36.0108 51.9983 36.0052 52.0091 36 52.0186V52.0635C36.053 52.1609 36.1641 52.3115 36.3838 52.5146C36.763 52.8506 37.358 53.2531 37.5361 54.2822C37.6452 54.9134 37.56 55.5976 37.4248 56.1533C37.2919 56.6996 37.0915 57.2007 36.9131 57.46C36.8398 57.5663 36.7318 57.6326 36.6152 57.6602C36.7443 57.7301 36.8696 57.8061 36.9922 57.8857C36.9916 57.8096 37.0058 57.732 37.042 57.6592C37.078 57.587 37.1432 57.4919 37.1855 57.4287C37.2397 57.3479 37.3049 57.2495 37.3779 57.1309C37.5237 56.8942 37.7002 56.5747 37.8584 56.1738C38.2024 55.3019 38.352 54.67 38.4639 54.1963C38.5185 53.9651 38.5707 53.7406 38.6367 53.5518C38.7048 53.357 38.8017 53.156 38.9697 52.9873L39.0664 52.8896L39.2002 52.8555C39.431 52.7965 39.6516 52.8072 39.8486 52.8477L40.0381 52.8965L40.0508 52.9014L40.0635 52.9053C40.1873 52.9515 40.3052 53.011 40.3965 53.0566C40.6433 53.1801 40.7434 53.4807 40.6201 53.7275C40.4966 53.9745 40.1962 54.0746 39.9492 53.9512C39.8532 53.9032 39.7852 53.8707 39.7227 53.8467C39.6795 53.8339 39.6408 53.8253 39.6064 53.8203C39.599 53.8384 39.5892 53.8585 39.5811 53.8818C39.5361 54.0107 39.4962 54.1772 39.4375 54.4258C39.3225 54.9125 39.1599 55.5999 38.7891 56.54C38.6041 57.0089 38.3977 57.382 38.2295 57.6553C38.1457 57.7913 38.0718 57.903 38.0166 57.9854C37.9498 58.085 37.9356 58.1065 37.9365 58.1045C37.8705 58.2371 37.7534 58.3258 37.6211 58.3623C37.7021 58.4332 37.7808 58.5065 37.8574 58.582C37.964 58.4923 38.112 58.3615 38.2744 58.2119C38.2509 58.1157 38.2562 58.0113 38.2949 57.9121C38.4035 57.6346 38.5583 57.2688 38.7334 56.9355C38.8209 56.769 38.9183 56.6015 39.0215 56.4551C39.1204 56.3147 39.2448 56.1637 39.3945 56.0547C39.71 55.8249 40.1578 55.7259 40.5195 55.6602C40.9025 55.5905 41.2257 55.5503 41.5371 55.4834C41.9971 55.1736 42.2893 54.9457 42.4512 54.8164C42.4781 54.7932 42.4966 54.7767 42.5195 54.75C42.547 54.718 42.5873 54.6646 42.6523 54.5674C42.8058 54.3383 43.1163 54.2767 43.3457 54.4297C43.5752 54.5832 43.6368 54.8945 43.4834 55.124C43.3215 55.366 43.2225 55.4733 43.0977 55.5801L43.0918 55.585L43.085 55.5908C42.9012 55.7377 42.5592 56.0059 42.0137 56.3691L41.9385 56.4189L41.8506 56.4395C41.4895 56.5241 41.0238 56.5853 40.6982 56.6445C40.3167 56.7139 40.0897 56.7859 39.9834 56.8633C39.9768 56.8681 39.9676 56.8772 39.9551 56.8896C40.2113 56.7885 40.4646 56.7276 40.6924 56.7021L40.833 56.6865L40.96 56.7461C41.5859 57.0397 42.2372 57.4728 42.5361 57.6836C42.6719 57.7711 42.9334 57.9194 43.1865 58.1426C43.2664 58.2131 43.3174 58.304 43.3408 58.4004C43.47 58.3428 43.5693 58.2926 43.6475 58.252L43.6582 58.2461L43.6699 58.2412C43.8442 58.1616 43.9751 58.129 44.0771 58.1035C44.3449 58.0368 44.6157 58.2 44.6826 58.4678C44.7493 58.7355 44.5871 59.0073 44.3193 59.0742C44.2321 59.096 44.1762 59.1095 44.0938 59.1465C43.7649 59.3174 43.1731 59.6162 41.9639 59.8232L41.9199 59.8311L41.876 59.8301C40.19 59.8185 39.0441 59.7966 38.7881 59.7949C38.8269 59.8634 38.8645 59.9326 38.9004 60.0029C39.0209 59.8811 39.1999 59.8241 39.3779 59.8691C40.2569 60.0917 41.1711 60.3192 41.9385 60.4805C42.3223 60.5611 42.6622 60.6237 42.9385 60.6611C43.2287 60.7005 43.4033 60.7058 43.4805 60.6953C43.7414 60.6597 44.0181 60.5362 44.3086 60.3662C44.4514 60.2826 44.5892 60.193 44.7256 60.1035C44.8566 60.0175 44.9959 59.925 45.123 59.8516C45.1303 59.8474 45.139 59.8417 45.1846 59.8037C45.2165 59.7771 45.3045 59.7002 45.4209 59.6494L45.4941 59.6221C45.6502 59.5719 45.8656 59.5539 46.0654 59.6602L46.1641 59.7246L46.25 59.8047C46.3241 59.8879 46.3647 59.9761 46.3877 60.0342C46.4183 60.1117 46.4382 60.1933 46.4482 60.2334C46.5147 60.501 46.3516 60.7729 46.084 60.8398C45.9132 60.8823 45.7417 60.8297 45.6221 60.7178C45.5257 60.7735 45.4148 60.8473 45.2744 60.9395C45.1386 61.0286 44.9811 61.1314 44.8135 61.2295C44.4829 61.4229 44.0712 61.6234 43.6162 61.6855C43.3931 61.716 43.0998 61.6925 42.8037 61.6523C42.4934 61.6102 42.1271 61.5419 41.7324 61.459C40.979 61.3006 40.0956 61.0818 39.2539 60.8691C39.3842 61.2893 39.4647 61.7309 39.4902 62.1875C39.6826 62.0703 39.9361 62.0935 40.1025 62.2598C40.0678 62.2251 40.0575 62.228 40.1436 62.2744C40.2115 62.3111 40.3139 62.362 40.458 62.4268C40.7454 62.5559 41.1777 62.7331 41.7881 62.9658C42.5653 63.2621 43.2488 63.4655 43.793 63.5967C43.8068 63.5519 43.8253 63.5078 43.8525 63.4668C44.0213 63.213 44.4791 62.7083 44.8682 62.2959L44.8936 62.2686L44.9229 62.2461C45.1411 62.0741 45.4139 61.9414 45.6621 61.833C45.7898 61.7772 45.9221 61.7229 46.0469 61.6719C46.1737 61.62 46.2939 61.5706 46.4082 61.5205C46.5336 61.4648 46.6761 61.4093 46.8965 61.3535C46.1704 55.6087 41.6956 51.0318 36 50.1523V51.4668ZM28.9023 60.4346C27.8459 60.7373 26.3905 61.2177 25.6523 61.4336C25.6473 61.4351 25.6418 61.4351 25.6367 61.4365C25.6583 61.4416 25.6806 61.4457 25.7021 61.4521C25.8138 61.4858 25.939 61.5346 26.0596 61.6025C26.1298 61.5788 26.1997 61.5577 26.2656 61.54C26.5156 61.4731 26.8063 61.4204 27.0977 61.3809C27.6387 61.3074 28.2235 61.2715 28.6396 61.2666C28.7053 60.98 28.7938 60.7022 28.9023 60.4346ZM29.3857 58.6143C29.495 58.6963 29.5717 58.8211 29.585 58.9678C29.5961 59.093 29.5579 59.2103 29.4893 59.3047C29.4991 59.3071 29.5089 59.3095 29.5186 59.3125C29.67 59.0999 29.8361 58.8986 30.0156 58.71C29.8073 58.6904 29.5985 58.6584 29.3857 58.6143ZM40.668 57.7168C40.3486 57.7781 39.9829 57.9367 39.7061 58.2207C39.5268 58.4047 39.3155 58.6081 39.1123 58.7988C39.6151 58.8058 40.5897 58.8203 41.8379 58.8291C42.0123 58.7985 42.1707 58.7639 42.3154 58.7305C42.213 58.6602 42.1099 58.5991 41.9941 58.5244L41.9854 58.5186L41.9766 58.5117C41.7251 58.3334 41.188 57.977 40.668 57.7168ZM27.1123 54.6562C27.1184 54.7184 27.1135 54.7831 27.0947 54.8467C27.0425 55.0232 27.0447 55.1209 27.0303 55.291L27.0283 55.3164C27.0006 55.5196 26.982 55.9105 27.0537 56.3047C27.1767 56.4957 27.3671 56.7216 27.7041 56.9033C28.8281 57.5091 29.6429 57.7155 30.4414 57.7363C30.6213 57.7411 30.7752 57.8405 30.8594 57.9854C31.2117 57.7398 31.5942 57.5355 32 57.377V57.1504C31.9903 57.1578 31.9808 57.1653 31.9707 57.1719C31.9304 57.2318 31.8779 57.2851 31.8115 57.3242C31.5736 57.4642 31.2671 57.3853 31.127 57.1475C31.105 57.1102 31.0844 57.0719 31.0625 57.0342C31.0727 57.1047 31.0699 57.1783 31.0479 57.251C30.9676 57.5149 30.6888 57.6638 30.4248 57.584C30.1202 57.4915 29.7093 57.3202 29.3271 57.124C28.9554 56.9331 28.552 56.6891 28.2998 56.4375C27.8564 55.9949 27.5311 55.4509 27.3027 55.0254C27.2332 54.8958 27.1683 54.7664 27.1123 54.6562ZM36 57.377C36.0185 57.3842 36.0372 57.391 36.0557 57.3984C35.9775 57.2411 35.9826 57.0485 36.0889 56.8936C36.1675 56.7793 36.3325 56.4128 36.4531 55.917C36.5715 55.4305 36.6275 54.8958 36.5508 54.4521C36.4676 53.9719 36.2805 53.7564 36 53.5068V57.377ZM31 19.5C22.1634 19.5 15 26.6634 15 35.5V49.1436L15.0283 49.1279C20.3153 46.1476 26.1381 44.5436 32 44.3086V19.5H31ZM36 44.3604C41.54 44.7273 47.0136 46.3197 52 49.1328V35.5C52 26.6634 44.8366 19.5 36 19.5V44.3604ZM339 37C342.314 37 345 39.6863 345 43C345 46.3137 342.314 49 339 49C335.686 49 333 46.3137 333 43C333 39.6863 335.686 37 339 37ZM491 37C494.314 37 497 39.6863 497 43C497 46.3137 494.314 49 491 49C487.686 49 485 46.3137 485 43C485 39.6863 487.686 37 491 37ZM643 37C646.314 37 649 39.6863 649 43C649 46.3137 646.314 49 643 49C639.686 49 637 46.3137 637 43C637 39.6863 639.686 37 643 37ZM339 39C336.791 39 335 40.7909 335 43C335 45.2091 336.791 47 339 47C341.209 47 343 45.2091 343 43C343 40.7909 341.209 39 339 39ZM491 39C488.791 39 487 40.7909 487 43C487 45.2091 488.791 47 491 47C493.209 47 495 45.2091 495 43C495 40.7909 493.209 39 491 39ZM643 39C640.791 39 639 40.7909 639 43C639 45.2091 640.791 47 643 47C645.209 47 647 45.2091 647 43C647 40.7909 645.209 39 643 39ZM133.5 34H136.5V18H133.5V34ZM309.536 33.9326C327.34 22.0055 350.637 22.0014 368.444 33.9199L365.443 12H312.583L309.536 33.9326ZM461.536 33.9326C479.34 22.0055 502.637 22.0014 520.444 33.9199L517.443 12H464.583L461.536 33.9326ZM613.536 33.9326C631.34 22.0055 654.637 22.0014 672.444 33.9199L669.443 12H616.583L613.536 33.9326Z" fill="#1F6FF1"/>
</svg>
