<svg width="820" height="727" viewBox="0 0 820 727" fill="none" xmlns="http://www.w3.org/2000/svg">
<path d="M816.5 0C818.433 0 820 1.567 820 3.5V723.5C820 725.433 818.433 727 816.5 727H303.536C303.524 727 303.512 727.001 303.5 727.001C301.567 727.001 300 725.434 300 723.501V233.5H254V259.5C254 261.433 252.433 263 250.5 263H3.5C1.567 263 0 261.433 0 259.5V199.5C0 197.567 1.567 196 3.5 196C5.433 196 7 197.567 7 199.5V256H247V231.5C247 231.243 247.028 230.992 247.081 230.75C247.028 230.508 247 230.257 247 230C247 228.067 248.567 226.5 250.5 226.5H300V199.5C300 197.567 301.567 196 303.5 196C305.433 196 307 197.567 307 199.5V720H563.036C563.013 719.837 563 719.67 563 719.5V705.5C563 703.567 564.567 702 566.5 702C568.433 702 570 703.567 570 705.5V719.5C570 719.67 569.987 719.837 569.964 720H813V543.464C812.837 543.487 812.67 543.5 812.5 543.5H570V557.5C570 559.433 568.433 561 566.5 561C564.567 561 563 559.433 563 557.5V524.5C563 522.567 564.567 521 566.5 521C568.433 521 570 522.567 570 524.5V536.5H812.5C812.67 536.5 812.837 536.512 813 536.535V366.964C812.837 366.987 812.67 367 812.5 367H570V380.5C570 382.433 568.433 384 566.5 384C564.567 384 563 382.433 563 380.5V347.5C563 345.567 564.567 344 566.5 344C568.433 344 570 345.567 570 347.5V360H812.5C812.67 360 812.837 360.012 813 360.035V190.464C812.837 190.487 812.67 190.5 812.5 190.5H570V204.5C570 206.433 568.433 208 566.5 208C564.567 208 563 206.433 563 204.5V171.5C563 169.567 564.567 168 566.5 168C568.433 168 570 169.567 570 171.5V183.5H812.5C812.67 183.5 812.837 183.512 813 183.535V7H569.964C569.987 7.16333 570 7.33021 570 7.5V21.5C570 23.433 568.433 25 566.5 25C564.567 25 563 23.433 563 21.5V7.5C563 7.33021 563.013 7.16333 563.036 7H307V36.5C307 38.433 305.433 40 303.5 40C301.567 40 300 38.433 300 36.5V7H7V36.5C7 38.433 5.433 40 3.5 40C1.567 40 0 38.433 0 36.5V3.5C0 1.567 1.567 0 3.5 0H816.5Z" fill="#1F6FF1"/>
<path fill-rule="evenodd" clip-rule="evenodd" d="M795 627C797.209 627 799 629.239 799 632C799 634.761 797.209 637 795 637C792.791 637 791 634.761 791 632C791 629.239 792.791 627 795 627ZM795 628C793.54 628 792 629.571 792 632C792 634.429 793.54 636 795 636C796.46 636 798 634.429 798 632C798 629.571 796.46 628 795 628Z" fill="#1F6FF1"/>
<path fill-rule="evenodd" clip-rule="evenodd" d="M807 587C809.761 587 812 589.239 812 592V672C812 674.761 809.761 677 807 677H782C780.346 677 778.88 676.197 777.97 674.959C774.516 674.468 771.423 669.215 769.247 661.076L769.124 660.605C760.421 669.431 747.689 675 733.5 675C707.471 675 686.332 656.268 686.004 633.049C686.001 632.866 686 632.683 686 632.5C686 632.317 686.001 632.134 686.004 631.951C686.332 608.732 707.471 590 733.5 590C747.688 590 760.42 595.567 769.123 604.392C771.174 596.49 774.077 591.202 777.342 590.182C778.069 588.319 779.88 587 782 587H807ZM782 591C781.789 591 781.592 591.065 781.431 591.177C786.92 595.662 791 612.461 791 632.5C791 651.469 787.343 667.533 782.297 673H807C807.552 673 808 672.552 808 672V592C808 591.448 807.552 591 807 591H782ZM733.5 594C709.046 594 690 611.644 690 632.5C690 653.356 709.046 671 733.5 671C747.761 671 760.18 664.997 768.057 655.858C767.254 651.72 766.658 647.076 766.32 642.098L766.295 641.713C761.825 654.076 749.057 663 734 663C715.222 663 700 649.121 700 632C700 614.879 715.222 601 734 601C749.121 601 761.935 610.001 766.353 622.447C766.695 617.64 767.279 613.153 768.057 609.141C760.18 600.002 747.761 594 733.5 594ZM778.5 594.017C778.33 594.086 777.779 594.387 776.919 595.623C775.768 597.278 774.57 599.934 773.499 603.576C773.324 604.17 773.155 604.784 772.991 605.417C772.629 606.816 772.291 608.314 771.983 609.902L771.899 610.338C771.23 613.889 770.712 617.85 770.388 622.104L770.343 622.731L770.264 623.911C770.091 626.678 770 629.552 770 632.5C770 633.564 770.012 634.618 770.035 635.66C770.045 636.083 770.056 636.503 770.069 636.922C770.072 636.997 770.075 637.072 770.077 637.147C770.087 637.444 770.097 637.74 770.108 638.034C770.14 638.829 770.178 639.616 770.223 640.395C770.527 645.746 771.134 650.69 771.967 655.012L771.983 655.097C772.29 656.68 772.627 658.175 772.988 659.571C773.153 660.208 773.323 660.827 773.499 661.424C774.57 665.066 775.768 667.722 776.919 669.377C777.778 670.612 778.33 670.913 778.5 670.982C778.543 670.965 778.608 670.932 778.697 670.875C778.854 670.77 779.078 670.59 779.357 670.287L779.497 670.135C779.671 669.932 779.867 669.684 780.081 669.377C781.232 667.722 782.43 665.066 783.501 661.424C785.628 654.192 787 643.965 787 632.5C787 621.035 785.628 610.808 783.501 603.576C782.43 599.934 781.232 597.278 780.081 595.623C779.643 594.993 779.284 594.607 779.016 594.369L778.899 594.274C778.771 594.17 778.669 594.105 778.596 594.063C778.556 594.042 778.524 594.026 778.5 594.017ZM734 603C716.149 603 702 616.154 702 632C702 647.846 716.149 661 734 661C751.851 661 766 647.846 766 632C766 616.154 751.851 603 734 603Z" fill="#1F6FF1"/>
<path fill-rule="evenodd" clip-rule="evenodd" d="M343 595C346.314 595 349 597.686 349 601C349 604.314 346.314 607 343 607C339.686 607 337 604.314 337 601C337 597.686 339.686 595 343 595ZM343 597C340.791 597 339 598.791 339 601C339 603.209 340.791 605 343 605C345.209 605 347 603.209 347 601C347 598.791 345.209 597 343 597Z" fill="#1F6FF1"/>
<path fill-rule="evenodd" clip-rule="evenodd" d="M347 566C363.568 566 377 581.67 377 601C377 620.33 363.568 636 347 636C345.638 636 344.297 635.895 342.983 635.69C342.816 635.711 342.644 635.711 342.469 635.687L310.431 631.237C310.252 631.213 310.083 631.163 309.925 631.096C308.855 631.056 308 630.179 308 629.1V573C308 572.328 308.333 571.735 308.842 571.372C309.141 571.069 309.537 570.857 309.991 570.795L343.019 566.271C343.135 566.256 343.25 566.253 343.363 566.257C344.555 566.089 345.769 566 347 566ZM347 570C345.848 570 344.706 570.095 343.582 570.275C343.519 570.266 343.456 570.261 343.392 570.258L336.609 571.188C323.769 588.986 323.774 613.046 336.627 630.838L342.854 631.702C342.962 631.696 343.069 631.681 343.173 631.658C344.428 631.884 345.708 632 347 632C360.803 632 373 618.721 373 601C373 583.279 360.803 570 347 570ZM312 574.557V627.417L333.933 630.464C322.005 612.66 322.001 589.363 333.92 571.556L312 574.557Z" fill="#1F6FF1"/>
<path fill-rule="evenodd" clip-rule="evenodd" d="M795 450C797.209 450 799 452.239 799 455C799 457.761 797.209 460 795 460C792.791 460 791 457.761 791 455C791 452.239 792.791 450 795 450ZM795 451C793.54 451 792 452.571 792 455C792 457.429 793.54 459 795 459C796.46 459 798 457.429 798 455C798 452.571 796.46 451 795 451Z" fill="#1F6FF1"/>
<path fill-rule="evenodd" clip-rule="evenodd" d="M807 410C809.761 410 812 412.239 812 415V495C812 497.761 809.761 500 807 500H782C780.346 500 778.88 499.197 777.97 497.959C774.516 497.468 771.423 492.215 769.247 484.076L769.124 483.605C760.421 492.431 747.689 498 733.5 498C707.471 498 686.332 479.268 686.004 456.049C686.001 455.866 686 455.683 686 455.5C686 455.317 686.001 455.134 686.004 454.951C686.332 431.732 707.471 413 733.5 413C747.688 413 760.42 418.567 769.123 427.392C771.174 419.49 774.077 414.202 777.342 413.182C778.069 411.319 779.88 410 782 410H807ZM782 414C781.789 414 781.592 414.065 781.431 414.177C786.92 418.662 791 435.461 791 455.5C791 474.469 787.343 490.533 782.297 496H807C807.552 496 808 495.552 808 495V415C808 414.448 807.552 414 807 414H782ZM733.5 417C709.046 417 690 434.644 690 455.5C690 476.356 709.046 494 733.5 494C747.761 494 760.18 487.997 768.057 478.858C767.254 474.72 766.658 470.076 766.32 465.098L766.295 464.713C761.825 477.076 749.057 486 734 486C715.222 486 700 472.121 700 455C700 437.879 715.222 424 734 424C749.121 424 761.935 433.001 766.353 445.447C766.695 440.64 767.279 436.153 768.057 432.141C760.18 423.002 747.761 417 733.5 417ZM778.5 417.017C778.33 417.086 777.779 417.387 776.919 418.623C775.768 420.278 774.57 422.934 773.499 426.576C773.324 427.17 773.155 427.784 772.991 428.417C772.629 429.816 772.291 431.314 771.983 432.902L771.899 433.338C771.23 436.889 770.712 440.85 770.388 445.104L770.343 445.731L770.264 446.911C770.091 449.678 770 452.552 770 455.5C770 456.564 770.012 457.618 770.035 458.66C770.045 459.083 770.056 459.503 770.069 459.922C770.072 459.997 770.075 460.072 770.077 460.147C770.087 460.444 770.097 460.74 770.108 461.034C770.14 461.829 770.178 462.616 770.223 463.395C770.527 468.746 771.134 473.69 771.967 478.012L771.983 478.097C772.29 479.68 772.627 481.175 772.988 482.571C773.153 483.208 773.323 483.827 773.499 484.424C774.57 488.066 775.768 490.722 776.919 492.377C777.778 493.612 778.33 493.913 778.5 493.982C778.543 493.965 778.608 493.932 778.697 493.875C778.854 493.77 779.078 493.59 779.357 493.287L779.497 493.135C779.671 492.932 779.867 492.684 780.081 492.377C781.232 490.722 782.43 488.066 783.501 484.424C785.628 477.192 787 466.965 787 455.5C787 444.035 785.628 433.808 783.501 426.576C782.43 422.934 781.232 420.278 780.081 418.623C779.643 417.993 779.284 417.607 779.016 417.369L778.899 417.274C778.771 417.17 778.669 417.105 778.596 417.063C778.556 417.042 778.524 417.026 778.5 417.017ZM734 426C716.149 426 702 439.154 702 455C702 470.846 716.149 484 734 484C751.851 484 766 470.846 766 455C766 439.154 751.851 426 734 426Z" fill="#1F6FF1"/>
<path fill-rule="evenodd" clip-rule="evenodd" d="M343 443C346.314 443 349 445.686 349 449C349 452.314 346.314 455 343 455C339.686 455 337 452.314 337 449C337 445.686 339.686 443 343 443ZM343 445C340.791 445 339 446.791 339 449C339 451.209 340.791 453 343 453C345.209 453 347 451.209 347 449C347 446.791 345.209 445 343 445Z" fill="#1F6FF1"/>
<path fill-rule="evenodd" clip-rule="evenodd" d="M347 414C363.568 414 377 429.67 377 449C377 468.33 363.568 484 347 484C345.638 484 344.297 483.895 342.983 483.69C342.816 483.711 342.644 483.711 342.469 483.687L310.431 479.237C310.252 479.213 310.083 479.163 309.925 479.096C308.855 479.056 308 478.179 308 477.1V421C308 420.328 308.333 419.735 308.842 419.372C309.141 419.069 309.537 418.857 309.991 418.795L343.019 414.271C343.135 414.256 343.25 414.253 343.363 414.257C344.555 414.089 345.769 414 347 414ZM347 418C345.848 418 344.706 418.095 343.582 418.275C343.519 418.266 343.456 418.261 343.392 418.258L336.609 419.188C323.769 436.986 323.774 461.046 336.627 478.838L342.854 479.702C342.962 479.696 343.069 479.681 343.173 479.658C344.428 479.884 345.708 480 347 480C360.803 480 373 466.721 373 449C373 431.279 360.803 418 347 418ZM312 422.557V475.417L333.933 478.464C322.005 460.66 322.001 437.363 333.92 419.556L312 422.557Z" fill="#1F6FF1"/>
<path fill-rule="evenodd" clip-rule="evenodd" d="M343 291C346.314 291 349 293.686 349 297C349 300.314 346.314 303 343 303C339.686 303 337 300.314 337 297C337 293.686 339.686 291 343 291ZM343 293C340.791 293 339 294.791 339 297C339 299.209 340.791 301 343 301C345.209 301 347 299.209 347 297C347 294.791 345.209 293 343 293Z" fill="#1F6FF1"/>
<path fill-rule="evenodd" clip-rule="evenodd" d="M347 262C363.568 262 377 277.67 377 297C377 316.33 363.568 332 347 332C345.638 332 344.297 331.895 342.983 331.69C342.816 331.711 342.644 331.711 342.469 331.687L310.431 327.237C310.252 327.213 310.083 327.163 309.925 327.096C308.855 327.056 308 326.179 308 325.1V269C308 268.328 308.333 267.735 308.842 267.372C309.141 267.069 309.537 266.857 309.991 266.795L343.019 262.271C343.135 262.256 343.25 262.253 343.363 262.257C344.555 262.089 345.769 262 347 262ZM347 266C345.848 266 344.706 266.095 343.582 266.275C343.519 266.266 343.456 266.261 343.392 266.258L336.609 267.188C323.769 284.986 323.774 309.046 336.627 326.838L342.854 327.702C342.962 327.696 343.069 327.681 343.173 327.658C344.428 327.884 345.708 328 347 328C360.803 328 373 314.721 373 297C373 279.279 360.803 266 347 266ZM312 270.557V323.417L333.933 326.464C322.005 308.66 322.001 285.363 333.92 267.556L312 270.557Z" fill="#1F6FF1"/>
<path fill-rule="evenodd" clip-rule="evenodd" d="M795 274C797.209 274 799 276.239 799 279C799 281.761 797.209 284 795 284C792.791 284 791 281.761 791 279C791 276.239 792.791 274 795 274ZM795 275C793.54 275 792 276.571 792 279C792 281.429 793.54 283 795 283C796.46 283 798 281.429 798 279C798 276.571 796.46 275 795 275Z" fill="#1F6FF1"/>
<path fill-rule="evenodd" clip-rule="evenodd" d="M807 234C809.761 234 812 236.239 812 239V319C812 321.761 809.761 324 807 324H782C780.346 324 778.88 323.197 777.97 321.959C774.516 321.468 771.423 316.215 769.247 308.076L769.124 307.605C760.421 316.431 747.689 322 733.5 322C707.471 322 686.332 303.268 686.004 280.049C686.001 279.866 686 279.683 686 279.5C686 279.317 686.001 279.134 686.004 278.951C686.332 255.732 707.471 237 733.5 237C747.688 237 760.42 242.567 769.123 251.392C771.174 243.49 774.077 238.202 777.342 237.182C778.069 235.319 779.88 234 782 234H807ZM782 238C781.789 238 781.592 238.065 781.431 238.177C786.92 242.662 791 259.461 791 279.5C791 298.469 787.343 314.533 782.297 320H807C807.552 320 808 319.552 808 319V239C808 238.448 807.552 238 807 238H782ZM733.5 241C709.046 241 690 258.644 690 279.5C690 300.356 709.046 318 733.5 318C747.761 318 760.18 311.997 768.057 302.858C767.254 298.72 766.658 294.076 766.32 289.098L766.295 288.713C761.825 301.076 749.057 310 734 310C715.222 310 700 296.121 700 279C700 261.879 715.222 248 734 248C749.121 248 761.935 257.001 766.353 269.447C766.695 264.64 767.279 260.153 768.057 256.141C760.18 247.002 747.761 241 733.5 241ZM778.5 241.017C778.33 241.086 777.779 241.387 776.919 242.623C775.768 244.278 774.57 246.934 773.499 250.576C773.324 251.17 773.155 251.784 772.991 252.417C772.629 253.816 772.291 255.314 771.983 256.902L771.899 257.338C771.23 260.889 770.712 264.85 770.388 269.104L770.343 269.731L770.264 270.911C770.091 273.678 770 276.552 770 279.5C770 280.564 770.012 281.618 770.035 282.66C770.045 283.083 770.056 283.503 770.069 283.922C770.072 283.997 770.075 284.072 770.077 284.147C770.087 284.444 770.097 284.74 770.108 285.034C770.14 285.829 770.178 286.616 770.223 287.395C770.527 292.746 771.134 297.69 771.967 302.012L771.983 302.097C772.29 303.68 772.627 305.175 772.988 306.571C773.153 307.208 773.323 307.827 773.499 308.424C774.57 312.066 775.768 314.722 776.919 316.377C777.778 317.612 778.33 317.913 778.5 317.982C778.543 317.965 778.608 317.932 778.697 317.875C778.854 317.77 779.078 317.59 779.357 317.287L779.497 317.135C779.671 316.932 779.867 316.684 780.081 316.377C781.232 314.722 782.43 312.066 783.501 308.424C785.628 301.192 787 290.965 787 279.5C787 268.035 785.628 257.808 783.501 250.576C782.43 246.934 781.232 244.278 780.081 242.623C779.643 241.993 779.284 241.607 779.016 241.369L778.899 241.274C778.771 241.17 778.669 241.105 778.596 241.063C778.556 241.042 778.524 241.026 778.5 241.017ZM734 250C716.149 250 702 263.154 702 279C702 294.846 716.149 308 734 308C751.851 308 766 294.846 766 279C766 263.154 751.851 250 734 250Z" fill="#1F6FF1"/>
<path fill-rule="evenodd" clip-rule="evenodd" d="M95.5 197.893C102.024 197.893 107.332 203.019 107.496 209.403L107.5 209.708V230.385C107.5 236.808 102.294 242.035 95.8096 242.196L95.5 242.2H73.5V245.154C73.4998 246.242 72.6044 247.123 71.5 247.123H68.5C67.3956 247.123 66.5002 246.242 66.5 245.154V242.2H44.5L44.1904 242.196C37.7061 242.035 32.5001 236.808 32.5 230.385V209.708C32.5 203.183 37.8726 197.893 44.5 197.893H95.5ZM68.5 245.154H71.5V229.4H68.5V245.154ZM44.5 199.861C38.9772 199.861 34.5 204.27 34.5 209.708V230.385C34.5001 235.823 38.9772 240.23 44.5 240.23H66.5V229.4L66.5107 229.199C66.6062 228.272 67.3543 227.535 68.2959 227.441L68.5 227.431H71.5L71.7041 227.441C72.6457 227.535 73.3938 228.272 73.4893 229.199L73.5 229.4V240.23H95.5C101.023 240.23 105.5 235.823 105.5 230.385V209.708C105.5 204.27 101.023 199.861 95.5 199.861H44.5Z" fill="#1F6FF1"/>
<path fill-rule="evenodd" clip-rule="evenodd" d="M103.31 191.004C109.691 191.163 114.834 196.227 114.996 202.511L115 202.815V243.185C115 249.71 109.627 255 103 255H37C30.3726 255 25 249.71 25 243.185V202.815C25 196.392 30.2061 191.166 36.6904 191.004L37 191H103L103.31 191.004ZM37 194.938C32.5817 194.938 29 198.465 29 202.815V243.185C29 247.535 32.5817 251.062 37 251.062H103C107.418 251.062 111 247.535 111 243.185V202.815C111 198.465 107.418 194.938 103 194.938H37Z" fill="#1F6FF1"/>
<path fill-rule="evenodd" clip-rule="evenodd" d="M210.5 197.893C217.024 197.893 222.332 203.019 222.496 209.403L222.5 209.708V230.385C222.5 236.808 217.294 242.035 210.81 242.196L210.5 242.2H188.5V245.154C188.5 246.242 187.604 247.123 186.5 247.123H183.5C182.396 247.123 181.5 246.242 181.5 245.154V242.2H159.5L159.19 242.196C152.706 242.035 147.5 236.808 147.5 230.385V209.708C147.5 203.183 152.873 197.893 159.5 197.893H210.5ZM183.5 245.154H186.5V229.4H183.5V245.154ZM159.5 199.861C153.977 199.861 149.5 204.27 149.5 209.708V230.385C149.5 235.823 153.977 240.23 159.5 240.23H181.5V229.4L181.511 229.199C181.606 228.272 182.354 227.535 183.296 227.441L183.5 227.431H186.5L186.704 227.441C187.646 227.535 188.394 228.272 188.489 229.199L188.5 229.4V240.23H210.5C216.023 240.23 220.5 235.823 220.5 230.385V209.708C220.5 204.27 216.023 199.861 210.5 199.861H159.5Z" fill="#1F6FF1"/>
<path fill-rule="evenodd" clip-rule="evenodd" d="M218.31 191.004C224.691 191.163 229.834 196.227 229.996 202.511L230 202.815V243.185C230 249.71 224.627 255 218 255H152C145.373 255 140 249.71 140 243.185V202.815C140 196.392 145.206 191.166 151.69 191.004L152 191H218L218.31 191.004ZM152 194.938C147.582 194.938 144 198.465 144 202.815V243.185C144 247.535 147.582 251.062 152 251.062H218C222.418 251.062 226 247.535 226 243.185V202.815C226 198.465 222.418 194.938 218 194.938H152Z" fill="#1F6FF1"/>
<path fill-rule="evenodd" clip-rule="evenodd" d="M795 94C797.209 94 799 96.2386 799 99C799 101.761 797.209 104 795 104C792.791 104 791 101.761 791 99C791 96.2386 792.791 94 795 94ZM795 95C793.54 95 792 96.5711 792 99C792 101.429 793.54 103 795 103C796.46 103 798 101.429 798 99C798 96.5711 796.46 95 795 95Z" fill="#1F6FF1"/>
<path fill-rule="evenodd" clip-rule="evenodd" d="M807 54C809.761 54 812 56.2386 812 59V139C812 141.761 809.761 144 807 144H782C780.346 144 778.88 143.197 777.97 141.959C774.516 141.468 771.423 136.215 769.247 128.076L769.124 127.605C760.421 136.431 747.689 142 733.5 142C707.471 142 686.332 123.268 686.004 100.049C686.001 99.8662 686 99.6832 686 99.5C686 99.3168 686.001 99.1338 686.004 98.9512C686.332 75.732 707.471 57 733.5 57C747.688 57 760.42 62.5672 769.123 71.3916C771.174 63.4896 774.077 58.2019 777.342 57.1816C778.069 55.3195 779.88 54 782 54H807ZM782 58C781.789 58 781.592 58.0649 781.431 58.1768C786.92 62.6623 791 79.4608 791 99.5C791 118.469 787.343 134.533 782.297 140H807C807.552 140 808 139.552 808 139V59C808 58.4477 807.552 58 807 58H782ZM733.5 61C709.046 61 690 78.6438 690 99.5C690 120.356 709.046 138 733.5 138C747.761 138 760.18 131.997 768.057 122.858C767.254 118.72 766.658 114.076 766.32 109.098L766.295 108.713C761.825 121.076 749.057 130 734 130C715.222 130 700 116.121 700 99C700 81.8792 715.222 68 734 68C749.121 68 761.935 77.0014 766.353 89.4473C766.695 84.6405 767.279 80.1532 768.057 76.1406C760.18 67.0019 747.761 61 733.5 61ZM778.5 61.0166C778.33 61.0857 777.779 61.3867 776.919 62.623C775.768 64.2781 774.57 66.9345 773.499 70.5762C773.324 71.1697 773.155 71.7841 772.991 72.417C772.629 73.8158 772.291 75.3143 771.983 76.9023L771.899 77.3379C771.23 80.8889 770.712 84.8496 770.388 89.1035L770.343 89.7314L770.264 90.9111C770.091 93.6783 770 96.5517 770 99.5C770 100.564 770.012 101.618 770.035 102.66C770.045 103.083 770.056 103.503 770.069 103.922C770.072 103.997 770.075 104.072 770.077 104.147C770.087 104.444 770.097 104.74 770.108 105.034C770.14 105.829 770.178 106.616 770.223 107.395C770.527 112.746 771.134 117.69 771.967 122.012L771.983 122.097C772.29 123.68 772.627 125.175 772.988 126.571C773.153 127.208 773.323 127.827 773.499 128.424C774.57 132.066 775.768 134.722 776.919 136.377C777.778 137.612 778.33 137.913 778.5 137.982C778.543 137.965 778.608 137.932 778.697 137.875C778.854 137.77 779.078 137.59 779.357 137.287L779.497 137.135C779.671 136.932 779.867 136.684 780.081 136.377C781.232 134.722 782.43 132.066 783.501 128.424C785.628 121.192 787 110.965 787 99.5C787 88.0353 785.628 77.8077 783.501 70.5762C782.43 66.9345 781.232 64.2781 780.081 62.623C779.643 61.9929 779.284 61.6065 779.016 61.3691L778.899 61.2744C778.771 61.1697 778.669 61.1052 778.596 61.0635C778.556 61.042 778.524 61.0265 778.5 61.0166ZM734 70C716.149 70 702 83.1536 702 99C702 114.846 716.149 128 734 128C751.851 128 766 114.846 766 99C766 83.1536 751.851 70 734 70Z" fill="#1F6FF1"/>
<path fill-rule="evenodd" clip-rule="evenodd" d="M67.0166 9.00684C77.6519 9.27649 86.2235 17.8481 86.4932 28.4834L86.5 29V34C86.5 45.0457 77.5457 54 66.5 54H36.5C25.4543 54 16.5 45.0457 16.5 34V33H10C8.89543 33 8 32.1046 8 31C8 29.8954 8.89543 29 10 29H16.5C16.5 18.127 25.1765 9.28085 35.9834 9.00684L36.5 9H66.5L67.0166 9.00684ZM20.5 34C20.5 42.8366 27.6634 50 36.5 50H50.1436L50.1279 49.9717C47.1476 44.6847 45.5436 38.8619 45.3086 33H20.5V34ZM51.2871 13C48.3843 17.965 46.7412 23.4471 46.3633 29H49.1318C50.1096 21.6613 56.3938 16 64 16C72.2843 16 79 22.7157 79 31C79 39.2843 72.2843 46 64 46C56.3938 46 50.1096 40.3387 49.1318 33H46.3096C46.544 38.6925 48.1047 44.3461 50.999 49.4805L51.291 50H66.5C75.3366 50 82.5 42.8366 82.5 34V29C82.5 20.1634 75.3366 13 66.5 13H51.2871ZM51.1523 33C52.1143 39.2302 57.5004 44 64 44C65.2215 44 66.4036 43.8316 67.5244 43.5166C67.5109 43.5086 67.4987 43.4989 67.4834 43.4912C67.2373 43.3667 67.1385 43.0666 67.2627 42.8203C67.387 42.5741 67.6872 42.4748 67.9336 42.5986C68.0317 42.6482 68.1099 42.7005 68.1494 42.7256C68.1522 42.7274 68.1548 42.7299 68.1572 42.7314C68.2067 42.7338 68.2494 42.7309 68.2842 42.7236L68.2861 42.7178C68.3097 42.6282 68.3323 42.5072 68.3447 42.3691C68.3703 42.0846 68.3479 41.7808 68.248 41.543C68.1881 41.4005 68.0924 41.2631 67.9453 41.0889C67.8712 41.0011 67.7906 40.9113 67.6973 40.8066C67.6059 40.7041 67.5051 40.5905 67.4014 40.4648C66.2803 39.1066 65.4521 37.2073 65.249 36.4697C65.2252 36.3831 65.2283 36.296 65.249 36.2148C65.064 36.2769 64.8748 36.3298 64.6816 36.3721C64.6835 36.3753 64.6867 36.3776 64.6885 36.3809C64.7363 36.4687 64.8613 36.6395 65.0361 36.8701C65.196 37.0809 65.3869 37.3288 65.5205 37.5254C65.7985 37.9346 66.0172 38.5052 66.2363 39.1045C66.3713 39.4736 66.2837 39.8282 66.1748 40.0967C66.0876 40.3114 65.9589 40.5326 65.8477 40.7227C65.8587 41.1869 65.9025 41.4775 65.959 41.6738C66.0164 41.8734 66.0898 41.9911 66.1846 42.1133L66.1963 42.1289C66.2457 42.1977 66.2403 42.1942 66.2607 42.2158C66.2772 42.2332 66.3197 42.2738 66.4258 42.3418C66.658 42.4908 66.7249 42.7999 66.5762 43.0322C66.4271 43.2647 66.1182 43.3326 65.8857 43.1836C65.8296 43.1476 65.7801 43.1114 65.7344 43.0771C65.7319 43.1151 65.7265 43.1534 65.7148 43.1914C65.6337 43.4554 65.3538 43.6036 65.0898 43.5225C64.8215 43.44 64.6607 43.3987 64.5166 43.3262C64.3705 43.2525 64.2418 43.153 64.1455 43.0703L64.1191 43.0479L64.0957 43.0215C63.9097 42.8103 63.7854 42.5649 63.6826 42.3389C63.5693 42.0894 63.4911 41.8873 63.3633 41.627C63.2583 41.4134 63.1247 41.2543 62.9648 41.0625C62.8201 40.8888 62.6116 40.6436 62.5195 40.3203C62.5088 40.2826 62.497 40.2392 62.4844 40.1914C62.4175 40.6126 62.2329 40.9643 62.1123 41.2324C62.1558 41.5857 62.3006 41.8416 62.5225 42.1826C62.5418 42.1954 62.5738 42.2136 62.6367 42.2451C62.8836 42.3687 62.9838 42.6691 62.8604 42.916C62.7369 43.1629 62.4364 43.263 62.1895 43.1396C62.1005 43.0952 61.9346 43.0159 61.7861 42.8662L61.751 42.8311L61.7236 42.7891C61.4496 42.3711 61.1448 41.8984 61.1025 41.1777L61.0957 41.0654L61.1387 40.9609C61.4131 40.2826 61.6026 40.069 61.4736 39.6279C61.2926 39.0091 60.8517 37.6654 60.54 36.6064C60.5498 37.0786 60.5484 37.6839 60.499 38.2061C60.4674 38.5404 60.3492 38.8169 60.2207 39.0537C60.1574 39.1704 60.0876 39.2845 60.0234 39.3887C59.9573 39.4959 59.8961 39.5956 59.8369 39.7002C59.7489 39.8559 59.7343 40.0744 59.8047 40.3672C59.874 40.6555 60.0061 40.9375 60.1201 41.1768C60.1395 41.2152 60.1587 41.2483 60.1943 41.3096C60.2273 41.3661 60.2726 41.4442 60.3105 41.5381C60.3473 41.6289 60.3723 41.7238 60.3936 41.8008C60.4167 41.8843 60.4441 41.9811 60.4873 42.1113C60.574 42.3732 60.4317 42.6561 60.1699 42.7432C59.9078 42.8301 59.625 42.6879 59.5381 42.4258C59.4867 42.2708 59.4538 42.1545 59.4297 42.0674C59.4039 41.974 59.3937 41.94 59.3828 41.9131C59.3731 41.8891 59.3597 41.8616 59.3311 41.8125C59.3063 41.77 59.2617 41.6967 59.2227 41.6182L59.2188 41.6113C59.109 41.3811 58.9298 41.0077 58.832 40.6016C58.7351 40.1986 58.6982 39.6815 58.9658 39.208C59.0363 39.0834 59.1095 38.9661 59.1729 38.8633C59.2381 38.7575 59.2935 38.6661 59.3418 38.5771C59.4367 38.4023 59.4889 38.2604 59.5029 38.1123C59.5762 37.3377 59.5399 36.3328 59.5176 36.0137C59.3666 36.5539 59.1313 37.1264 58.7842 37.7705C58.4727 38.3485 58.0634 38.6642 57.75 38.8496L57.6807 38.8906L57.6016 38.9082C57.0512 39.0273 56.51 39.0037 56.2061 38.9648C56.0931 38.9553 55.8636 38.953 55.5635 38.8643C55.4829 38.8404 55.4137 38.797 55.3574 38.7422C55.3574 38.7868 55.3574 38.8324 55.3574 38.8789C55.3574 39.155 55.1335 39.3789 54.8574 39.3789C54.5813 39.3789 54.3574 39.155 54.3574 38.8789C54.3574 38.6202 54.357 38.3463 54.3701 38.1279C54.3809 37.9486 54.4026 37.7411 54.4883 37.5488L54.5283 37.4668L54.5537 37.4229L54.5869 37.3848C54.6616 37.2989 54.7572 37.2386 54.8076 37.208C54.8713 37.1694 54.9464 37.1293 55.0205 37.0908C55.1801 37.008 55.3482 36.9262 55.5527 36.8164C55.9534 36.6014 56.3926 36.3315 56.7295 35.9941C56.8658 35.8575 57.0522 35.5706 57.2344 35.2158C57.4112 34.8714 57.5564 34.5177 57.627 34.2852C57.6457 34.2235 57.6761 34.1687 57.7139 34.1211C57.6585 34.152 57.6027 34.1823 57.5469 34.2129C57.0913 34.6618 56.5965 35.1361 56.1523 35.5576C55.5081 36.169 54.9825 36.6604 54.8115 36.8311C54.8085 36.835 54.8001 36.8472 54.7812 36.877C54.7688 36.8967 54.7459 36.9341 54.7188 36.9707C54.6904 37.0089 54.6492 37.0587 54.5928 37.1064C54.4129 37.2584 54.1236 37.3568 53.8301 37.2344C53.6986 37.1794 53.6032 37.0904 53.5625 37.0527C53.5037 36.9983 53.4873 36.9806 53.4561 36.9561C53.4249 36.9316 53.1884 36.7864 52.9512 36.5508C52.7554 36.3562 52.7548 36.0396 52.9492 35.8438C53.1438 35.648 53.4603 35.6464 53.6562 35.8408C53.8472 36.0305 53.8905 36.0281 54.0684 36.167C54.0806 36.1531 54.0917 36.1368 54.1055 36.123C54.2369 35.9919 54.5576 35.6909 54.96 35.3105C54.8997 35.3213 54.8402 35.3301 54.7822 35.335C54.6603 35.3451 54.5081 35.3435 54.3594 35.2939C54.0084 35.1769 53.7636 34.948 53.6064 34.8037C53.4525 34.6624 53.3827 34.6086 53.333 34.585C53.2761 34.5814 53.2155 34.5809 53.1602 34.5869C53.1398 34.5891 53.1307 34.5897 53.1016 34.6006C53.0587 34.6165 52.9816 34.6512 52.834 34.7305C52.5909 34.8607 52.2879 34.7692 52.1572 34.5264C52.0267 34.2831 52.1181 33.9793 52.3613 33.8486C52.6875 33.6736 52.8486 33.6149 53.0508 33.5928C53.1934 33.5772 53.3476 33.5765 53.4912 33.5928L53.5293 33.5977L53.5674 33.6074C53.9013 33.6991 54.145 33.9414 54.2822 34.0674C54.4437 34.2156 54.5445 34.2972 54.6611 34.3398C54.6686 34.3399 54.6811 34.3394 54.6992 34.3379C54.7516 34.3335 54.8271 34.3202 54.9277 34.2939C55.1295 34.2412 55.3895 34.1472 55.6895 34.0186C56.0783 33.8518 56.5137 33.6341 56.9482 33.3994C57.0868 33.2623 57.2205 33.1283 57.3467 33H51.1523ZM66.7188 35.459C66.4868 35.6267 66.2415 35.7768 65.9844 35.9072C66.0928 35.9706 66.1778 36.0735 66.2139 36.2041C66.3836 36.8208 67.151 38.59 68.1729 39.8281C68.2638 39.9384 68.3544 40.0406 68.4443 40.1416C68.5322 40.2401 68.624 40.3428 68.709 40.4434C68.8803 40.6463 69.0519 40.8746 69.1699 41.1553C69.3562 41.5987 69.3745 42.0841 69.3408 42.459C69.3268 42.6145 69.3006 42.7594 69.2715 42.8867C69.9402 42.5897 70.579 42.2378 71.1826 41.8369C71.1508 41.7219 71.1584 41.5955 71.2158 41.4805C71.2386 41.435 71.2458 41.4201 71.2529 41.3965C71.2605 41.3713 71.2709 41.3214 71.2803 41.2256C71.2883 40.9451 71.2345 40.4852 71.1182 39.9824C71.0212 39.5636 70.8857 39.1493 70.7354 38.8154C70.7238 38.8154 70.7114 38.8133 70.6982 38.8135C70.6109 38.8145 70.5095 38.8198 70.3877 38.8252C70.2693 38.8304 70.1354 38.8359 69.9961 38.8379C69.7199 38.8417 69.3982 38.8318 69.0859 38.7656C68.7736 38.6994 68.4381 38.57 68.165 38.3135C67.8334 38.0017 67.5066 37.4421 67.2607 36.9395C67.0111 36.4288 66.7956 35.8732 66.7246 35.5176C66.7207 35.4982 66.7203 35.4782 66.7188 35.459ZM63.5 36.5C63.4231 36.5 63.3466 36.4982 63.2705 36.4951C63.2808 36.8575 63.3126 37.3295 63.3721 37.7676C63.4055 38.0136 63.4477 38.2396 63.4941 38.4248C63.6636 38.4453 63.8357 38.5227 63.9658 38.6816C64.133 38.8864 64.1606 39.1445 64.1602 39.2939C64.1599 39.3794 64.1492 39.4867 64.1201 39.5859C64.1083 39.626 64.0774 39.7244 64.001 39.8154C63.9596 39.8646 63.8802 39.9419 63.7539 39.9814C63.6532 40.0129 63.5534 40.0099 63.4648 39.9863C63.47 40.0053 63.4756 40.0262 63.4814 40.0469C63.5068 40.1356 63.5691 40.2268 63.7324 40.4229C63.881 40.6012 64.0946 40.8485 64.2607 41.1865C64.3924 41.4546 64.5095 41.7414 64.5928 41.9248C64.6787 42.1139 64.7495 42.2416 64.8252 42.335C64.8814 42.3811 64.9301 42.414 64.9668 42.4326C65.0051 42.4519 65.0304 42.4596 65.2549 42.5283C65.1566 42.3736 65.0671 42.1902 64.998 41.9502C64.9015 41.6144 64.8503 41.1877 64.8447 40.5996L64.8428 40.4629L64.9111 40.3438C65.0593 40.0876 65.1752 39.8999 65.248 39.7207C65.3184 39.5472 65.3072 39.4764 65.2969 39.4482C65.0684 38.8233 64.8892 38.3762 64.6934 38.0879C64.5788 37.9192 64.4113 37.7016 64.2393 37.4746C64.0824 37.2677 63.9017 37.0277 63.8096 36.8584C63.7465 36.7424 63.7349 36.6127 63.7656 36.4941C63.6776 36.4983 63.589 36.5 63.5 36.5ZM71.3535 28.8564C71.03 29.1839 70.1512 30.0732 69.5947 30.5674C69.5499 30.6072 69.499 30.6363 69.4463 30.6572C69.4524 30.6739 69.4585 30.6905 69.4629 30.708C69.6204 30.5934 69.8373 30.5762 70.0146 30.6826C70.3056 30.8572 71.4179 31.3095 72.4678 31.5283C73.03 31.6454 73.3626 31.5793 73.5869 31.4873C73.7061 31.4384 73.8118 31.3753 73.9209 31.3008C74.0079 31.2414 74.1652 31.125 74.2812 31.0527C74.6231 30.8401 75.1047 30.8236 75.5117 30.874L75.5596 30.8799L75.6055 30.8945C75.7688 30.9477 75.9295 31.0509 76.0361 31.2373C76.1231 31.3896 76.148 31.5572 76.1611 31.6787C76.1887 31.9349 76.1885 32.318 76.1885 32.665C76.1885 32.9411 75.9646 33.165 75.6885 33.165C75.4123 33.165 75.1885 32.9412 75.1885 32.665C75.1885 32.3314 75.1856 32.0432 75.1709 31.8506C74.9625 31.8469 74.8424 31.8813 74.8096 31.9014C74.7079 31.9647 74.6448 32.0175 74.4844 32.127C74.3462 32.2213 74.1763 32.3271 73.9668 32.4131C73.5337 32.5907 72.9946 32.6591 72.2637 32.5068C71.1844 32.2819 70.013 31.8258 69.5547 31.5703C69.6325 32.2844 69.7333 33.0095 69.8438 33.6377C69.9195 34.0687 69.9985 34.4481 70.0762 34.7432C70.1264 34.9338 70.1711 35.0661 70.2041 35.1504C70.2978 35.1169 70.4302 35.0497 70.5986 34.9434C70.7989 34.8168 71.0102 34.6617 71.2197 34.5068C71.4179 34.3603 71.6312 34.2014 71.8037 34.0977C72.2754 33.8141 72.7046 33.6335 73.1455 33.5039C73.3324 33.4491 73.5012 33.4863 73.6152 33.5293C73.7282 33.572 73.8271 33.6351 73.9033 33.6895C74.0435 33.7895 74.2189 33.946 74.3223 34.0312L74.4346 34.124L74.4795 34.2627C74.6152 34.681 74.6074 35.2674 74.5479 35.8037C74.4861 36.3595 74.3578 36.9499 74.1963 37.416L74.1953 37.4209C74.1736 37.4816 74.1348 37.6003 74.0889 37.7002C74.039 37.8086 73.9582 37.9497 73.8174 38.0654C73.6041 38.2406 73.2886 38.2093 73.1133 37.9961C72.9601 37.8095 72.9642 37.545 73.1104 37.3643L73.166 37.3086C73.166 37.3086 73.1702 37.3027 73.1797 37.2822C73.1882 37.2637 73.1985 37.2394 73.2109 37.2051C73.2171 37.1881 73.2234 37.1697 73.2305 37.1494C73.2368 37.1314 73.2446 37.1106 73.252 37.0898C73.3856 36.7041 73.4989 36.1866 73.5537 35.6934C73.6008 35.2689 73.5965 34.9182 73.5566 34.6943C73.5294 34.671 73.5032 34.6481 73.4805 34.6289C73.4173 34.5754 73.3666 34.5339 73.3232 34.5029C73.3212 34.5015 73.3184 34.5003 73.3164 34.499C72.9942 34.6021 72.6753 34.7402 72.3193 34.9541C72.1978 35.0271 72.0313 35.1512 71.8145 35.3115C71.6089 35.4634 71.3681 35.6398 71.1318 35.7891C71.1069 35.8048 71.0806 35.8202 71.0547 35.8359C71.1461 35.852 71.2355 35.8652 71.3184 35.8828C71.5961 35.942 71.9398 36.0345 72.1846 36.2383C72.5823 36.5698 72.7501 36.9806 72.832 37.376C72.8717 37.5677 72.8919 37.7629 72.9082 37.9424C72.9253 38.1299 72.9376 38.2952 72.959 38.4688L72.9619 38.4912L72.9629 38.5127C72.976 38.884 72.9784 39.544 72.9326 39.8613C72.9212 39.9405 72.8996 40.0557 72.8438 40.1611C72.814 40.2171 72.7568 40.3037 72.6543 40.3711C72.5379 40.4476 72.4017 40.4734 72.2734 40.4521C72.2546 40.449 72.2367 40.4451 72.2197 40.4404C72.2499 40.6476 72.2693 40.8457 72.2773 41.0244C75.1618 38.64 77 35.0347 77 31C77 30.2902 76.9415 29.594 76.832 28.915C76.7227 29.0535 76.62 29.1227 76.6562 29.0859C76.4961 29.278 76.2922 29.4225 76.1084 29.5322C75.9117 29.6496 75.6756 29.7649 75.4971 29.8594L75.4248 29.8975L75.3447 29.9111C74.8669 29.9895 74.2515 30.0011 73.7061 29.958C73.4315 29.9363 73.1616 29.8994 72.9268 29.8457C72.7072 29.7955 72.4609 29.7183 72.2764 29.5859C72.0275 29.4073 71.7877 29.182 71.6348 29.0537C71.5134 28.9518 71.4244 28.892 71.3535 28.8564ZM61.4346 36.0977C61.7373 37.1541 62.2177 38.6095 62.4336 39.3477C62.4351 39.3527 62.4351 39.3582 62.4365 39.3633C62.4416 39.3417 62.4457 39.3194 62.4521 39.2979C62.4858 39.1862 62.5346 39.061 62.6025 38.9404C62.5788 38.8702 62.5577 38.8003 62.54 38.7344C62.4731 38.4844 62.4204 38.1937 62.3809 37.9023C62.3074 37.3613 62.2715 36.7765 62.2666 36.3604C61.98 36.2947 61.7022 36.2062 61.4346 36.0977ZM67.3389 34.9365C67.5189 34.9833 67.6663 35.1277 67.7051 35.3223C67.751 35.5516 67.9221 36.0162 68.1592 36.501C68.4004 36.9942 68.6621 37.4078 68.8506 37.585C68.9458 37.6742 69.0894 37.7438 69.2939 37.7871C69.499 37.8305 69.7346 37.8414 69.9824 37.8379C70.1049 37.8362 70.2251 37.8314 70.3438 37.8262C70.459 37.8211 70.5785 37.8158 70.6855 37.8145C70.7895 37.8132 70.9076 37.8152 71.0166 37.832C71.1037 37.8455 71.2984 37.8826 71.4473 38.0391L71.4951 38.0889L71.5264 38.1494C71.7012 38.4789 71.8469 38.8747 71.9639 39.2744C71.969 39.0374 71.9703 38.764 71.9629 38.5518C71.9416 38.3697 71.9271 38.1859 71.9131 38.0322C71.8973 37.8593 71.8801 37.7114 71.8525 37.5781C71.7997 37.3231 71.7135 37.1481 71.5439 37.0068C71.5065 36.9759 71.3865 36.9192 71.1104 36.8604C70.8439 36.8036 70.5548 36.7661 70.2012 36.7051C69.8689 36.6477 69.5008 36.572 69.167 36.4453C68.8349 36.3192 68.4894 36.1251 68.25 35.7998C67.9352 35.3717 67.7067 34.9661 67.5967 34.6689C67.514 34.7612 67.4276 34.85 67.3389 34.9365ZM58.1719 33.0293C58.2318 33.0696 58.2851 33.1221 58.3242 33.1885C58.4642 33.4264 58.3853 33.7329 58.1475 33.873C58.1102 33.895 58.0719 33.9156 58.0342 33.9375C58.1047 33.9273 58.1783 33.9301 58.251 33.9521C58.5149 34.0324 58.6638 34.3112 58.584 34.5752C58.4915 34.8798 58.3202 35.2907 58.124 35.6729C57.9331 36.0446 57.6891 36.448 57.4375 36.7002C56.9949 37.1436 56.4509 37.4689 56.0254 37.6973C55.8958 37.7668 55.7664 37.8317 55.6562 37.8877C55.7184 37.8816 55.7831 37.8865 55.8467 37.9053C56.0232 37.9575 56.1209 37.9553 56.291 37.9697L56.3164 37.9717C56.5196 37.9994 56.9105 38.018 57.3047 37.9463C57.4957 37.8233 57.7216 37.6329 57.9033 37.2959C58.5091 36.1719 58.7155 35.3571 58.7363 34.5586C58.7411 34.3787 58.8405 34.2248 58.9854 34.1406C58.7398 33.7883 58.5355 33.4058 58.377 33H58.1504C58.1578 33.0097 58.1653 33.0192 58.1719 33.0293ZM59.71 34.9844C59.6904 35.1927 59.6584 35.4015 59.6143 35.6143C59.6963 35.505 59.8211 35.4283 59.9678 35.415C60.093 35.4039 60.2103 35.4421 60.3047 35.5107C60.3071 35.5009 60.3095 35.4911 60.3125 35.4814C60.0999 35.33 59.8986 35.1639 59.71 34.9844ZM63.5 26.5C61.7331 26.5 60.2041 27.5183 59.4678 29H63C64.1046 29 65 29.8954 65 31C65 32.1046 64.1046 33 63 33H59.4678C60.2041 34.4817 61.7331 35.5 63.5 35.5C65.9853 35.5 68 33.4853 68 31C68 28.5147 65.9853 26.5 63.5 26.5ZM68.7002 32.79C68.564 33.1859 68.3842 33.561 68.166 33.9102C68.3329 33.9573 68.4714 34.0875 68.5166 34.2676C68.5443 34.3784 68.7045 34.7308 69.0547 35.207C69.0925 35.2585 69.1459 35.3088 69.2168 35.3574C69.1779 35.2416 69.1416 35.1193 69.1094 34.9971C69.022 34.6654 68.9378 34.2573 68.8594 33.8115C68.8029 33.49 68.7499 33.1451 68.7002 32.79ZM76.2529 27.3945L76.252 27.3955C75.8929 27.7536 75.4158 28.2399 74.7578 28.418C74.4759 28.4942 74.1565 28.5562 73.8447 28.5605C73.5387 28.5647 73.1864 28.5137 72.8887 28.3125C72.7771 28.2371 72.5941 28.0868 72.4639 27.9883C72.3078 27.8703 72.1347 27.7517 71.9443 27.6543C71.5697 27.4626 71.1441 27.362 70.6543 27.5264C70.6748 27.5195 70.6236 27.5404 70.4814 27.6582C70.3601 27.7587 70.214 27.8947 70.0586 28.0488C69.7475 28.3574 69.4232 28.7152 69.2256 28.957C69.0864 29.1269 68.8589 29.1803 68.6641 29.1074C68.7546 29.3543 68.8291 29.609 68.8838 29.8711C68.8987 29.8537 68.9131 29.835 68.9307 29.8193C69.546 29.2729 70.5916 28.2047 70.7549 28.041C70.9933 27.8022 71.3026 27.8006 71.4971 27.8477C71.8235 27.9268 72.0813 28.1236 72.2773 28.2881C72.5004 28.4753 72.6489 28.6224 72.8594 28.7734C72.8594 28.7734 72.8657 28.7781 72.8799 28.7852C72.894 28.7922 72.9136 28.8009 72.9395 28.8105C72.9926 28.8305 73.0635 28.8512 73.1504 28.8711C73.3245 28.9108 73.5428 28.9419 73.7842 28.9609C74.2421 28.9971 74.7393 28.9856 75.1123 28.9326C75.2962 28.8368 75.4491 28.7603 75.5957 28.6729C75.7191 28.5992 75.8026 28.5374 75.8564 28.4844L75.9004 28.4336L75.9209 28.4072L75.9434 28.3848C75.9663 28.3615 75.9883 28.3412 76.0049 28.3271C76.0206 28.3138 76.0371 28.301 76.0459 28.2939C76.051 28.2899 76.0554 28.2868 76.0586 28.2842C76.1333 28.0362 76.384 27.888 76.6367 27.9404C76.5787 27.7001 76.5145 27.4624 76.4434 27.2275C76.3585 27.2999 76.3185 27.3287 76.2529 27.3945ZM36.5 13C27.6634 13 20.5 20.1634 20.5 29H45.3604C45.7273 23.46 47.3197 17.9864 50.1328 13H36.5ZM62.3535 18.1035C56.6087 18.8296 52.0318 23.3044 51.1523 29H52.4668C52.6185 28.9013 52.818 28.8869 52.9863 28.9824C52.9983 28.9892 53.0091 28.9948 53.0186 29H53.0635C53.1609 28.947 53.3115 28.8359 53.5146 28.6162C53.8506 28.237 54.2531 27.642 55.2822 27.4639C55.9134 27.3548 56.5976 27.44 57.1533 27.5752C57.6996 27.7081 58.2007 27.9085 58.46 28.0869C58.5663 28.1602 58.6326 28.2682 58.6602 28.3848C58.7301 28.2557 58.8061 28.1304 58.8857 28.0078C58.8096 28.0084 58.732 27.9942 58.6592 27.958C58.587 27.922 58.4919 27.8568 58.4287 27.8145C58.3479 27.7603 58.2495 27.6951 58.1309 27.6221C57.8942 27.4763 57.5747 27.2998 57.1738 27.1416C56.3019 26.7976 55.67 26.648 55.1963 26.5361C54.9651 26.4815 54.7406 26.4293 54.5518 26.3633C54.357 26.2952 54.156 26.1983 53.9873 26.0303L53.8896 25.9336L53.8555 25.7998C53.7965 25.569 53.8072 25.3484 53.8477 25.1514L53.8965 24.9619L53.9014 24.9492L53.9053 24.9365C53.9515 24.8127 54.011 24.6948 54.0566 24.6035C54.1801 24.3567 54.4807 24.2566 54.7275 24.3799C54.9745 24.5034 55.0746 24.8038 54.9512 25.0508C54.9032 25.1468 54.8707 25.2148 54.8467 25.2773C54.8339 25.3205 54.8253 25.3592 54.8203 25.3936C54.8384 25.401 54.8585 25.4108 54.8818 25.4189C55.0107 25.4639 55.1772 25.5038 55.4258 25.5625C55.9125 25.6775 56.5999 25.8401 57.54 26.2109C58.0089 26.3959 58.382 26.6023 58.6553 26.7705C58.7913 26.8543 58.903 26.9282 58.9854 26.9834C59.085 27.0502 59.1065 27.0644 59.1045 27.0635C59.2371 27.1295 59.3258 27.2466 59.3623 27.3789C59.4332 27.2979 59.5065 27.2192 59.582 27.1426C59.4923 27.036 59.3615 26.888 59.2119 26.7256C59.1157 26.7491 59.0113 26.7438 58.9121 26.7051C58.6346 26.5965 58.2688 26.4417 57.9355 26.2666C57.769 26.1791 57.6015 26.0817 57.4551 25.9785C57.3147 25.8796 57.1637 25.7552 57.0547 25.6055C56.8249 25.29 56.7259 24.8422 56.6602 24.4805C56.5905 24.0975 56.5503 23.7743 56.4834 23.4629C56.1736 23.0029 55.9457 22.7107 55.8164 22.5488C55.7932 22.5219 55.7767 22.5034 55.75 22.4805C55.718 22.453 55.6646 22.4127 55.5674 22.3477C55.3383 22.1942 55.2767 21.8837 55.4297 21.6543C55.5832 21.4248 55.8945 21.3632 56.124 21.5166C56.366 21.6785 56.4733 21.7775 56.5801 21.9023L56.585 21.9082L56.5908 21.915C56.7377 22.0988 57.0059 22.4408 57.3691 22.9863L57.4189 23.0615L57.4395 23.1494C57.5241 23.5105 57.5853 23.9762 57.6445 24.3018C57.7139 24.6833 57.7859 24.9103 57.8633 25.0166C57.8681 25.0232 57.8772 25.0324 57.8896 25.0449C57.7885 24.7887 57.7276 24.5354 57.7021 24.3076L57.6865 24.167L57.7461 24.04C58.0397 23.4141 58.4728 22.7628 58.6836 22.4639C58.7711 22.3281 58.9194 22.0666 59.1426 21.8135C59.2131 21.7336 59.304 21.6826 59.4004 21.6592C59.3428 21.53 59.2926 21.4307 59.252 21.3525L59.2461 21.3418L59.2412 21.3301C59.1616 21.1558 59.129 21.0249 59.1035 20.9229C59.0368 20.6551 59.2 20.3843 59.4678 20.3174C59.7355 20.2507 60.0073 20.4129 60.0742 20.6807C60.096 20.7679 60.1095 20.8238 60.1465 20.9062C60.3174 21.2351 60.6162 21.8269 60.8232 23.0361L60.8311 23.0801L60.8301 23.124C60.8185 24.81 60.7966 25.9559 60.7949 26.2119C60.8634 26.1731 60.9326 26.1355 61.0029 26.0996C60.8811 25.9791 60.8241 25.8001 60.8691 25.6221C61.0917 24.7431 61.3192 23.8289 61.4805 23.0615C61.5611 22.6777 61.6237 22.3378 61.6611 22.0615C61.7005 21.7713 61.7058 21.5967 61.6953 21.5195C61.6597 21.2586 61.5362 20.9819 61.3662 20.6914C61.2826 20.5486 61.193 20.4108 61.1035 20.2744C61.0175 20.1434 60.925 20.0041 60.8516 19.877C60.8474 19.8697 60.8417 19.861 60.8037 19.8154C60.7771 19.7835 60.7002 19.6955 60.6494 19.5791L60.6221 19.5059C60.5719 19.3498 60.5539 19.1344 60.6602 18.9346L60.7246 18.8359L60.8047 18.75C60.8879 18.6759 60.9761 18.6353 61.0342 18.6123C61.1117 18.5817 61.1933 18.5618 61.2334 18.5518C61.501 18.4853 61.7729 18.6484 61.8398 18.916C61.8823 19.0868 61.8297 19.2583 61.7178 19.3779C61.7735 19.4743 61.8473 19.5852 61.9395 19.7256C62.0286 19.8614 62.1314 20.0189 62.2295 20.1865C62.4229 20.5171 62.6234 20.9288 62.6855 21.3838C62.716 21.6069 62.6925 21.9002 62.6523 22.1963C62.6102 22.5066 62.5419 22.8729 62.459 23.2676C62.3006 24.021 62.0818 24.9044 61.8691 25.7461C62.2893 25.6158 62.7309 25.5353 63.1875 25.5098C63.0703 25.3174 63.0935 25.0639 63.2598 24.8975C63.2251 24.9322 63.228 24.9425 63.2744 24.8564C63.3111 24.7885 63.362 24.6861 63.4268 24.542C63.5559 24.2546 63.7331 23.8223 63.9658 23.2119C64.2621 22.4347 64.4655 21.7512 64.5967 21.207C64.5519 21.1932 64.5078 21.1747 64.4668 21.1475C64.213 20.9787 63.7083 20.5209 63.2959 20.1318L63.2686 20.1064L63.2461 20.0771C63.0741 19.8589 62.9414 19.5861 62.833 19.3379C62.7772 19.2102 62.7229 19.0779 62.6719 18.9531C62.62 18.8263 62.5706 18.7061 62.5205 18.5918C62.4648 18.4664 62.4093 18.3239 62.3535 18.1035ZM56.917 28.5469C56.4305 28.4285 55.8958 28.3725 55.4521 28.4492C54.9719 28.5324 54.7564 28.7195 54.5068 29H58.377C58.3842 28.9815 58.391 28.9628 58.3984 28.9443C58.2411 29.0225 58.0485 29.0174 57.8936 28.9111C57.7793 28.8325 57.4128 28.6675 56.917 28.5469ZM67.9883 18.624C68.0927 18.6948 68.1712 18.8041 68.1982 18.9375C68.2383 19.1352 68.2645 19.1707 68.3369 19.3887L68.3398 19.3965L68.3418 19.4033C68.4894 19.9001 68.563 20.5732 68.5371 21.1904L68.5342 21.2559L68.5146 21.3184C68.3993 21.6876 68.1469 21.982 68.0117 22.1611C67.8556 22.3682 67.7838 22.4986 67.7705 22.6504C67.7213 23.2137 67.6135 23.974 67.5 24.7178C67.6373 24.5685 67.8105 24.4734 67.959 24.4102C68.1175 24.3427 68.2911 24.2928 68.4521 24.252C68.813 24.1605 69.0789 24.1174 69.3262 24.0352C69.3906 24.0137 69.4824 23.9555 69.5947 23.8291C69.705 23.705 69.8137 23.54 69.916 23.3486C70.1213 22.9646 70.2707 22.5373 70.3662 22.2627C70.4484 22.0268 70.6229 21.8577 70.7822 21.7568C70.9861 21.6278 71.2086 21.5991 71.3896 21.5859C71.5765 21.5724 71.807 21.5732 72.0166 21.5732C72.2925 21.5734 72.5164 21.7974 72.5166 22.0732C72.5163 22.349 72.2924 22.5731 72.0166 22.5732C71.7943 22.5732 71.6046 22.5726 71.4619 22.583C71.3917 22.5881 71.3517 22.5949 71.3281 22.6006C71.3079 22.6054 71.3088 22.608 71.3174 22.6025C71.313 22.6053 71.3082 22.6084 71.3047 22.6113L71.3037 22.6123C71.2082 22.8869 71.0385 23.3702 70.7979 23.8203C70.6741 24.0517 70.5232 24.29 70.3428 24.4932C70.1643 24.6941 69.9329 24.8877 69.6426 24.9844C69.3573 25.0793 68.9477 25.1575 68.6982 25.2207C68.5544 25.2572 68.4386 25.2926 68.3506 25.3301C68.267 25.3657 68.2392 25.3911 68.2363 25.3936C68.1515 25.4901 68.0494 25.6651 67.9561 25.8789C67.8651 26.0874 67.8009 26.29 67.7744 26.4141C67.7167 26.6841 67.4507 26.8564 67.1807 26.7988C67.1764 26.7979 67.1722 26.7969 67.168 26.7959C67.1627 26.8287 67.1581 26.8604 67.1533 26.8906C67.2835 27.0064 67.4077 27.1284 67.5264 27.2559C67.5573 27.1718 67.6008 27.1017 67.625 27.0645C67.6656 27.002 67.7155 26.9341 67.7695 26.8662C67.8784 26.7296 68.0218 26.569 68.1826 26.4033C68.5008 26.0756 68.9194 25.6976 69.3213 25.4414C69.6644 25.2228 70.0069 25.106 70.3096 25.0254C70.4578 24.9859 70.606 24.9532 70.7314 24.9238C70.862 24.8932 70.9733 24.8651 71.0742 24.833C71.1619 24.8051 71.2892 24.713 71.4785 24.5146C71.5686 24.4202 71.6527 24.3243 71.751 24.2158C71.8436 24.1136 71.9479 24.0013 72.0566 23.9033L72.1377 23.8301L72.2432 23.7969C72.3738 23.7562 72.4981 23.721 72.6064 23.6904C72.7177 23.659 72.8091 23.6337 72.8877 23.6084C72.9546 23.5869 72.9993 23.5683 73.0293 23.5547C73.0769 23.4708 73.1671 23.3227 73.2842 23.2041C73.4782 23.0078 73.7958 23.0064 73.9922 23.2002C74.1883 23.3943 74.19 23.7109 73.9961 23.9072C73.9723 23.9313 73.954 23.9566 73.9336 23.9902C73.9222 24.0091 73.911 24.0279 73.8955 24.0557C73.8816 24.0805 73.8615 24.1164 73.8389 24.1523L73.8252 24.1748L73.8086 24.1953C73.7123 24.3176 73.5908 24.3936 73.4961 24.4414C73.3982 24.4908 73.2916 24.529 73.1934 24.5605C73.0941 24.5924 72.9843 24.6233 72.8779 24.6533C72.8029 24.6745 72.727 24.6977 72.6494 24.7207C72.602 24.7684 72.5498 24.8231 72.4922 24.8867C72.4074 24.9803 72.3042 25.0981 72.2021 25.2051C72.0072 25.4093 71.7287 25.6744 71.3779 25.7861C71.2371 25.831 71.093 25.8663 70.96 25.8975C70.8219 25.9298 70.6967 25.9577 70.5674 25.9922C70.3145 26.0595 70.0807 26.1425 69.8584 26.2842C69.5485 26.4817 69.191 26.7993 68.8994 27.0996C68.7558 27.2476 68.6357 27.3838 68.5518 27.4893C68.5094 27.5424 68.4809 27.5831 68.4639 27.6094C68.4498 27.6311 68.4481 27.6342 68.4531 27.624C68.3865 27.7914 68.2371 27.9072 68.0654 27.9336C68.1785 28.1016 68.2817 28.2766 68.376 28.457C68.3945 28.4104 68.4187 28.3652 68.4521 28.3242C68.6738 28.0529 69.0204 27.6693 69.3535 27.3389C69.5202 27.1736 69.6906 27.0146 69.8438 26.8877C69.9761 26.7781 70.1579 26.638 70.3359 26.5781C71.1551 26.3033 71.8654 26.4906 72.3994 26.7637C72.6631 26.8986 72.8882 27.0567 73.0664 27.1914C73.2702 27.3455 73.3589 27.4239 73.4482 27.4844C73.5084 27.5249 73.6273 27.5633 73.8311 27.5605C74.029 27.5578 74.2601 27.5163 74.4971 27.4521C74.8554 27.3551 75.1506 27.0817 75.5449 26.6885L75.8613 26.4082C75.9282 26.3489 76.0001 26.2756 76.082 26.1943C74.6559 22.612 71.6833 19.8139 67.9883 18.624ZM65.3037 18.1211C65.4923 18.5263 65.7399 19.1402 65.7842 19.9668C65.7947 20.1646 65.7663 20.4506 65.7051 20.7988C65.7835 20.8457 65.8512 20.9133 65.8955 21.001C65.9332 21.0756 65.9558 21.0963 66.0508 21.2051L66.1064 21.2676L66.1377 21.3457C66.4579 22.1356 66.3941 23.1484 66.3486 23.8623L66.3457 23.8945L66.3398 23.9268C66.2671 24.2964 66.1703 24.7082 66.082 25.0771C65.9921 25.4528 65.9129 25.7763 65.8682 25.9893C65.8652 26.0032 65.8585 26.0159 65.8545 26.0293C65.9879 26.0926 66.1179 26.1619 66.2451 26.2354C66.4165 25.188 66.6879 23.5524 66.7744 22.5625C66.814 22.1102 67.0424 21.786 67.2139 21.5586C67.385 21.3318 67.4836 21.2086 67.5391 21.0723C67.5521 20.5695 67.4877 20.0474 67.3828 19.6924C67.3367 19.5562 67.2732 19.4048 67.2188 19.1357C67.1642 18.8653 67.3391 18.6018 67.6094 18.5469C67.6425 18.5402 67.6755 18.5382 67.708 18.5381C66.9254 18.3056 66.1121 18.145 65.2754 18.0635L65.3037 18.1211ZM59.5244 23.0059L59.5186 23.0146L59.5117 23.0234C59.3334 23.2749 58.977 23.812 58.7168 24.332C58.7781 24.6514 58.9367 25.0171 59.2207 25.2939C59.4047 25.4732 59.6081 25.6845 59.7988 25.8877C59.8058 25.3849 59.8203 24.4103 59.8291 23.1621C59.7985 22.9877 59.7639 22.8293 59.7305 22.6846C59.6602 22.787 59.5991 22.8901 59.5244 23.0059ZM65.3438 22.2676C65.2236 22.6653 65.0779 23.1018 64.9004 23.5674C64.6641 24.1872 64.4791 24.64 64.3389 24.9521C64.2691 25.1075 64.2077 25.2338 64.1553 25.3311C64.125 25.3871 64.0828 25.4595 64.0322 25.5264C64.3337 25.5553 64.6278 25.6089 64.9131 25.6846C64.9629 25.4594 65.0345 25.1576 65.1094 24.8447C65.1952 24.4861 65.2847 24.1026 65.3525 23.7617C65.3856 23.2356 65.4049 22.7143 65.3438 22.2676ZM63.3682 18.0156C63.3909 18.0833 63.4127 18.1361 63.4355 18.1875L63.4365 18.1904C63.4926 18.3183 63.5466 18.4502 63.5977 18.5752C63.6496 18.7024 63.6989 18.8228 63.749 18.9375C63.8456 19.1585 63.9319 19.3237 64.0146 19.4355C64.2977 19.7018 64.5785 19.9559 64.7822 20.1279C64.7845 20.0839 64.7866 20.0481 64.7852 20.0205C64.7532 19.4251 64.5863 18.9706 64.4336 18.6299C64.3708 18.5717 64.3122 18.5176 64.2568 18.4697C64.0169 18.5083 63.7785 18.3684 63.7021 18.1299L63.6729 18.0039C63.571 18.0064 63.4694 18.0108 63.3682 18.0156Z" fill="#1F6FF1"/>
<path fill-rule="evenodd" clip-rule="evenodd" d="M225.257 9.00684C227.814 9.13622 229.864 11.1862 229.993 13.7432L230 14V39C230 41.7614 227.761 44 225 44H160C157.239 44 155 41.7614 155 39V14C155 11.3247 157.101 9.14053 159.743 9.00684L160 9H225L225.257 9.00684ZM160 13C159.448 13 159 13.4477 159 14V39C159 39.5523 159.448 40 160 40H225C225.552 40 226 39.5523 226 39V14C226 13.4477 225.552 13 225 13H160Z" fill="#1F6FF1"/>
</svg>
