<svg width="1020" height="500" viewBox="0 0 1020 500" fill="none" xmlns="http://www.w3.org/2000/svg">
<path d="M1016.5 0C1018.43 0 1020 1.567 1020 3.5V496.5C1020 498.433 1018.43 500 1016.5 500H3.5C1.567 500 0 498.433 0 496.5C0 496.33 0.0118016 496.163 0.0351562 496C0.0118016 495.837 0 495.67 0 495.5V382.5C0 380.567 1.567 379 3.5 379C5.433 379 7 380.567 7 382.5V493H213V382.5C213 380.567 214.567 379 216.5 379C218.433 379 220 380.567 220 382.5V493H760.036C760.013 492.837 760 492.67 760 492.5V479.5C760 477.567 761.567 476 763.5 476C765.433 476 767 477.567 767 479.5V492.5C767 492.67 766.987 492.837 766.964 493H1013V341H767V354.5C767 356.433 765.433 358 763.5 358C761.567 358 760 356.433 760 354.5V321.5C760 319.567 761.567 318 763.5 318C765.433 318 767 319.567 767 321.5V334H1013V175H767V188.5C767 190.433 765.433 192 763.5 192C761.567 192 760 190.433 760 188.5V155.5C760 153.567 761.567 152 763.5 152C765.433 152 767 153.567 767 155.5V168H1013V7H766.964C766.987 7.16333 767 7.33021 767 7.5V20.5C767 22.433 765.433 24 763.5 24C761.567 24 760 22.433 760 20.5V7.5C760 7.33021 760.013 7.16333 760.036 7H227V196.5C227 198.433 225.433 200 223.5 200C221.567 200 220 198.433 220 196.5V7H7V196.5C7 198.433 5.433 200 3.5 200C1.567 200 0 198.433 0 196.5V3.5C0 1.567 1.567 0 3.5 0H1016.5Z" fill="#1F6FF1"/>
</svg>
