<svg width="673" height="500" viewBox="0 0 673 500" fill="none" xmlns="http://www.w3.org/2000/svg">
<path d="M456.5 0C458.433 0 460 1.567 460 3.5V145.501H669.501C671.434 145.501 673.001 147.068 673.001 149.001C673.001 149.087 672.996 149.172 672.99 149.257C672.996 149.337 673 149.419 673 149.501V496.501C673 498.434 671.433 500.001 669.5 500.001C667.567 500.001 666 498.434 666 496.501V152.501H460V267.5C460 269.433 458.433 271 456.5 271C454.567 271 453 269.433 453 267.5V149.036C453 149.024 452.999 149.013 452.999 149.001C452.999 148.989 453 148.977 453 148.965V7.00098H7V169.001H253V156.501C253 154.568 254.567 153.001 256.5 153.001C258.433 153.001 260 154.568 260 156.501V189.501C260 191.434 258.433 193.001 256.5 193.001C254.567 193.001 253 191.434 253 189.501V176.001H7V334.001H253V321.501C253 319.568 254.567 318.001 256.5 318.001C258.433 318.001 260 319.568 260 321.501V354.501C260 356.434 258.433 358.001 256.5 358.001C254.567 358.001 253 356.434 253 354.501V341.001H7V493.001H453V453.501C453 451.568 454.567 450.001 456.5 450.001C458.433 450.001 460 451.568 460 453.501V493.001H483.5C485.433 493.001 487 494.568 487 496.501C487 498.434 485.433 500.001 483.5 500.001H3.5C1.62733 500.001 0.0985128 498.53 0.00488281 496.681L0 496.501V3.50098C0 1.56798 1.567 0.000976563 3.5 0.000976562H456.464C456.476 0.000854836 456.488 0 456.5 0Z" fill="#1F6FF1"/>
<path fill-rule="evenodd" clip-rule="evenodd" d="M25 412.001C27.2091 412.001 29 414.24 29 417.001C28.9999 419.762 27.2091 422.001 25 422.001C22.7909 422.001 21.0001 419.762 21 417.001C21 414.24 22.7909 412.001 25 412.001ZM25 413.001C23.5398 413.001 22 414.572 22 417.001C22.0001 419.43 23.5399 421.001 25 421.001C26.4601 421.001 27.9999 419.43 28 417.001C28 414.572 26.4602 413.001 25 413.001Z" fill="#1F6FF1"/>
<path fill-rule="evenodd" clip-rule="evenodd" d="M38 372.001C39.654 372.001 41.1201 372.804 42.0303 374.042C45.4845 374.533 48.5772 379.786 50.7529 387.925L50.876 388.396C59.5788 379.57 72.3112 374.001 86.5 374.001C112.529 374.001 133.668 392.733 133.996 415.952C133.999 416.135 134 416.318 134 416.501C134 416.684 133.999 416.867 133.996 417.05C133.668 440.269 112.529 459.001 86.5 459.001C72.3123 459.001 59.5799 453.434 50.877 444.609C48.8261 452.511 45.9232 457.799 42.6582 458.819C41.9307 460.681 40.1197 462.001 38 462.001H13C10.2386 462.001 8.0001 459.762 8 457.001V377.001C8 374.24 10.2386 372.001 13 372.001H38ZM13 376.001C12.4477 376.001 12 376.449 12 377.001V457.001C12.0001 457.553 12.4478 458.001 13 458.001H38C38.2113 458.001 38.4079 457.936 38.5693 457.824C33.0802 453.339 29 436.54 29 416.501C29 397.532 32.657 381.468 37.7031 376.001H13ZM86.5 378.001C72.2389 378.001 59.8203 384.003 51.9434 393.143C52.7457 397.281 53.3417 401.925 53.6797 406.903L53.7051 407.288C58.1753 394.925 70.9435 386.001 86 386.001C104.778 386.001 120 399.88 120 417.001C120 434.122 104.778 448.001 86 448.001C70.8786 448.001 58.065 439 53.6475 426.554C53.3046 431.36 52.7213 435.848 51.9434 439.86C59.8204 448.999 72.2393 455.001 86.5 455.001C110.954 455.001 130 437.357 130 416.501C130 395.645 110.954 378.001 86.5 378.001ZM41.5 378.019C41.4574 378.036 41.3918 378.069 41.3027 378.126C41.1463 378.231 40.9223 378.411 40.6426 378.714L40.5029 378.866C40.3286 379.069 40.1325 379.317 39.9189 379.624C38.7681 381.279 37.5701 383.936 36.499 387.577C34.3721 394.809 33 405.036 33 416.501C33 427.966 34.3721 438.193 36.499 445.425C37.5701 449.066 38.7681 451.723 39.9189 453.378C40.3572 454.008 40.7161 454.394 40.9844 454.632L41.1006 454.727C41.2287 454.831 41.3313 454.896 41.4043 454.938C41.444 454.959 41.4757 454.974 41.5 454.984C41.67 454.915 42.2213 454.614 43.0811 453.378C44.2319 451.723 45.4299 449.066 46.501 445.425C46.6755 444.831 46.8447 444.217 47.0088 443.584C47.3713 442.185 47.7087 440.687 48.0166 439.099L48.1006 438.663C48.77 435.112 49.2878 431.151 49.6123 426.897L49.6572 426.27L49.7363 425.09C49.9086 422.323 50 419.449 50 416.501C50 415.437 49.9881 414.383 49.9648 413.341C49.9555 412.918 49.9438 412.498 49.9307 412.079C49.9283 412.004 49.9253 411.929 49.9229 411.854C49.9131 411.557 49.9032 411.261 49.8916 410.967C49.8603 410.172 49.8217 409.385 49.7773 408.606C49.4728 403.255 48.8664 398.311 48.0332 393.989L48.0166 393.904C47.7097 392.321 47.3733 390.826 47.0117 389.43C46.8467 388.793 46.6766 388.174 46.501 387.577C45.4299 383.936 44.2319 381.279 43.0811 379.624C42.2219 378.389 41.6704 378.088 41.5 378.019ZM86 388.001C68.149 388.001 54 401.155 54 417.001C54.0001 432.847 68.1491 446.001 86 446.001C103.851 446.001 118 432.847 118 417.001C118 401.155 103.851 388.001 86 388.001Z" fill="#1F6FF1"/>
<path fill-rule="evenodd" clip-rule="evenodd" d="M660 271.001C662.675 271.001 664.859 273.102 664.993 275.744L665 276.001V341.001L664.993 341.258C664.864 343.815 662.814 345.865 660.257 345.994L660 346.001H635C632.239 346.001 630 343.762 630 341.001V276.001C630 273.24 632.239 271.001 635 271.001H660ZM635 275.001C634.448 275.001 634 275.449 634 276.001V341.001C634 341.553 634.448 342.001 635 342.001H660C660.552 342.001 661 341.553 661 341.001V276.001C661 275.449 660.552 275.001 660 275.001H635Z" fill="#1F6FF1"/>
<path fill-rule="evenodd" clip-rule="evenodd" d="M25 245.001C27.2091 245.001 29 247.24 29 250.001C28.9999 252.762 27.2091 255.001 25 255.001C22.7909 255.001 21.0001 252.762 21 250.001C21 247.24 22.7909 245.001 25 245.001ZM25 246.001C23.5398 246.001 22 247.572 22 250.001C22.0001 252.43 23.5399 254.001 25 254.001C26.4601 254.001 27.9999 252.43 28 250.001C28 247.572 26.4602 246.001 25 246.001Z" fill="#1F6FF1"/>
<path fill-rule="evenodd" clip-rule="evenodd" d="M38 205.001C39.654 205.001 41.1201 205.804 42.0303 207.042C45.4845 207.533 48.5772 212.786 50.7529 220.925L50.876 221.396C59.5788 212.57 72.3112 207.001 86.5 207.001C112.529 207.001 133.668 225.733 133.996 248.952C133.999 249.135 134 249.318 134 249.501C134 249.684 133.999 249.867 133.996 250.05C133.668 273.269 112.529 292.001 86.5 292.001C72.3123 292.001 59.5799 286.434 50.877 277.609C48.8261 285.511 45.9232 290.799 42.6582 291.819C41.9307 293.681 40.1197 295.001 38 295.001H13C10.2386 295.001 8.0001 292.762 8 290.001V210.001C8 207.24 10.2386 205.001 13 205.001H38ZM13 209.001C12.4477 209.001 12 209.449 12 210.001V290.001C12.0001 290.553 12.4478 291.001 13 291.001H38C38.2113 291.001 38.4079 290.936 38.5693 290.824C33.0802 286.339 29 269.54 29 249.501C29 230.532 32.657 214.468 37.7031 209.001H13ZM86.5 211.001C72.2389 211.001 59.8203 217.003 51.9434 226.143C52.7457 230.281 53.3417 234.925 53.6797 239.903L53.7051 240.288C58.1753 227.925 70.9435 219.001 86 219.001C104.778 219.001 120 232.88 120 250.001C120 267.122 104.778 281.001 86 281.001C70.8786 281.001 58.065 272 53.6475 259.554C53.3046 264.36 52.7213 268.848 51.9434 272.86C59.8204 281.999 72.2393 288.001 86.5 288.001C110.954 288.001 130 270.357 130 249.501C130 228.645 110.954 211.001 86.5 211.001ZM41.5 211.019C41.4574 211.036 41.3918 211.069 41.3027 211.126C41.1463 211.231 40.9223 211.411 40.6426 211.714L40.5029 211.866C40.3286 212.069 40.1325 212.317 39.9189 212.624C38.7681 214.279 37.5701 216.936 36.499 220.577C34.3721 227.809 33 238.036 33 249.501C33 260.966 34.3721 271.193 36.499 278.425C37.5701 282.066 38.7681 284.723 39.9189 286.378C40.3572 287.008 40.7161 287.394 40.9844 287.632L41.1006 287.727C41.2287 287.831 41.3313 287.896 41.4043 287.938C41.444 287.959 41.4757 287.974 41.5 287.984C41.67 287.915 42.2213 287.614 43.0811 286.378C44.2319 284.723 45.4299 282.066 46.501 278.425C46.6755 277.831 46.8447 277.217 47.0088 276.584C47.3713 275.185 47.7087 273.687 48.0166 272.099L48.1006 271.663C48.77 268.112 49.2878 264.151 49.6123 259.897L49.6572 259.27L49.7363 258.09C49.9086 255.323 50 252.449 50 249.501C50 248.437 49.9881 247.383 49.9648 246.341C49.9555 245.918 49.9438 245.498 49.9307 245.079C49.9283 245.004 49.9253 244.929 49.9229 244.854C49.9131 244.557 49.9032 244.261 49.8916 243.967C49.8603 243.172 49.8217 242.385 49.7773 241.606C49.4728 236.255 48.8664 231.311 48.0332 226.989L48.0166 226.904C47.7097 225.321 47.3733 223.826 47.0117 222.43C46.8467 221.793 46.6766 221.174 46.501 220.577C45.4299 216.936 44.2319 214.279 43.0811 212.624C42.2219 211.389 41.6704 211.088 41.5 211.019ZM86 221.001C68.149 221.001 54 234.155 54 250.001C54.0001 265.847 68.1491 279.001 86 279.001C103.851 279.001 118 265.847 118 250.001C118 234.155 103.851 221.001 86 221.001Z" fill="#1F6FF1"/>
<path fill-rule="evenodd" clip-rule="evenodd" d="M515.5 161.501C516.605 161.501 517.5 162.396 517.5 163.501V166.501H539.5L539.81 166.505C546.294 166.669 551.5 171.977 551.5 178.501V199.501C551.5 206.128 546.127 211.501 539.5 211.501H488.5C481.976 211.501 476.668 206.295 476.504 199.811L476.5 199.501V178.501C476.5 171.977 481.706 166.669 488.19 166.505L488.5 166.501H510.5V163.501C510.5 162.396 511.395 161.501 512.5 161.501H515.5ZM488.5 168.501C482.977 168.501 478.5 172.978 478.5 178.501V199.501C478.5 205.024 482.977 209.501 488.5 209.501H539.5C545.023 209.501 549.5 205.024 549.5 199.501V178.501C549.5 172.978 545.023 168.501 539.5 168.501H517.5V179.501L517.489 179.705C517.394 180.647 516.646 181.395 515.704 181.49L515.5 181.501H512.5L512.296 181.49C511.354 181.395 510.606 180.647 510.511 179.705L510.5 179.501V168.501H488.5ZM512.5 179.501H515.5V163.501H512.5V179.501Z" fill="#1F6FF1"/>
<path fill-rule="evenodd" clip-rule="evenodd" d="M547 153.501C553.627 153.501 559 158.874 559 165.501V206.501C559 213.025 553.794 218.333 547.31 218.497L547 218.501H481L480.69 218.497C474.309 218.335 469.166 213.192 469.004 206.811L469 206.501V165.501C469 158.874 474.373 153.501 481 153.501H547ZM481 157.501C476.582 157.501 473 161.083 473 165.501V206.501C473 210.919 476.582 214.501 481 214.501H547C551.418 214.501 555 210.919 555 206.501V165.501C555 161.083 551.418 157.501 547 157.501H481Z" fill="#1F6FF1"/>
<path fill-rule="evenodd" clip-rule="evenodd" d="M613.5 161.501C614.605 161.501 615.5 162.396 615.5 163.501V166.501H637.5L637.81 166.505C644.294 166.669 649.5 171.977 649.5 178.501V199.501C649.5 206.128 644.127 211.501 637.5 211.501H586.5C579.976 211.501 574.668 206.295 574.504 199.811L574.5 199.501V178.501C574.5 171.977 579.706 166.669 586.19 166.505L586.5 166.501H608.5V163.501C608.5 162.396 609.395 161.501 610.5 161.501H613.5ZM586.5 168.501C580.977 168.501 576.5 172.978 576.5 178.501V199.501C576.5 205.024 580.977 209.501 586.5 209.501H637.5C643.023 209.501 647.5 205.024 647.5 199.501V178.501C647.5 172.978 643.023 168.501 637.5 168.501H615.5V179.501L615.489 179.705C615.394 180.647 614.646 181.395 613.704 181.49L613.5 181.501H610.5L610.296 181.49C609.354 181.395 608.606 180.647 608.511 179.705L608.5 179.501V168.501H586.5ZM610.5 179.501H613.5V163.501H610.5V179.501Z" fill="#1F6FF1"/>
<path fill-rule="evenodd" clip-rule="evenodd" d="M645 153.501C651.627 153.501 657 158.874 657 165.501V206.501C657 213.025 651.794 218.333 645.31 218.497L645 218.501H579L578.69 218.497C572.309 218.335 567.166 213.192 567.004 206.811L567 206.501V165.501C567 158.874 572.373 153.501 579 153.501H645ZM579 157.501C574.582 157.501 571 161.083 571 165.501V206.501C571 210.919 574.582 214.501 579 214.501H645C649.418 214.501 653 210.919 653 206.501V165.501C653 161.083 649.418 157.501 645 157.501H579Z" fill="#1F6FF1"/>
<path fill-rule="evenodd" clip-rule="evenodd" d="M25 82.001C27.2091 82.001 29 84.2396 29 87.001C28.9999 89.7623 27.2091 92.001 25 92.001C22.7909 92.001 21.0001 89.7623 21 87.001C21 84.2396 22.7909 82.001 25 82.001ZM25 83.001C23.5398 83.001 22 84.5721 22 87.001C22.0001 89.4298 23.5399 91.001 25 91.001C26.4601 91.001 27.9999 89.4298 28 87.001C28 84.5721 26.4602 83.001 25 83.001Z" fill="#1F6FF1"/>
<path fill-rule="evenodd" clip-rule="evenodd" d="M38 42.001C39.654 42.001 41.1201 42.8044 42.0303 44.042C45.4845 44.5326 48.5772 49.7858 50.7529 57.9248L50.876 58.3955C59.5788 49.5698 72.3112 44.001 86.5 44.001C112.529 44.001 133.668 62.733 133.996 85.9521C133.999 86.1348 134 86.3178 134 86.501C134 86.6841 133.999 86.8672 133.996 87.0498C133.668 110.269 112.529 129.001 86.5 129.001C72.3123 129.001 59.5799 123.434 50.877 114.609C48.8261 122.511 45.9232 127.799 42.6582 128.819C41.9307 130.681 40.1197 132.001 38 132.001H13C10.2386 132.001 8.0001 129.762 8 127.001V47.001C8 44.2396 10.2386 42.001 13 42.001H38ZM13 46.001C12.4477 46.001 12 46.4487 12 47.001V127.001C12.0001 127.553 12.4478 128.001 13 128.001H38C38.2113 128.001 38.4079 127.936 38.5693 127.824C33.0802 123.339 29 106.54 29 86.501C29 67.5323 32.657 51.4677 37.7031 46.001H13ZM86.5 48.001C72.2389 48.001 59.8203 54.0035 51.9434 63.1426C52.7457 67.2812 53.3417 71.925 53.6797 76.9033L53.7051 77.2881C58.1753 64.9252 70.9435 56.001 86 56.001C104.778 56.001 120 69.8801 120 87.001C120 104.122 104.778 118.001 86 118.001C70.8786 118.001 58.065 109 53.6475 96.5537C53.3046 101.36 52.7213 105.848 51.9434 109.86C59.8204 118.999 72.2393 125.001 86.5 125.001C110.954 125.001 130 107.357 130 86.501C130 65.6448 110.954 48.001 86.5 48.001ZM41.5 48.0186C41.4574 48.0359 41.3918 48.0686 41.3027 48.126C41.1463 48.2307 40.9223 48.4109 40.6426 48.7139L40.5029 48.8662C40.3286 49.0687 40.1325 49.3169 39.9189 49.624C38.7681 51.2791 37.5701 53.9355 36.499 57.5771C34.3721 64.8087 33 75.0364 33 86.501C33 97.9656 34.3721 108.193 36.499 115.425C37.5701 119.066 38.7681 121.723 39.9189 123.378C40.3572 124.008 40.7161 124.394 40.9844 124.632L41.1006 124.727C41.2287 124.831 41.3313 124.896 41.4043 124.938C41.444 124.959 41.4757 124.974 41.5 124.984C41.67 124.915 42.2213 124.614 43.0811 123.378C44.2319 121.723 45.4299 119.066 46.501 115.425C46.6755 114.831 46.8447 114.217 47.0088 113.584C47.3713 112.185 47.7087 110.687 48.0166 109.099L48.1006 108.663C48.77 105.112 49.2878 101.151 49.6123 96.8975L49.6572 96.2695L49.7363 95.0898C49.9086 92.3227 50 89.4492 50 86.501C50 85.4374 49.9881 84.3834 49.9648 83.3408C49.9555 82.9183 49.9438 82.4976 49.9307 82.0791C49.9283 82.0039 49.9253 81.9286 49.9229 81.8535C49.9131 81.5569 49.9032 81.2612 49.8916 80.9668C49.8603 80.1724 49.8217 79.3853 49.7773 78.6064C49.4728 73.2553 48.8664 68.3112 48.0332 63.9893L48.0166 63.9043C47.7097 62.3209 47.3733 60.8259 47.0117 59.4297C46.8467 58.7927 46.6766 58.1743 46.501 57.5771C45.4299 53.9355 44.2319 51.2791 43.0811 49.624C42.2219 48.3887 41.6704 48.088 41.5 48.0186ZM86 58.001C68.149 58.001 54 71.1546 54 87.001C54.0001 102.847 68.1491 116.001 86 116.001C103.851 116.001 118 102.847 118 87.001C118 71.1546 103.851 58.001 86 58.001Z" fill="#1F6FF1"/>
<path fill-rule="evenodd" clip-rule="evenodd" d="M430 8.00098C431.105 8.00098 432 8.89641 432 10.001V16.501C442.873 16.501 451.719 25.1774 451.993 35.9844L452 36.501V66.501L451.993 67.0176C451.723 77.6528 443.152 86.2245 432.517 86.4941L432 86.501H427C415.954 86.501 407 77.5466 407 66.501V36.501C407 25.4553 415.954 16.501 427 16.501H428V10.001C428 8.89641 428.895 8.00098 430 8.00098ZM428 46.3105C422.307 46.545 416.654 48.1057 411.52 51L411 51.292V66.501C411 75.3374 418.164 82.501 427 82.501H432C440.836 82.501 448 75.3374 448 66.501V51.2881C443.035 48.3852 437.553 46.7422 432 46.3643V49.1328C439.339 50.1106 445 56.3948 445 64.001C445 72.2852 438.284 79.001 430 79.001C421.716 79.001 415 72.2852 415 64.001C415 56.3948 420.661 50.1106 428 49.1328V46.3105ZM430.292 69.4639C430.407 69.6214 430.424 69.8383 430.317 70.0156C430.143 70.3067 429.69 71.419 429.472 72.4688C429.355 73.0308 429.421 73.3636 429.513 73.5879C429.562 73.707 429.625 73.8128 429.699 73.9219C429.759 74.0089 429.875 74.1662 429.947 74.2822C430.16 74.6241 430.176 75.1058 430.126 75.5127L430.12 75.5605L430.105 75.6064C430.052 75.7698 429.949 75.9305 429.763 76.0371C429.61 76.1241 429.443 76.149 429.321 76.1621C429.065 76.1897 428.682 76.1895 428.335 76.1895C428.059 76.1895 427.835 75.9655 427.835 75.6895C427.835 75.4133 428.059 75.1895 428.335 75.1895C428.669 75.1895 428.957 75.1866 429.149 75.1719C429.153 74.9637 429.119 74.8436 429.099 74.8105C429.035 74.7089 428.982 74.6457 428.873 74.4854C428.779 74.3472 428.673 74.1772 428.587 73.9678C428.409 73.5347 428.341 72.9955 428.493 72.2646C428.718 71.1855 429.174 70.0141 429.43 69.5557C428.716 69.6334 427.991 69.7343 427.362 69.8447C426.931 69.9205 426.552 69.9994 426.257 70.0771C426.066 70.1274 425.934 70.1721 425.85 70.2051C425.883 70.2988 425.95 70.4313 426.057 70.5996C426.183 70.7999 426.338 71.0112 426.493 71.2207C426.64 71.4189 426.799 71.6322 426.902 71.8047C427.186 72.2764 427.366 72.7056 427.496 73.1465C427.551 73.3333 427.514 73.5023 427.471 73.6162C427.428 73.7291 427.365 73.8281 427.311 73.9043C427.21 74.0444 427.054 74.2199 426.969 74.3232L426.876 74.4355L426.737 74.4805C426.319 74.6162 425.733 74.6084 425.196 74.5488C424.641 74.4871 424.05 74.3587 423.584 74.1973L423.579 74.1963C423.518 74.1746 423.4 74.1358 423.3 74.0898C423.191 74.04 423.05 73.9591 422.935 73.8184C422.759 73.6051 422.791 73.2896 423.004 73.1143C423.19 72.961 423.455 72.9652 423.636 73.1113L423.691 73.167C423.691 73.167 423.697 73.1712 423.718 73.1807C423.736 73.1892 423.761 73.1995 423.795 73.2119C423.812 73.2181 423.83 73.2243 423.851 73.2314C423.869 73.2378 423.889 73.2455 423.91 73.2529C424.296 73.3865 424.813 73.4999 425.307 73.5547C425.731 73.6018 426.082 73.5975 426.306 73.5576C426.329 73.5304 426.352 73.5041 426.371 73.4814C426.425 73.4183 426.466 73.3676 426.497 73.3242C426.499 73.3222 426.5 73.3194 426.501 73.3174C426.398 72.9952 426.26 72.6762 426.046 72.3203C425.973 72.1988 425.849 72.0322 425.688 71.8154C425.537 71.61 425.36 71.3691 425.211 71.1328C425.195 71.1079 425.18 71.0816 425.164 71.0557C425.148 71.147 425.135 71.2365 425.117 71.3193C425.058 71.597 424.965 71.9408 424.762 72.1855C424.43 72.5832 424.019 72.7511 423.624 72.833C423.432 72.8727 423.237 72.8928 423.058 72.9092C422.87 72.9262 422.705 72.9385 422.531 72.96L422.509 72.9629L422.487 72.9639C422.116 72.977 421.456 72.9794 421.139 72.9336C421.06 72.9221 420.944 72.9006 420.839 72.8447C420.783 72.815 420.696 72.7577 420.629 72.6553C420.552 72.5389 420.527 72.4026 420.548 72.2744C420.551 72.2557 420.555 72.2377 420.56 72.2207C420.352 72.2509 420.154 72.2702 419.976 72.2783C422.36 75.1627 425.965 77.001 430 77.001C430.71 77.001 431.406 76.9425 432.085 76.833C431.946 76.7237 431.877 76.621 431.914 76.6572C431.722 76.4971 431.577 76.2932 431.468 76.1094C431.35 75.9127 431.235 75.6766 431.141 75.498L431.103 75.4258L431.089 75.3457C431.011 74.8679 430.999 74.2524 431.042 73.707C431.064 73.4325 431.101 73.1626 431.154 72.9277C431.204 72.7083 431.282 72.4619 431.414 72.2773C431.593 72.0285 431.818 71.7887 431.946 71.6357C432.048 71.5144 432.108 71.4254 432.144 71.3545C431.816 71.031 430.927 70.1521 430.433 69.5957C430.393 69.5509 430.364 69.4999 430.343 69.4473C430.326 69.4534 430.309 69.4595 430.292 69.4639ZM431.893 68.665C431.646 68.7555 431.391 68.8301 431.129 68.8848C431.146 68.8996 431.165 68.9141 431.181 68.9316C431.727 69.5469 432.795 70.5926 432.959 70.7559C433.198 70.9943 433.199 71.3036 433.152 71.498C433.073 71.8244 432.876 72.0824 432.712 72.2783C432.525 72.5013 432.378 72.6499 432.227 72.8604C432.227 72.8604 432.221 72.8678 432.215 72.8809C432.208 72.895 432.199 72.9147 432.189 72.9404C432.17 72.9935 432.149 73.0645 432.129 73.1514C432.089 73.3254 432.058 73.5439 432.039 73.7852C432.003 74.243 432.014 74.7403 432.067 75.1133C432.163 75.2971 432.24 75.4501 432.327 75.5967C432.401 75.72 432.463 75.8036 432.516 75.8574L432.566 75.9014L432.593 75.9219L432.615 75.9443C432.638 75.9672 432.659 75.9893 432.673 76.0059C432.686 76.0216 432.699 76.0381 432.706 76.0469C432.71 76.0519 432.713 76.0564 432.716 76.0596C432.964 76.1343 433.112 76.385 433.06 76.6377C433.3 76.5797 433.538 76.5154 433.772 76.4443C433.7 76.3596 433.671 76.3194 433.605 76.2539L433.604 76.2529C433.246 75.8939 432.76 75.4167 432.582 74.7588C432.506 74.4769 432.444 74.1574 432.439 73.8457C432.435 73.5397 432.486 73.1874 432.688 72.8896C432.763 72.7781 432.913 72.5951 433.012 72.4648C433.13 72.3089 433.248 72.1356 433.346 71.9453C433.537 71.5707 433.638 71.145 433.474 70.6553C433.48 70.6753 433.459 70.6241 433.342 70.4824C433.241 70.3611 433.105 70.2149 432.951 70.0596C432.643 69.7485 432.285 69.4242 432.043 69.2266C431.873 69.0875 431.82 68.8599 431.893 68.665ZM434.109 67.1543C433.994 67.2844 433.872 67.4088 433.744 67.5273C433.828 67.5583 433.898 67.6018 433.936 67.626C433.998 67.6666 434.066 67.7165 434.134 67.7705C434.27 67.8793 434.431 68.0228 434.597 68.1836C434.924 68.5018 435.302 68.9204 435.559 69.3223C435.777 69.6653 435.894 70.0079 435.975 70.3105C436.014 70.4587 436.047 70.607 436.076 70.7324C436.107 70.8629 436.135 70.9743 436.167 71.0752C436.195 71.1629 436.287 71.2903 436.485 71.4795C436.58 71.5695 436.676 71.6537 436.784 71.752C436.886 71.8445 436.999 71.9489 437.097 72.0576L437.17 72.1387L437.203 72.2441C437.244 72.3747 437.279 72.4991 437.31 72.6074C437.341 72.7186 437.366 72.8101 437.392 72.8887C437.413 72.9555 437.432 73.0004 437.445 73.0303C437.529 73.0779 437.677 73.1681 437.796 73.2852C437.992 73.4792 437.994 73.7968 437.8 73.9932C437.606 74.1891 437.289 74.1909 437.093 73.9971C437.069 73.9733 437.043 73.955 437.01 73.9346C436.991 73.9231 436.972 73.912 436.944 73.8965C436.92 73.8826 436.884 73.8624 436.848 73.8398L436.825 73.8262L436.805 73.8096C436.682 73.7134 436.606 73.5917 436.559 73.4971C436.509 73.3992 436.471 73.2925 436.439 73.1943C436.408 73.0952 436.377 72.9853 436.347 72.8789C436.326 72.804 436.302 72.7279 436.279 72.6504C436.232 72.603 436.177 72.5508 436.113 72.4932C436.02 72.4084 435.902 72.3052 435.795 72.2031C435.591 72.0083 435.326 71.7296 435.214 71.3789C435.169 71.2381 435.134 71.0939 435.103 70.9609C435.07 70.8229 435.042 70.6977 435.008 70.5684C434.94 70.3156 434.857 70.0816 434.716 69.8594C434.518 69.5495 434.201 69.1919 433.9 68.9004C433.752 68.7568 433.616 68.6367 433.511 68.5527C433.458 68.5104 433.417 68.4819 433.391 68.4648C433.369 68.4508 433.366 68.4491 433.376 68.4541C433.209 68.3875 433.093 68.238 433.066 68.0664C432.898 68.1795 432.723 68.2826 432.543 68.377C432.59 68.3954 432.635 68.4197 432.676 68.4531C432.947 68.6748 433.331 69.0214 433.661 69.3545C433.826 69.5211 433.985 69.6916 434.112 69.8447C434.222 69.977 434.362 70.1589 434.422 70.3369C434.697 71.156 434.509 71.8664 434.236 72.4004C434.101 72.664 433.943 72.8893 433.809 73.0674C433.655 73.2711 433.576 73.3599 433.516 73.4492C433.475 73.5094 433.437 73.6284 433.439 73.832C433.442 74.0299 433.484 74.2611 433.548 74.498C433.645 74.8563 433.918 75.1516 434.312 75.5459L434.592 75.8623C434.651 75.9292 434.724 76.0011 434.806 76.083C438.388 74.6569 441.186 71.6842 442.376 67.9893C442.305 68.0936 442.196 68.1721 442.062 68.1992C441.865 68.2392 441.829 68.2655 441.611 68.3379L441.604 68.3408L441.597 68.3428C441.1 68.4904 440.427 68.5639 439.81 68.5381L439.744 68.5352L439.682 68.5156C439.312 68.4003 439.018 68.1479 438.839 68.0127C438.632 67.8566 438.501 67.7847 438.35 67.7715C437.786 67.7223 437.026 67.6145 436.282 67.501C436.431 67.6382 436.527 67.8115 436.59 67.96C436.657 68.1184 436.707 68.2921 436.748 68.4531C436.839 68.8138 436.883 69.0799 436.965 69.3271C436.986 69.3916 437.045 69.4835 437.171 69.5957C437.295 69.7059 437.46 69.8147 437.651 69.917C438.035 70.1223 438.463 70.2717 438.737 70.3672C438.973 70.4494 439.142 70.6239 439.243 70.7832C439.372 70.987 439.401 71.2096 439.414 71.3906C439.428 71.5775 439.427 71.8081 439.427 72.0176C439.426 72.2934 439.203 72.5174 438.927 72.5176C438.651 72.5173 438.427 72.2933 438.427 72.0176C438.427 71.7954 438.427 71.6056 438.417 71.4629C438.412 71.3929 438.405 71.3527 438.399 71.3291C438.395 71.3089 438.392 71.3097 438.397 71.3184C438.395 71.314 438.392 71.3092 438.389 71.3057L438.388 71.3047C438.113 71.2092 437.63 71.0395 437.18 70.7988C436.948 70.6751 436.71 70.5241 436.507 70.3438C436.306 70.1653 436.112 69.9338 436.016 69.6436C435.921 69.3584 435.842 68.9487 435.779 68.6992C435.743 68.5555 435.707 68.4396 435.67 68.3516C435.635 68.269 435.609 68.2407 435.606 68.2373C435.51 68.1524 435.335 68.0503 435.121 67.957C434.913 67.8661 434.71 67.8019 434.586 67.7754C434.316 67.7177 434.144 67.4516 434.201 67.1816C434.202 67.1774 434.203 67.1731 434.204 67.1689C434.171 67.1637 434.14 67.1591 434.109 67.1543ZM426.063 67.3398C426.017 67.5198 425.872 67.6673 425.678 67.7061C425.448 67.7519 424.984 67.9231 424.499 68.1602C424.006 68.4014 423.592 68.663 423.415 68.8516C423.326 68.9467 423.256 69.0904 423.213 69.2949C423.17 69.5 423.159 69.7356 423.162 69.9834C423.164 70.1059 423.169 70.2262 423.174 70.3447C423.179 70.4599 423.184 70.5796 423.186 70.6865C423.187 70.7905 423.185 70.9087 423.168 71.0176C423.154 71.1047 423.117 71.2995 422.961 71.4482L422.911 71.4961L422.851 71.5273C422.521 71.7022 422.125 71.8479 421.726 71.9648C421.963 71.97 422.236 71.9713 422.448 71.9639C422.63 71.9426 422.814 71.9281 422.968 71.9141C423.141 71.8983 423.289 71.8811 423.422 71.8535C423.677 71.8007 423.852 71.7144 423.993 71.5449C424.024 71.5075 424.081 71.3874 424.14 71.1113C424.196 70.8449 424.234 70.5557 424.295 70.2021C424.352 69.8699 424.428 69.5017 424.555 69.168C424.681 68.8359 424.875 68.4904 425.2 68.251C425.628 67.9362 426.034 67.7077 426.331 67.5977C426.239 67.515 426.15 67.4285 426.063 67.3398ZM425.093 65.9854C425.029 66.0937 424.926 66.1788 424.796 66.2148C424.179 66.3846 422.41 67.152 421.172 68.1738C421.062 68.2648 420.959 68.3554 420.858 68.4453C420.76 68.5331 420.657 68.625 420.557 68.71C420.354 68.8813 420.125 69.0529 419.845 69.1709C419.401 69.3572 418.916 69.3755 418.541 69.3418C418.386 69.3278 418.241 69.3015 418.113 69.2725C418.41 69.9411 418.762 70.5801 419.163 71.1836C419.278 71.1517 419.404 71.1594 419.52 71.2168C419.565 71.2395 419.58 71.2467 419.604 71.2539C419.629 71.2615 419.679 71.2719 419.774 71.2812C420.055 71.2893 420.515 71.2355 421.018 71.1191C421.436 71.0222 421.851 70.8867 422.185 70.7363C422.185 70.7249 422.187 70.7123 422.187 70.6992C422.185 70.6119 422.18 70.5104 422.175 70.3887C422.17 70.2704 422.164 70.1363 422.162 69.9971C422.158 69.7209 422.168 69.3991 422.234 69.0869C422.301 68.7746 422.43 68.4391 422.687 68.166C422.998 67.8344 423.558 67.5075 424.061 67.2617C424.571 67.0121 425.127 66.7966 425.482 66.7256C425.502 66.7217 425.522 66.7213 425.541 66.7197C425.373 66.4879 425.223 66.2424 425.093 65.9854ZM427.09 68.167C427.043 68.3339 426.912 68.4724 426.732 68.5176C426.622 68.5453 426.269 68.7056 425.793 69.0557C425.742 69.0935 425.691 69.1469 425.643 69.2178C425.758 69.1789 425.881 69.1425 426.003 69.1104C426.335 69.023 426.743 68.9387 427.188 68.8604C427.51 68.8038 427.855 68.7509 428.21 68.7012C427.814 68.565 427.439 68.3852 427.09 68.167ZM428 51.1533C421.77 52.1153 417 57.5014 417 64.001C417 65.2224 417.168 66.4046 417.483 67.5254C417.491 67.5119 417.501 67.4996 417.509 67.4844C417.633 67.2382 417.933 67.1395 418.18 67.2637C418.426 67.388 418.525 67.6882 418.401 67.9346C418.352 68.0326 418.299 68.1109 418.274 68.1504C418.273 68.1532 418.27 68.1558 418.269 68.1582C418.266 68.2076 418.269 68.2504 418.276 68.2852L418.282 68.2871C418.372 68.3107 418.493 68.3333 418.631 68.3457C418.915 68.3713 419.219 68.3488 419.457 68.249C419.599 68.1891 419.737 68.0934 419.911 67.9463C419.999 67.8722 420.089 67.7915 420.193 67.6982C420.296 67.6069 420.41 67.506 420.535 67.4023C421.893 66.2813 423.793 65.4531 424.53 65.25C424.617 65.2262 424.704 65.2292 424.785 65.25C424.723 65.065 424.67 64.8758 424.628 64.6826C424.625 64.6844 424.622 64.6877 424.619 64.6895C424.531 64.7373 424.36 64.8623 424.13 65.0371C423.919 65.1969 423.671 65.3879 423.475 65.5215C423.065 65.7994 422.495 66.0182 421.896 66.2373C421.526 66.3722 421.172 66.2847 420.903 66.1758C420.689 66.0886 420.467 65.9599 420.277 65.8486C419.813 65.8597 419.523 65.9035 419.326 65.96C419.127 66.0174 419.009 66.0908 418.887 66.1855L418.871 66.1973C418.802 66.2466 418.806 66.2413 418.784 66.2617C418.767 66.2782 418.726 66.3209 418.658 66.4268C418.509 66.6588 418.2 66.7258 417.968 66.5771C417.735 66.4281 417.667 66.1191 417.816 65.8867C417.852 65.8306 417.889 65.781 417.923 65.7354C417.885 65.7329 417.847 65.7274 417.809 65.7158C417.545 65.6347 417.397 65.3547 417.478 65.0908C417.56 64.8226 417.601 64.6617 417.674 64.5176C417.747 64.3715 417.847 64.2427 417.93 64.1465L417.952 64.1201L417.979 64.0967C418.19 63.9107 418.435 63.7863 418.661 63.6836C418.911 63.5703 419.113 63.4921 419.373 63.3643C419.587 63.2593 419.746 63.1256 419.938 62.9658C420.111 62.8211 420.356 62.6126 420.68 62.5205C420.717 62.5098 420.761 62.498 420.809 62.4854C420.387 62.4185 420.036 62.2338 419.768 62.1133C419.414 62.1568 419.158 62.3016 418.817 62.5234C418.805 62.5428 418.786 62.5749 418.755 62.6377C418.631 62.8844 418.331 62.9847 418.084 62.8613C417.837 62.7379 417.737 62.4373 417.86 62.1904C417.905 62.1015 417.984 61.9355 418.134 61.7871L418.169 61.752L418.211 61.7246C418.629 61.4505 419.102 61.1458 419.822 61.1035L419.935 61.0967L420.039 61.1396C420.717 61.4141 420.931 61.6035 421.372 61.4746C421.991 61.2936 423.335 60.8527 424.394 60.541C423.921 60.5507 423.316 60.5494 422.794 60.5C422.46 60.4684 422.183 60.3502 421.946 60.2217C421.83 60.1584 421.715 60.0886 421.611 60.0244C421.504 59.9583 421.404 59.897 421.3 59.8379C421.144 59.7498 420.926 59.7353 420.633 59.8057C420.345 59.875 420.062 60.0071 419.823 60.1211C419.785 60.1404 419.752 60.1597 419.69 60.1953C419.634 60.2283 419.556 60.2736 419.462 60.3115C419.371 60.3482 419.276 60.3732 419.199 60.3945C419.116 60.4176 419.019 60.4451 418.889 60.4883C418.627 60.5749 418.344 60.4325 418.257 60.1709C418.17 59.9088 418.312 59.626 418.574 59.5391C418.729 59.4877 418.845 59.4548 418.933 59.4307C419.026 59.4049 419.06 59.3947 419.087 59.3838C419.111 59.3741 419.138 59.3606 419.188 59.332C419.23 59.3073 419.303 59.2626 419.382 59.2236L419.389 59.2197C419.619 59.11 419.992 58.9307 420.398 58.833C420.801 58.7361 421.318 58.6992 421.792 58.9668C421.917 59.0372 422.034 59.1105 422.137 59.1738C422.242 59.239 422.334 59.2945 422.423 59.3428C422.598 59.4377 422.74 59.4899 422.888 59.5039C423.662 59.5772 424.667 59.5408 424.986 59.5186C424.446 59.3676 423.874 59.1323 423.229 58.7852C422.652 58.4737 422.336 58.0644 422.15 57.751L422.109 57.6816L422.092 57.6025C421.973 57.0523 421.996 56.511 422.035 56.207C422.045 56.0941 422.047 55.8645 422.136 55.5645C422.16 55.484 422.203 55.4147 422.258 55.3584C422.213 55.3583 422.168 55.3584 422.121 55.3584C421.845 55.3584 421.621 55.1344 421.621 54.8584C421.621 54.5823 421.845 54.3584 422.121 54.3584C422.38 54.3584 422.654 54.358 422.872 54.3711C423.051 54.3819 423.259 54.4036 423.451 54.4893L423.533 54.5293L423.577 54.5547L423.615 54.5879C423.701 54.6626 423.761 54.7582 423.792 54.8086C423.831 54.8722 423.871 54.9474 423.909 55.0215C423.992 55.181 424.074 55.3492 424.184 55.5537C424.399 55.9544 424.668 56.3936 425.006 56.7305C425.143 56.8667 425.429 57.0532 425.784 57.2354C426.129 57.4122 426.482 57.5573 426.715 57.6279C426.776 57.6467 426.831 57.6771 426.879 57.7148C426.848 57.6596 426.818 57.6036 426.787 57.5479C426.338 57.0923 425.864 56.5974 425.442 56.1533C424.831 55.5092 424.34 54.9836 424.169 54.8125C424.165 54.8095 424.153 54.8011 424.123 54.7822C424.103 54.7698 424.066 54.7468 424.029 54.7197C423.991 54.6914 423.941 54.6501 423.894 54.5938C423.742 54.4139 423.643 54.1245 423.766 53.8311C423.821 53.6997 423.91 53.6043 423.947 53.5635C424.002 53.5047 424.019 53.4882 424.044 53.457C424.068 53.4258 424.214 53.1893 424.449 52.9521C424.644 52.7563 424.96 52.7557 425.156 52.9502C425.352 53.1448 425.354 53.4614 425.159 53.6572C424.97 53.8481 424.972 53.8915 424.833 54.0693C424.847 54.0816 424.863 54.0927 424.877 54.1064C425.008 54.238 425.309 54.5586 425.689 54.9609C425.679 54.9007 425.67 54.8411 425.665 54.7832C425.655 54.6613 425.657 54.509 425.706 54.3604C425.823 54.0095 426.052 53.7646 426.196 53.6074C426.337 53.4536 426.391 53.3837 426.415 53.334C426.419 53.2772 426.419 53.2165 426.413 53.1611C426.411 53.1408 426.41 53.1316 426.399 53.1025C426.383 53.0597 426.349 52.9825 426.27 52.835C426.139 52.5919 426.231 52.2889 426.474 52.1582C426.717 52.0276 427.021 52.1191 427.151 52.3623C427.326 52.6884 427.385 52.8496 427.407 53.0518C427.423 53.1944 427.423 53.3486 427.407 53.4922L427.402 53.5303L427.393 53.5684C427.301 53.9022 427.059 54.146 426.933 54.2832C426.785 54.4446 426.703 54.5455 426.66 54.6621C426.66 54.6696 426.661 54.6823 426.662 54.7002C426.667 54.7526 426.68 54.8282 426.706 54.9287C426.759 55.1304 426.853 55.3905 426.981 55.6904C427.148 56.0793 427.366 56.5147 427.601 56.9492C427.738 57.0878 427.872 57.2215 428 57.3477V51.1533ZM432 63.001C432 64.1055 431.105 65.001 430 65.001C428.895 65.001 428 64.1055 428 63.001V59.4688C426.518 60.2051 425.5 61.7341 425.5 63.501C425.5 65.9862 427.515 68.001 430 68.001C432.485 68.001 434.5 65.9862 434.5 63.501C434.5 61.7341 433.482 60.2051 432 59.4688V63.001ZM442.879 65.3047C442.474 65.4933 441.86 65.7408 441.033 65.7852C440.835 65.7957 440.549 65.7673 440.201 65.7061C440.154 65.7844 440.087 65.8522 439.999 65.8965C439.924 65.9342 439.904 65.9568 439.795 66.0518L439.732 66.1074L439.654 66.1387C438.864 66.4589 437.852 66.3951 437.138 66.3496L437.105 66.3467L437.073 66.3408C436.704 66.2681 436.292 66.1713 435.923 66.083C435.547 65.9931 435.224 65.9138 435.011 65.8691C434.997 65.8662 434.984 65.8595 434.971 65.8555C434.907 65.9888 434.838 66.1189 434.765 66.2461C435.812 66.4175 437.448 66.6889 438.438 66.7754C438.89 66.815 439.214 67.0433 439.441 67.2148C439.668 67.3859 439.791 67.4846 439.928 67.54C440.43 67.553 440.953 67.4886 441.308 67.3838C441.444 67.3377 441.595 67.2742 441.864 67.2197C442.135 67.1652 442.398 67.3401 442.453 67.6104C442.46 67.6434 442.462 67.6765 442.462 67.709C442.694 66.9264 442.855 66.113 442.937 65.2764L442.879 65.3047ZM435.474 64.0332C435.445 64.3346 435.391 64.6289 435.315 64.9141C435.541 64.9639 435.842 65.0355 436.155 65.1104C436.514 65.1962 436.897 65.2857 437.238 65.3535C437.764 65.3866 438.286 65.4059 438.732 65.3447C438.335 65.2245 437.898 65.0788 437.433 64.9014C436.813 64.6651 436.36 64.4801 436.048 64.3398C435.893 64.2701 435.766 64.2087 435.669 64.1562C435.613 64.126 435.54 64.0837 435.474 64.0332ZM424.505 63.2715C424.142 63.2817 423.67 63.3136 423.232 63.373C422.986 63.4065 422.76 63.4487 422.575 63.4951C422.555 63.6645 422.477 63.8367 422.318 63.9668C422.114 64.1339 421.855 64.1616 421.706 64.1611C421.621 64.1608 421.513 64.1501 421.414 64.1211C421.374 64.1093 421.276 64.0783 421.185 64.002C421.135 63.9606 421.058 63.881 421.019 63.7549C420.987 63.6543 420.99 63.5543 421.014 63.4658C420.995 63.471 420.974 63.4765 420.953 63.4824C420.864 63.5078 420.773 63.5701 420.577 63.7334C420.399 63.882 420.151 64.0957 419.813 64.2617C419.545 64.3933 419.259 64.5104 419.075 64.5938C418.886 64.6797 418.758 64.7504 418.665 64.8262C418.619 64.8824 418.586 64.9311 418.567 64.9678C418.548 65.006 418.54 65.0317 418.472 65.2559C418.626 65.1576 418.81 65.0681 419.05 64.999C419.386 64.9025 419.812 64.8512 420.4 64.8457L420.537 64.8438L420.656 64.9121C420.912 65.0603 421.1 65.1762 421.279 65.249C421.453 65.3193 421.524 65.3081 421.552 65.2979C422.177 65.0694 422.624 64.8901 422.912 64.6943C423.081 64.5798 423.298 64.4123 423.525 64.2402C423.732 64.0834 423.972 63.9027 424.142 63.8105C424.258 63.7475 424.387 63.7359 424.506 63.7666C424.502 63.6787 424.5 63.59 424.5 63.501C424.5 63.4242 424.502 63.3475 424.505 63.2715ZM442.812 63.4365L442.81 63.4375C442.682 63.4936 442.55 63.5476 442.425 63.5986C442.298 63.6506 442.177 63.6999 442.062 63.75C441.842 63.8465 441.676 63.9329 441.564 64.0156C441.298 64.2986 441.044 64.5795 440.872 64.7832C440.916 64.7854 440.952 64.7876 440.979 64.7861C441.575 64.7542 442.029 64.5872 442.37 64.4346C442.428 64.3719 442.482 64.3131 442.53 64.2578C442.492 64.0179 442.632 63.7795 442.87 63.7031L442.996 63.6738C442.994 63.572 442.989 63.4704 442.984 63.3691C442.917 63.3918 442.864 63.4136 442.812 63.4365ZM432 52.4678C432.099 52.6195 432.113 52.8191 432.018 52.9873C432.011 52.9992 432.005 53.0101 432 53.0195V53.0645C432.053 53.1619 432.164 53.3125 432.384 53.5156C432.763 53.8516 433.358 54.2542 433.536 55.2832C433.645 55.9144 433.56 56.5987 433.425 57.1543C433.292 57.7005 433.091 58.2017 432.913 58.4609C432.84 58.5672 432.732 58.6336 432.615 58.6611C432.744 58.731 432.87 58.8071 432.992 58.8867C432.992 58.8106 433.006 58.7329 433.042 58.6602C433.078 58.588 433.143 58.4928 433.186 58.4297C433.24 58.3489 433.305 58.2504 433.378 58.1318C433.524 57.8952 433.7 57.5756 433.858 57.1748C434.202 56.303 434.352 55.671 434.464 55.1973C434.518 54.9661 434.571 54.7416 434.637 54.5527C434.705 54.358 434.802 54.157 434.97 53.9883L435.066 53.8906L435.2 53.8564C435.431 53.7975 435.652 53.8081 435.849 53.8486L436.038 53.8975L436.051 53.9023L436.063 53.9062C436.187 53.9525 436.305 54.012 436.396 54.0576C436.643 54.1811 436.743 54.4817 436.62 54.7285C436.497 54.9753 436.196 55.0754 435.949 54.9521C435.853 54.9042 435.785 54.8717 435.723 54.8477C435.679 54.8349 435.641 54.8263 435.606 54.8213C435.599 54.8393 435.589 54.8596 435.581 54.8828C435.536 55.0116 435.496 55.1783 435.438 55.4268C435.323 55.9135 435.16 56.601 434.789 57.541C434.604 58.0098 434.398 58.383 434.229 58.6562C434.146 58.7922 434.072 58.904 434.017 58.9863C433.953 59.0814 433.937 59.1055 433.937 59.1055C433.871 59.238 433.753 59.3268 433.621 59.3633C433.702 59.4342 433.781 59.5075 433.857 59.583C433.964 59.4933 434.112 59.3625 434.274 59.2129C434.251 59.1167 434.256 59.0123 434.295 58.9131C434.403 58.6356 434.558 58.2697 434.733 57.9365C434.821 57.77 434.918 57.6025 435.021 57.4561C435.12 57.3157 435.245 57.1647 435.395 57.0557C435.71 56.8259 436.158 56.7269 436.52 56.6611C436.902 56.5915 437.226 56.5512 437.537 56.4844C437.997 56.1746 438.289 55.9466 438.451 55.8174C438.478 55.7942 438.497 55.7776 438.52 55.751C438.547 55.719 438.587 55.6655 438.652 55.5684C438.806 55.3393 439.116 55.2777 439.346 55.4307C439.575 55.5842 439.637 55.8955 439.483 56.125C439.322 56.3669 439.222 56.4743 439.098 56.5811L439.092 56.5859L439.085 56.5918C438.901 56.7387 438.559 57.007 438.014 57.3701L437.938 57.4199L437.851 57.4404C437.489 57.5251 437.024 57.5863 436.698 57.6455C436.317 57.7149 436.09 57.7869 435.983 57.8643C435.977 57.8691 435.968 57.8782 435.955 57.8906C436.211 57.7895 436.465 57.7286 436.692 57.7031L436.833 57.6875L436.96 57.7471C437.586 58.0407 438.237 58.4738 438.536 58.6846C438.672 58.7721 438.933 58.9204 439.187 59.1436C439.266 59.214 439.317 59.3051 439.341 59.4014C439.47 59.3438 439.569 59.2936 439.647 59.2529L439.658 59.2471L439.67 59.2422C439.844 59.1626 439.975 59.13 440.077 59.1045C440.345 59.0378 440.616 59.201 440.683 59.4688C440.749 59.7364 440.587 60.0083 440.319 60.0752C440.232 60.097 440.176 60.1105 440.094 60.1475C439.765 60.3184 439.173 60.6172 437.964 60.8242L437.92 60.832L437.876 60.8311C436.19 60.8194 435.044 60.7976 434.788 60.7959C434.827 60.8644 434.865 60.9337 434.9 61.0039C435.021 60.8821 435.2 60.825 435.378 60.8701C436.257 61.0927 437.171 61.3202 437.938 61.4814C438.322 61.5621 438.662 61.6246 438.938 61.6621C439.229 61.7015 439.403 61.7067 439.48 61.6963C439.741 61.6607 440.018 61.5371 440.309 61.3672C440.451 61.2836 440.589 61.194 440.726 61.1045C440.857 61.0185 440.996 60.926 441.123 60.8525C441.13 60.8483 441.139 60.8427 441.185 60.8047C441.216 60.7781 441.305 60.7012 441.421 60.6504L441.494 60.623C441.65 60.5729 441.866 60.5548 442.065 60.6611L442.164 60.7256L442.25 60.8057C442.324 60.8888 442.365 60.9771 442.388 61.0352C442.418 61.1126 442.438 61.1943 442.448 61.2344C442.515 61.502 442.352 61.7739 442.084 61.8408C441.913 61.8832 441.742 61.8306 441.622 61.7188C441.526 61.7745 441.415 61.8483 441.274 61.9404C441.139 62.0296 440.981 62.1324 440.813 62.2305C440.483 62.4239 440.071 62.6243 439.616 62.6865C439.393 62.7169 439.1 62.6935 438.804 62.6533C438.493 62.6112 438.127 62.5429 437.732 62.46C436.979 62.3016 436.096 62.0828 435.254 61.8701C435.384 62.2902 435.465 62.732 435.49 63.1885C435.683 63.0713 435.936 63.0945 436.103 63.2607C436.068 63.226 436.057 63.229 436.144 63.2754C436.212 63.312 436.314 63.363 436.458 63.4277C436.745 63.5569 437.178 63.7341 437.788 63.9668C438.565 64.2631 439.249 64.4665 439.793 64.5977C439.807 64.5529 439.825 64.5087 439.853 64.4678C440.021 64.214 440.479 63.7093 440.868 63.2969L440.894 63.2695L440.923 63.2471C441.141 63.0751 441.414 62.9424 441.662 62.834C441.79 62.7782 441.922 62.7238 442.047 62.6729C442.174 62.621 442.294 62.5716 442.408 62.5215C442.534 62.4658 442.676 62.4102 442.896 62.3545C442.17 56.6097 437.696 52.0328 432 51.1533V52.4678ZM424.902 61.4355C423.846 61.7383 422.39 62.2187 421.652 62.4346C421.647 62.436 421.642 62.4361 421.637 62.4375C421.658 62.4426 421.681 62.4467 421.702 62.4531C421.814 62.4867 421.939 62.5356 422.06 62.6035C422.13 62.5797 422.2 62.5587 422.266 62.541C422.516 62.4741 422.806 62.4214 423.098 62.3818C423.639 62.3084 424.224 62.2724 424.64 62.2676C424.705 61.981 424.794 61.7031 424.902 61.4355ZM425.386 59.6152C425.495 59.6973 425.572 59.8221 425.585 59.9688C425.596 60.0939 425.558 60.2113 425.489 60.3057C425.499 60.3081 425.509 60.3104 425.519 60.3135C425.67 60.1009 425.836 59.8995 426.016 59.7109C425.807 59.6914 425.598 59.6594 425.386 59.6152ZM436.668 58.7178C436.349 58.7791 435.983 58.9376 435.706 59.2217C435.527 59.4056 435.315 59.6091 435.112 59.7998C435.615 59.8068 436.59 59.8213 437.838 59.8301C438.012 59.7995 438.171 59.7648 438.315 59.7314C438.213 59.6612 438.11 59.6 437.994 59.5254L437.985 59.5195L437.977 59.5127C437.725 59.3344 437.188 58.9779 436.668 58.7178ZM423.112 55.6572C423.118 55.7193 423.113 55.7841 423.095 55.8477C423.043 56.0241 423.045 56.1219 423.03 56.292L423.028 56.3174C423.001 56.5206 422.982 56.9116 423.054 57.3057C423.177 57.4967 423.367 57.7227 423.704 57.9043C424.828 58.51 425.643 58.7165 426.441 58.7373C426.621 58.742 426.775 58.8415 426.859 58.9863C427.212 58.7408 427.594 58.5365 428 58.3779V58.1514C427.99 58.1587 427.981 58.1663 427.971 58.1729C427.93 58.2327 427.878 58.2861 427.812 58.3252C427.574 58.4651 427.267 58.3861 427.127 58.1484C427.105 58.1112 427.084 58.0728 427.062 58.0352C427.073 58.1056 427.07 58.1794 427.048 58.252C426.968 58.5158 426.689 58.6648 426.425 58.585C426.12 58.4925 425.709 58.3212 425.327 58.125C424.955 57.9341 424.552 57.6901 424.3 57.4385C423.856 56.9959 423.531 56.4519 423.303 56.0264C423.233 55.8969 423.168 55.7674 423.112 55.6572ZM432 58.3779C432.019 58.3852 432.037 58.392 432.056 58.3994C431.978 58.2421 431.983 58.0495 432.089 57.8945C432.167 57.7803 432.332 57.4137 432.453 56.918C432.571 56.4315 432.627 55.8967 432.551 55.4531C432.468 54.9729 432.28 54.7574 432 54.5078V58.3779ZM427 20.501C418.163 20.501 411 27.6644 411 36.501V50.1445L411.028 50.1289C416.315 47.1486 422.138 45.5446 428 45.3096V20.501H427ZM432 45.3613C437.54 45.7283 443.014 47.3207 448 50.1338V36.501C448 27.6644 440.837 20.501 432 20.501V45.3613Z" fill="#1F6FF1"/>
</svg>
