<svg width="45" height="79" viewBox="0 0 45 79" fill="none" xmlns="http://www.w3.org/2000/svg">
<path fill-rule="evenodd" clip-rule="evenodd" d="M23 0C24.1046 0 25 0.89543 25 2V8.5C35.873 8.5 44.7192 17.1765 44.9932 27.9834L45 28.5V58.5L44.9932 59.0166C44.7235 69.6519 36.1519 78.2235 25.5166 78.4932L25 78.5H20C8.95431 78.5 4.83193e-07 69.5457 0 58.5V28.5C0 17.4543 8.95431 8.5 20 8.5H21V2C21 0.89543 21.8954 0 23 0ZM21 38.3096C15.3075 38.544 9.65392 40.1047 4.51953 42.999L4 43.291V58.5C4 67.3366 11.1634 74.5 20 74.5H25C33.8366 74.5 41 67.3366 41 58.5V43.2871C36.035 40.3843 30.5529 38.7412 25 38.3633V41.1318C32.3387 42.1096 38 48.3938 38 56C38 64.2843 31.2843 71 23 71C14.7157 71 8 64.2843 8 56C8 48.3938 13.6613 42.1096 21 41.1318V38.3096ZM23.292 61.4629C23.4066 61.6204 23.4238 61.8373 23.3174 62.0146C23.1428 62.3056 22.6905 63.4179 22.4717 64.4678C22.3546 65.03 22.4207 65.3626 22.5127 65.5869C22.5616 65.7061 22.6247 65.8118 22.6992 65.9209C22.7586 66.0079 22.875 66.1652 22.9473 66.2812C23.1599 66.6231 23.1764 67.1047 23.126 67.5117L23.1201 67.5596L23.1055 67.6055C23.0523 67.7688 22.9491 67.9295 22.7627 68.0361C22.6104 68.1231 22.4428 68.148 22.3213 68.1611C22.0651 68.1887 21.682 68.1885 21.335 68.1885C21.0589 68.1885 20.835 67.9646 20.835 67.6885C20.835 67.4123 21.0588 67.1885 21.335 67.1885C21.6686 67.1885 21.9568 67.1856 22.1494 67.1709C22.1531 66.9625 22.1187 66.8424 22.0986 66.8096C22.0353 66.7079 21.9825 66.6448 21.873 66.4844C21.7787 66.3462 21.6729 66.1763 21.5869 65.9668C21.4093 65.5337 21.3409 64.9946 21.4932 64.2637C21.7181 63.1844 22.1742 62.013 22.4297 61.5547C21.7156 61.6325 20.9905 61.7333 20.3623 61.8438C19.9313 61.9195 19.5519 61.9985 19.2568 62.0762C19.0662 62.1264 18.9339 62.1711 18.8496 62.2041C18.8831 62.2978 18.9503 62.4302 19.0566 62.5986C19.1832 62.7989 19.3383 63.0102 19.4932 63.2197C19.6397 63.4179 19.7986 63.6312 19.9023 63.8037C20.1859 64.2754 20.3665 64.7046 20.4961 65.1455C20.5509 65.3324 20.5137 65.5012 20.4707 65.6152C20.428 65.7282 20.3649 65.8271 20.3105 65.9033C20.2105 66.0435 20.054 66.2189 19.9688 66.3223L19.876 66.4346L19.7373 66.4795C19.319 66.6152 18.7326 66.6074 18.1963 66.5479C17.6405 66.4861 17.0501 66.3578 16.584 66.1963L16.5791 66.1953C16.5184 66.1736 16.3997 66.1348 16.2998 66.0889C16.1914 66.039 16.0503 65.9582 15.9346 65.8174C15.7594 65.6041 15.7907 65.2886 16.0039 65.1133C16.1905 64.9601 16.455 64.9642 16.6357 65.1104L16.6914 65.166C16.6904 65.1652 16.6973 65.1702 16.7178 65.1797C16.7363 65.1882 16.7606 65.1985 16.7949 65.2109C16.8119 65.2171 16.8303 65.2234 16.8506 65.2305C16.8686 65.2368 16.8894 65.2446 16.9102 65.252C17.2959 65.3856 17.8134 65.4989 18.3066 65.5537C18.7311 65.6008 19.0818 65.5965 19.3057 65.5566C19.329 65.5294 19.3519 65.5032 19.3711 65.4805C19.4246 65.4173 19.4661 65.3666 19.4971 65.3232C19.4985 65.3212 19.4997 65.3184 19.501 65.3164C19.3979 64.9942 19.2598 64.6753 19.0459 64.3193C18.9729 64.1978 18.8488 64.0313 18.6885 63.8145C18.5366 63.6089 18.3602 63.3681 18.2109 63.1318C18.1952 63.1069 18.1798 63.0806 18.1641 63.0547C18.148 63.1461 18.1348 63.2355 18.1172 63.3184C18.058 63.5961 17.9655 63.9398 17.7617 64.1846C17.4302 64.5823 17.0194 64.7501 16.624 64.832C16.4323 64.8717 16.2371 64.8919 16.0576 64.9082C15.8701 64.9253 15.7048 64.9376 15.5312 64.959L15.5088 64.9619L15.4873 64.9629C15.116 64.976 14.456 64.9784 14.1387 64.9326C14.0595 64.9212 13.9443 64.8996 13.8389 64.8438C13.7829 64.814 13.6963 64.7568 13.6289 64.6543C13.5524 64.5379 13.5266 64.4017 13.5479 64.2734C13.551 64.2546 13.5549 64.2367 13.5596 64.2197C13.3524 64.2499 13.1543 64.2693 12.9756 64.2773C15.36 67.1618 18.9653 69 23 69C23.7098 69 24.406 68.9415 25.085 68.832C24.9465 68.7227 24.8773 68.62 24.9141 68.6562C24.722 68.4961 24.5775 68.2922 24.4678 68.1084C24.3504 67.9117 24.2351 67.6756 24.1406 67.4971L24.1025 67.4248L24.0889 67.3447C24.0105 66.8669 23.9989 66.2515 24.042 65.7061C24.0637 65.4315 24.1006 65.1616 24.1543 64.9268C24.2045 64.7072 24.2817 64.4609 24.4141 64.2764C24.5927 64.0275 24.818 63.7877 24.9463 63.6348C25.0482 63.5134 25.108 63.4244 25.1436 63.3535C24.8161 63.03 23.9268 62.1512 23.4326 61.5947C23.3928 61.5499 23.3637 61.499 23.3428 61.4463C23.3261 61.4524 23.3095 61.4585 23.292 61.4629ZM24.8926 60.6641C24.6457 60.7546 24.391 60.8291 24.1289 60.8838C24.1463 60.8987 24.165 60.9131 24.1807 60.9307C24.7271 61.546 25.7953 62.5916 25.959 62.7549C26.1978 62.9933 26.1994 63.3026 26.1523 63.4971C26.0732 63.8235 25.8764 64.0813 25.7119 64.2773C25.5247 64.5004 25.3776 64.6489 25.2266 64.8594C25.2266 64.8594 25.2219 64.8657 25.2148 64.8799C25.2078 64.894 25.1991 64.9136 25.1895 64.9395C25.1695 64.9926 25.1488 65.0635 25.1289 65.1504C25.0892 65.3245 25.0581 65.5428 25.0391 65.7842C25.0029 66.2421 25.0144 66.7393 25.0674 67.1123C25.1632 67.2962 25.2397 67.4491 25.3271 67.5957C25.4008 67.7191 25.4626 67.8026 25.5156 67.8564L25.5664 67.9004L25.5928 67.9209L25.6152 67.9434C25.6385 67.9663 25.6588 67.9883 25.6729 68.0049C25.6862 68.0206 25.699 68.0371 25.7061 68.0459C25.7101 68.051 25.7132 68.0554 25.7158 68.0586C25.9638 68.1333 26.112 68.384 26.0596 68.6367C26.2999 68.5787 26.5376 68.5145 26.7725 68.4434C26.7001 68.3585 26.6713 68.3185 26.6055 68.2529L26.6045 68.252C26.2464 67.8929 25.7601 67.4158 25.582 66.7578C25.5058 66.4759 25.4438 66.1565 25.4395 65.8447C25.4353 65.5387 25.4863 65.1864 25.6875 64.8887C25.7629 64.7771 25.9132 64.5941 26.0117 64.4639C26.1297 64.3078 26.2483 64.1347 26.3457 63.9443C26.5374 63.5697 26.638 63.1441 26.4736 62.6543C26.4805 62.6748 26.4596 62.6236 26.3418 62.4814C26.2413 62.3601 26.1053 62.214 25.9512 62.0586C25.6426 61.7475 25.2848 61.4232 25.043 61.2256C24.8731 61.0864 24.8197 60.8589 24.8926 60.6641ZM27.1094 59.1533C26.9936 59.2835 26.8716 59.4077 26.7441 59.5264C26.8282 59.5573 26.8983 59.6008 26.9355 59.625C26.998 59.6656 27.0659 59.7155 27.1338 59.7695C27.2704 59.8784 27.431 60.0218 27.5967 60.1826C27.9244 60.5008 28.3024 60.9194 28.5586 61.3213C28.7772 61.6644 28.894 62.0069 28.9746 62.3096C29.0141 62.4578 29.0468 62.606 29.0762 62.7314C29.1068 62.862 29.1349 62.9733 29.167 63.0742C29.1949 63.1619 29.287 63.2892 29.4854 63.4785C29.5798 63.5686 29.6757 63.6527 29.7842 63.751C29.8864 63.8436 29.9987 63.9479 30.0967 64.0566L30.1699 64.1377L30.2031 64.2432C30.2438 64.3738 30.279 64.4981 30.3096 64.6064C30.341 64.7177 30.3663 64.8091 30.3916 64.8877C30.4131 64.9546 30.4317 64.9993 30.4453 65.0293C30.5292 65.0769 30.6773 65.1671 30.7959 65.2842C30.9922 65.4782 30.9936 65.7958 30.7998 65.9922C30.6057 66.1883 30.2891 66.19 30.0928 65.9961C30.0687 65.9723 30.0434 65.954 30.0098 65.9336C29.9909 65.9222 29.9721 65.911 29.9443 65.8955C29.9195 65.8816 29.8836 65.8615 29.8477 65.8389L29.8252 65.8252L29.8047 65.8086C29.6824 65.7123 29.6064 65.5908 29.5586 65.4961C29.5092 65.3982 29.471 65.2916 29.4395 65.1934C29.4076 65.0941 29.3767 64.9843 29.3467 64.8779C29.3255 64.8029 29.3023 64.727 29.2793 64.6494C29.2316 64.602 29.1769 64.5498 29.1133 64.4922C29.0197 64.4074 28.9019 64.3042 28.7949 64.2021C28.5907 64.0072 28.3256 63.7287 28.2139 63.3779C28.169 63.2371 28.1337 63.093 28.1025 62.96C28.0702 62.8219 28.0423 62.6967 28.0078 62.5674C27.9405 62.3145 27.8575 62.0807 27.7158 61.8584C27.5183 61.5485 27.2007 61.191 26.9004 60.8994C26.7524 60.7558 26.6162 60.6357 26.5107 60.5518C26.4576 60.5094 26.4169 60.4809 26.3906 60.4639C26.3689 60.4498 26.3658 60.4481 26.376 60.4531C26.2086 60.3865 26.0928 60.2371 26.0664 60.0654C25.8984 60.1785 25.7234 60.2817 25.543 60.376C25.5896 60.3945 25.6348 60.4187 25.6758 60.4521C25.9471 60.6738 26.3307 61.0204 26.6611 61.3535C26.8264 61.5202 26.9854 61.6906 27.1123 61.8438C27.2219 61.9761 27.362 62.1579 27.4219 62.3359C27.6967 63.1551 27.5094 63.8654 27.2363 64.3994C27.1014 64.6631 26.9433 64.8882 26.8086 65.0664C26.6545 65.2702 26.5761 65.3589 26.5156 65.4482C26.4751 65.5084 26.4367 65.6273 26.4395 65.8311C26.4422 66.029 26.4837 66.2601 26.5479 66.4971C26.6449 66.8554 26.9183 67.1506 27.3115 67.5449L27.5918 67.8613C27.6511 67.9282 27.7244 68.0001 27.8057 68.082C31.388 66.6559 34.1861 63.6833 35.376 59.9883C35.3052 60.0927 35.1959 60.1712 35.0625 60.1982C34.8648 60.2383 34.8293 60.2645 34.6113 60.3369L34.6035 60.3398L34.5967 60.3418C34.0999 60.4894 33.4268 60.563 32.8096 60.5371L32.7441 60.5342L32.6816 60.5146C32.3124 60.3993 32.018 60.1469 31.8389 60.0117C31.6318 59.8556 31.5014 59.7838 31.3496 59.7705C30.7863 59.7213 30.026 59.6135 29.2822 59.5C29.4315 59.6373 29.5266 59.8105 29.5898 59.959C29.6573 60.1175 29.7072 60.2911 29.748 60.4521C29.8395 60.813 29.8826 61.0789 29.9648 61.3262C29.9863 61.3906 30.0445 61.4824 30.1709 61.5947C30.295 61.705 30.46 61.8137 30.6514 61.916C31.0354 62.1213 31.4627 62.2707 31.7373 62.3662C31.9732 62.4484 32.1423 62.6229 32.2432 62.7822C32.3722 62.9861 32.4009 63.2086 32.4141 63.3896C32.4276 63.5765 32.4268 63.807 32.4268 64.0166C32.4266 64.2925 32.2026 64.5164 31.9268 64.5166C31.651 64.5163 31.4269 64.2924 31.4268 64.0166C31.4268 63.7943 31.4274 63.6046 31.417 63.4619C31.4119 63.3917 31.4051 63.3517 31.3994 63.3281C31.3946 63.3079 31.392 63.3088 31.3975 63.3174C31.3947 63.313 31.3916 63.3082 31.3887 63.3047L31.3877 63.3037C31.1131 63.2082 30.6298 63.0385 30.1797 62.7979C29.9483 62.6741 29.71 62.5232 29.5068 62.3428C29.3059 62.1643 29.1123 61.9329 29.0156 61.6426C28.9207 61.3573 28.8425 60.9477 28.7793 60.6982C28.7428 60.5544 28.7074 60.4386 28.6699 60.3506C28.6343 60.267 28.6089 60.2392 28.6064 60.2363C28.5099 60.1515 28.3349 60.0494 28.1211 59.9561C27.9126 59.8651 27.71 59.8009 27.5859 59.7744C27.3159 59.7167 27.1436 59.4507 27.2012 59.1807C27.2021 59.1764 27.2031 59.1722 27.2041 59.168C27.1713 59.1627 27.1396 59.1581 27.1094 59.1533ZM19.0635 59.3389C19.0167 59.5189 18.8723 59.6663 18.6777 59.7051C18.4484 59.751 17.9838 59.9221 17.499 60.1592C17.0058 60.4004 16.5922 60.6621 16.415 60.8506C16.3258 60.9458 16.2562 61.0894 16.2129 61.2939C16.1695 61.499 16.1586 61.7346 16.1621 61.9824C16.1638 62.1049 16.1686 62.2251 16.1738 62.3438C16.1789 62.459 16.1842 62.5785 16.1855 62.6855C16.1868 62.7895 16.1848 62.9076 16.168 63.0166C16.1545 63.1037 16.1174 63.2984 15.9609 63.4473L15.9111 63.4951L15.8506 63.5264C15.5211 63.7012 15.1253 63.8469 14.7256 63.9639C14.9626 63.969 15.236 63.9703 15.4482 63.9629C15.6303 63.9416 15.8141 63.9271 15.9678 63.9131C16.1407 63.8973 16.2886 63.8801 16.4219 63.8525C16.6769 63.7997 16.8519 63.7135 16.9932 63.5439C17.0241 63.5065 17.0808 63.3865 17.1396 63.1104C17.1964 62.8439 17.2339 62.5548 17.2949 62.2012C17.3523 61.8689 17.428 61.5008 17.5547 61.167C17.6808 60.8349 17.8749 60.4894 18.2002 60.25C18.6283 59.9352 19.0339 59.7067 19.3311 59.5967C19.2388 59.514 19.15 59.4276 19.0635 59.3389ZM18.0928 57.9844C18.0294 58.0928 17.9265 58.1778 17.7959 58.2139C17.1792 58.3836 15.41 59.151 14.1719 60.1729C14.0616 60.2638 13.9594 60.3544 13.8584 60.4443C13.7599 60.5322 13.6572 60.624 13.5566 60.709C13.3537 60.8803 13.1254 61.0519 12.8447 61.1699C12.4013 61.3562 11.9159 61.3745 11.541 61.3408C11.3855 61.3268 11.2406 61.3006 11.1133 61.2715C11.4103 61.9402 11.7622 62.579 12.1631 63.1826C12.2781 63.1508 12.4045 63.1584 12.5195 63.2158C12.565 63.2386 12.5799 63.2458 12.6035 63.2529C12.6287 63.2605 12.6786 63.2709 12.7744 63.2803C13.0549 63.2883 13.5148 63.2345 14.0176 63.1182C14.4364 63.0212 14.8507 62.8857 15.1846 62.7354C15.1846 62.7238 15.1867 62.7114 15.1865 62.6982C15.1855 62.6109 15.1802 62.5095 15.1748 62.3877C15.1696 62.2693 15.1641 62.1354 15.1621 61.9961C15.1583 61.7199 15.1682 61.3982 15.2344 61.0859C15.3006 60.7736 15.43 60.4381 15.6865 60.165C15.9983 59.8334 16.5579 59.5066 17.0605 59.2607C17.5712 59.0111 18.1268 58.7956 18.4824 58.7246C18.5018 58.7207 18.5218 58.7203 18.541 58.7188C18.3733 58.4868 18.2232 58.2415 18.0928 57.9844ZM20.0898 60.166C20.0427 60.3329 19.9125 60.4714 19.7324 60.5166C19.6216 60.5443 19.2692 60.7045 18.793 61.0547C18.7415 61.0925 18.6912 61.1459 18.6426 61.2168C18.7584 61.1779 18.8807 61.1416 19.0029 61.1094C19.3346 61.022 19.7427 60.9378 20.1885 60.8594C20.51 60.8029 20.8549 60.7499 21.21 60.7002C20.8141 60.564 20.439 60.3842 20.0898 60.166ZM21 43.1523C14.7698 44.1143 10 49.5004 10 56C10 57.2215 10.1684 58.4036 10.4834 59.5244C10.4914 59.5109 10.5011 59.4987 10.5088 59.4834C10.6333 59.2373 10.9334 59.1385 11.1797 59.2627C11.4259 59.387 11.5252 59.6872 11.4014 59.9336C11.3518 60.0317 11.2995 60.1099 11.2744 60.1494C11.2726 60.1522 11.2701 60.1548 11.2686 60.1572C11.2662 60.2067 11.2691 60.2494 11.2764 60.2842C11.2782 60.2847 11.2803 60.2856 11.2822 60.2861C11.3718 60.3097 11.4928 60.3323 11.6309 60.3447C11.9154 60.3703 12.2192 60.3479 12.457 60.248C12.5995 60.1881 12.7369 60.0924 12.9111 59.9453C12.9989 59.8712 13.0887 59.7906 13.1934 59.6973C13.2959 59.6059 13.4095 59.5051 13.5352 59.4014C14.8934 58.2803 16.7927 57.4521 17.5303 57.249C17.6169 57.2252 17.704 57.2283 17.7852 57.249C17.7231 57.064 17.6702 56.8748 17.6279 56.6816C17.6247 56.6835 17.6224 56.6867 17.6191 56.6885C17.5313 56.7363 17.3605 56.8613 17.1299 57.0361C16.9191 57.196 16.6712 57.3869 16.4746 57.5205C16.0654 57.7985 15.4948 58.0172 14.8955 58.2363C14.5264 58.3713 14.1718 58.2837 13.9033 58.1748C13.6886 58.0876 13.4674 57.9589 13.2773 57.8477C12.8131 57.8587 12.5225 57.9025 12.3262 57.959C12.1266 58.0164 12.0089 58.0898 11.8867 58.1846L11.8711 58.1963C11.8023 58.2457 11.8058 58.2403 11.7842 58.2607C11.7668 58.2772 11.7262 58.3197 11.6582 58.4258C11.5092 58.658 11.2001 58.7249 10.9678 58.5762C10.7353 58.4271 10.6674 58.1182 10.8164 57.8857C10.8524 57.8296 10.8886 57.7801 10.9229 57.7344C10.8849 57.7319 10.8466 57.7265 10.8086 57.7148C10.5446 57.6337 10.3964 57.3538 10.4775 57.0898C10.56 56.8215 10.6013 56.6607 10.6738 56.5166C10.7475 56.3705 10.847 56.2418 10.9297 56.1455L10.9521 56.1191L10.9785 56.0957C11.1897 55.9097 11.4351 55.7854 11.6611 55.6826C11.9106 55.5693 12.1127 55.4911 12.373 55.3633C12.5866 55.2583 12.7457 55.1247 12.9375 54.9648C13.1112 54.8201 13.3564 54.6116 13.6797 54.5195C13.7174 54.5088 13.7608 54.497 13.8086 54.4844C13.3874 54.4175 13.0357 54.2329 12.7676 54.1123C12.4143 54.1558 12.1584 54.3006 11.8174 54.5225C11.8046 54.5418 11.7864 54.5738 11.7549 54.6367C11.6313 54.8836 11.3309 54.9838 11.084 54.8604C10.8371 54.7369 10.737 54.4364 10.8604 54.1895C10.9048 54.1005 10.9841 53.9346 11.1338 53.7861L11.1689 53.751L11.2109 53.7236C11.6289 53.4496 12.1016 53.1448 12.8223 53.1025L12.9346 53.0957L13.0391 53.1387C13.7174 53.4131 13.931 53.6026 14.3721 53.4736C14.9909 53.2926 16.3346 52.8517 17.3936 52.54C16.9214 52.5498 16.3161 52.5484 15.7939 52.499C15.4596 52.4674 15.1831 52.3492 14.9463 52.2207C14.8296 52.1574 14.7155 52.0876 14.6113 52.0234C14.5041 51.9573 14.4044 51.8961 14.2998 51.8369C14.1441 51.7489 13.9256 51.7343 13.6328 51.8047C13.3445 51.874 13.0625 52.0061 12.8232 52.1201C12.7848 52.1395 12.7517 52.1587 12.6904 52.1943C12.6339 52.2273 12.5558 52.2726 12.4619 52.3105C12.3711 52.3473 12.2762 52.3723 12.1992 52.3936C12.1157 52.4167 12.0189 52.4441 11.8887 52.4873C11.6268 52.574 11.3439 52.4317 11.2568 52.1699C11.1699 51.9078 11.3121 51.625 11.5742 51.5381C11.7292 51.4867 11.8455 51.4538 11.9326 51.4297C12.026 51.4039 12.06 51.3937 12.0869 51.3828C12.1109 51.3731 12.1384 51.3597 12.1875 51.3311C12.23 51.3063 12.3033 51.2617 12.3818 51.2227L12.3887 51.2188C12.6189 51.109 12.9923 50.9298 13.3984 50.832C13.8014 50.7351 14.3185 50.6982 14.792 50.9658C14.9166 51.0363 15.0339 51.1095 15.1367 51.1729C15.2425 51.2381 15.3339 51.2935 15.4229 51.3418C15.5977 51.4367 15.7396 51.4889 15.8877 51.5029C16.6623 51.5762 17.6672 51.5399 17.9863 51.5176C17.4461 51.3666 16.8736 51.1313 16.2295 50.7842C15.6515 50.4727 15.3358 50.0634 15.1504 49.75L15.1094 49.6807L15.0918 49.6016C14.9727 49.0512 14.9963 48.51 15.0352 48.2061C15.0447 48.0931 15.047 47.8636 15.1357 47.5635C15.1596 47.4829 15.203 47.4137 15.2578 47.3574C15.2132 47.3574 15.1676 47.3574 15.1211 47.3574C14.845 47.3574 14.6211 47.1335 14.6211 46.8574C14.6211 46.5813 14.845 46.3574 15.1211 46.3574C15.3798 46.3574 15.6537 46.357 15.8721 46.3701C16.0514 46.3809 16.2589 46.4026 16.4512 46.4883L16.5332 46.5283L16.5771 46.5537L16.6152 46.5869C16.7011 46.6616 16.7614 46.7572 16.792 46.8076C16.8306 46.8713 16.8707 46.9464 16.9092 47.0205C16.992 47.1801 17.0738 47.3482 17.1836 47.5527C17.3986 47.9534 17.6685 48.3926 18.0059 48.7295C18.1425 48.8658 18.4294 49.0522 18.7842 49.2344C19.1286 49.4112 19.4823 49.5564 19.7148 49.627C19.7765 49.6457 19.8313 49.6761 19.8789 49.7139C19.848 49.6585 19.8177 49.6027 19.7871 49.5469C19.3382 49.0913 18.8639 48.5965 18.4424 48.1523C17.831 47.5081 17.3396 46.9825 17.1689 46.8115C17.165 46.8085 17.1528 46.8001 17.123 46.7812C17.1033 46.7688 17.0659 46.7459 17.0293 46.7188C16.9911 46.6904 16.9413 46.6492 16.8936 46.5928C16.7416 46.4129 16.6432 46.1236 16.7656 45.8301C16.8206 45.6986 16.9096 45.6032 16.9473 45.5625C17.0017 45.5037 17.0194 45.4873 17.0439 45.4561C17.0684 45.4249 17.2136 45.1884 17.4492 44.9512C17.6438 44.7554 17.9604 44.7548 18.1562 44.9492C18.352 45.1438 18.3536 45.4603 18.1592 45.6562C17.9695 45.8472 17.9719 45.8905 17.833 46.0684C17.8469 46.0806 17.8632 46.0917 17.877 46.1055C18.0081 46.2369 18.3091 46.5576 18.6895 46.96C18.6787 46.8997 18.6699 46.8402 18.665 46.7822C18.6549 46.6603 18.6565 46.5081 18.7061 46.3594C18.8231 46.0084 19.052 45.7636 19.1963 45.6064C19.3376 45.4525 19.3914 45.3827 19.415 45.333C19.4186 45.2761 19.4191 45.2155 19.4131 45.1602C19.4109 45.1398 19.4103 45.1307 19.3994 45.1016C19.3835 45.0587 19.3488 44.9816 19.2695 44.834C19.1393 44.5909 19.2308 44.2879 19.4736 44.1572C19.7169 44.0267 20.0207 44.1181 20.1514 44.3613C20.3264 44.6875 20.3851 44.8486 20.4072 45.0508C20.4228 45.1934 20.4235 45.3476 20.4072 45.4912L20.4023 45.5293L20.3926 45.5674C20.3009 45.9013 20.0586 46.145 19.9326 46.2822C19.7844 46.4437 19.7028 46.5445 19.6602 46.6611C19.6601 46.6686 19.6606 46.6811 19.6621 46.6992C19.6665 46.7516 19.6798 46.8271 19.7061 46.9277C19.7588 47.1295 19.8528 47.3895 19.9814 47.6895C20.1482 48.0783 20.3659 48.5137 20.6006 48.9482C20.7377 49.0868 20.8717 49.2205 21 49.3467V43.1523ZM25 55C25 56.1046 24.1046 57 23 57C21.8954 57 21 56.1046 21 55V51.4678C19.5183 52.2041 18.5 53.7331 18.5 55.5C18.5 57.9853 20.5147 60 23 60C25.4853 60 27.5 57.9853 27.5 55.5C27.5 53.7331 26.4817 52.2041 25 51.4678V55ZM35.8789 57.3037C35.4737 57.4923 34.8598 57.7399 34.0332 57.7842C33.8354 57.7947 33.5494 57.7663 33.2012 57.7051C33.1543 57.7835 33.0867 57.8512 32.999 57.8955C32.9244 57.9332 32.9037 57.9558 32.7949 58.0508L32.7324 58.1064L32.6543 58.1377C31.8644 58.4579 30.8516 58.3941 30.1377 58.3486L30.1055 58.3457L30.0732 58.3398C29.7036 58.2671 29.2918 58.1703 28.9229 58.082C28.5472 57.9921 28.2237 57.9129 28.0107 57.8682C27.9968 57.8652 27.9841 57.8585 27.9707 57.8545C27.9074 57.9879 27.8381 58.1179 27.7646 58.2451C28.812 58.4165 30.4476 58.6879 31.4375 58.7744C31.8898 58.814 32.214 59.0424 32.4414 59.2139C32.6682 59.385 32.7914 59.4836 32.9277 59.5391C33.4305 59.5521 33.9526 59.4877 34.3076 59.3828C34.4438 59.3367 34.5952 59.2732 34.8643 59.2188C35.1347 59.1642 35.3982 59.3391 35.4531 59.6094C35.4598 59.6425 35.4618 59.6755 35.4619 59.708C35.6944 58.9254 35.855 58.1121 35.9365 57.2754L35.8789 57.3037ZM28.4736 56.0322C28.4447 56.3337 28.3911 56.6278 28.3154 56.9131C28.5406 56.9629 28.8424 57.0345 29.1553 57.1094C29.5139 57.1952 29.8974 57.2847 30.2383 57.3525C30.7644 57.3856 31.2857 57.4049 31.7324 57.3438C31.3347 57.2236 30.8982 57.0779 30.4326 56.9004C29.8128 56.6641 29.36 56.4791 29.0479 56.3389C28.8925 56.2691 28.7662 56.2077 28.6689 56.1553C28.6129 56.125 28.5405 56.0828 28.4736 56.0322ZM17.5049 55.2705C17.1425 55.2808 16.6705 55.3126 16.2324 55.3721C15.9864 55.4055 15.7604 55.4477 15.5752 55.4941C15.5547 55.6636 15.4773 55.8357 15.3184 55.9658C15.1136 56.133 14.8555 56.1606 14.7061 56.1602C14.6206 56.1599 14.5133 56.1492 14.4141 56.1201C14.374 56.1083 14.2756 56.0774 14.1846 56.001C14.1354 55.9596 14.0581 55.8802 14.0186 55.7539C13.9871 55.6532 13.9901 55.5534 14.0137 55.4648C13.9947 55.47 13.9738 55.4756 13.9531 55.4814C13.8644 55.5068 13.7732 55.5691 13.5771 55.7324C13.3988 55.881 13.1515 56.0946 12.8135 56.2607C12.5454 56.3924 12.2586 56.5095 12.0752 56.5928C11.8861 56.6787 11.7584 56.7495 11.665 56.8252C11.6189 56.8814 11.586 56.9301 11.5674 56.9668C11.5481 57.0051 11.5404 57.0304 11.4717 57.2549C11.6264 57.1566 11.8098 57.0671 12.0498 56.998C12.3856 56.9015 12.8123 56.8503 13.4004 56.8447L13.5371 56.8428L13.6562 56.9111C13.9124 57.0593 14.1001 57.1752 14.2793 57.248C14.4528 57.3184 14.5236 57.3072 14.5518 57.2969C15.1767 57.0684 15.6238 56.8892 15.9121 56.6934C16.0808 56.5788 16.2984 56.4113 16.5254 56.2393C16.7323 56.0824 16.9723 55.9017 17.1416 55.8096C17.2576 55.7465 17.3873 55.7349 17.5059 55.7656C17.5017 55.6776 17.5 55.589 17.5 55.5C17.5 55.4231 17.5018 55.3466 17.5049 55.2705ZM35.9844 55.3682C35.9167 55.3909 35.8639 55.4127 35.8125 55.4355L35.8096 55.4365C35.6817 55.4926 35.5498 55.5466 35.4248 55.5977C35.2976 55.6496 35.1772 55.6989 35.0625 55.749C34.8415 55.8456 34.6763 55.9319 34.5645 56.0146C34.2982 56.2977 34.0441 56.5785 33.8721 56.7822C33.9161 56.7845 33.9519 56.7866 33.9795 56.7852C34.5749 56.7532 35.0294 56.5863 35.3701 56.4336C35.4283 56.3708 35.4824 56.3122 35.5303 56.2568C35.4917 56.0169 35.6316 55.7785 35.8701 55.7021L35.9961 55.6729C35.9936 55.571 35.9892 55.4694 35.9844 55.3682ZM25 44.4668C25.0987 44.6185 25.1131 44.818 25.0176 44.9863C25.0108 44.9983 25.0052 45.0091 25 45.0186V45.0635C25.053 45.1609 25.1641 45.3115 25.3838 45.5146C25.763 45.8506 26.358 46.2531 26.5361 47.2822C26.6452 47.9134 26.56 48.5976 26.4248 49.1533C26.2919 49.6996 26.0915 50.2007 25.9131 50.46C25.8398 50.5663 25.7318 50.6326 25.6152 50.6602C25.7443 50.7301 25.8696 50.8061 25.9922 50.8857C25.9916 50.8096 26.0058 50.732 26.042 50.6592C26.078 50.587 26.1432 50.4919 26.1855 50.4287C26.2397 50.3479 26.3049 50.2495 26.3779 50.1309C26.5237 49.8942 26.7002 49.5747 26.8584 49.1738C27.2024 48.3019 27.352 47.67 27.4639 47.1963C27.5185 46.9651 27.5707 46.7406 27.6367 46.5518C27.7048 46.357 27.8017 46.156 27.9697 45.9873L28.0664 45.8896L28.2002 45.8555C28.431 45.7965 28.6516 45.8072 28.8486 45.8477L29.0381 45.8965L29.0508 45.9014L29.0635 45.9053C29.1873 45.9515 29.3052 46.011 29.3965 46.0566C29.6433 46.1801 29.7434 46.4807 29.6201 46.7275C29.4966 46.9745 29.1962 47.0746 28.9492 46.9512C28.8532 46.9032 28.7852 46.8707 28.7227 46.8467C28.6795 46.8339 28.6408 46.8253 28.6064 46.8203C28.599 46.8384 28.5892 46.8585 28.5811 46.8818C28.5361 47.0107 28.4962 47.1772 28.4375 47.4258C28.3225 47.9125 28.1599 48.5999 27.7891 49.54C27.6041 50.0089 27.3977 50.382 27.2295 50.6553C27.1457 50.7913 27.0718 50.903 27.0166 50.9854C26.9498 51.085 26.9356 51.1065 26.9365 51.1045C26.8705 51.2371 26.7534 51.3258 26.6211 51.3623C26.7021 51.4332 26.7808 51.5065 26.8574 51.582C26.964 51.4923 27.112 51.3615 27.2744 51.2119C27.2509 51.1157 27.2562 51.0113 27.2949 50.9121C27.4035 50.6346 27.5583 50.2688 27.7334 49.9355C27.8209 49.769 27.9183 49.6015 28.0215 49.4551C28.1204 49.3147 28.2448 49.1637 28.3945 49.0547C28.71 48.8249 29.1578 48.7259 29.5195 48.6602C29.9025 48.5905 30.2257 48.5503 30.5371 48.4834C30.9971 48.1736 31.2893 47.9457 31.4512 47.8164C31.4781 47.7932 31.4966 47.7767 31.5195 47.75C31.547 47.718 31.5873 47.6646 31.6523 47.5674C31.8058 47.3383 32.1163 47.2767 32.3457 47.4297C32.5752 47.5832 32.6368 47.8945 32.4834 48.124C32.3215 48.366 32.2225 48.4733 32.0977 48.5801L32.0918 48.585L32.085 48.5908C31.9012 48.7377 31.5592 49.0059 31.0137 49.3691L30.9385 49.4189L30.8506 49.4395C30.4895 49.5241 30.0238 49.5853 29.6982 49.6445C29.3167 49.7139 29.0897 49.7859 28.9834 49.8633C28.9768 49.8681 28.9676 49.8772 28.9551 49.8896C29.2113 49.7885 29.4646 49.7276 29.6924 49.7021L29.833 49.6865L29.96 49.7461C30.5859 50.0397 31.2372 50.4728 31.5361 50.6836C31.6719 50.7711 31.9334 50.9194 32.1865 51.1426C32.2664 51.2131 32.3174 51.304 32.3408 51.4004C32.47 51.3428 32.5693 51.2926 32.6475 51.252L32.6582 51.2461L32.6699 51.2412C32.8442 51.1616 32.9751 51.129 33.0771 51.1035C33.3449 51.0368 33.6157 51.2 33.6826 51.4678C33.7493 51.7355 33.5871 52.0073 33.3193 52.0742C33.2321 52.096 33.1762 52.1095 33.0938 52.1465C32.7649 52.3174 32.1731 52.6162 30.9639 52.8232L30.9199 52.8311L30.876 52.8301C29.19 52.8185 28.0441 52.7966 27.7881 52.7949C27.8269 52.8634 27.8645 52.9326 27.9004 53.0029C28.0209 52.8811 28.1999 52.8241 28.3779 52.8691C29.2569 53.0917 30.1711 53.3192 30.9385 53.4805C31.3223 53.5611 31.6622 53.6237 31.9385 53.6611C32.2287 53.7005 32.4033 53.7058 32.4805 53.6953C32.7414 53.6597 33.0181 53.5362 33.3086 53.3662C33.4514 53.2826 33.5892 53.193 33.7256 53.1035C33.8566 53.0175 33.9959 52.925 34.123 52.8516C34.1303 52.8474 34.139 52.8417 34.1846 52.8037C34.2165 52.7771 34.3045 52.7002 34.4209 52.6494L34.4941 52.6221C34.6502 52.5719 34.8656 52.5539 35.0654 52.6602L35.1641 52.7246L35.25 52.8047C35.3241 52.8879 35.3647 52.9761 35.3877 53.0342C35.4183 53.1117 35.4382 53.1933 35.4482 53.2334C35.5147 53.501 35.3516 53.7729 35.084 53.8398C34.9132 53.8823 34.7417 53.8297 34.6221 53.7178C34.5257 53.7735 34.4148 53.8473 34.2744 53.9395C34.1386 54.0286 33.9811 54.1314 33.8135 54.2295C33.4829 54.4229 33.0712 54.6234 32.6162 54.6855C32.3931 54.716 32.0998 54.6925 31.8037 54.6523C31.4934 54.6102 31.1271 54.5419 30.7324 54.459C29.979 54.3006 29.0956 54.0818 28.2539 53.8691C28.3842 54.2893 28.4647 54.7309 28.4902 55.1875C28.6826 55.0703 28.9361 55.0935 29.1025 55.2598C29.0678 55.2251 29.0575 55.228 29.1436 55.2744C29.2115 55.3111 29.3139 55.362 29.458 55.4268C29.7454 55.5559 30.1777 55.7331 30.7881 55.9658C31.5653 56.2621 32.2488 56.4655 32.793 56.5967C32.8068 56.5519 32.8253 56.5078 32.8525 56.4668C33.0213 56.213 33.4791 55.7083 33.8682 55.2959L33.8936 55.2686L33.9229 55.2461C34.1411 55.0741 34.4139 54.9414 34.6621 54.833C34.7898 54.7772 34.9221 54.7229 35.0469 54.6719C35.1737 54.62 35.2939 54.5706 35.4082 54.5205C35.5336 54.4648 35.6761 54.4093 35.8965 54.3535C35.1704 48.6087 30.6956 44.0318 25 43.1523V44.4668ZM17.9023 53.4346C16.8459 53.7373 15.3905 54.2177 14.6523 54.4336C14.6473 54.4351 14.6418 54.4351 14.6367 54.4365C14.6583 54.4416 14.6806 54.4457 14.7021 54.4521C14.8138 54.4858 14.939 54.5346 15.0596 54.6025C15.1298 54.5788 15.1997 54.5577 15.2656 54.54C15.5156 54.4731 15.8063 54.4204 16.0977 54.3809C16.6387 54.3074 17.2235 54.2715 17.6396 54.2666C17.7053 53.98 17.7938 53.7022 17.9023 53.4346ZM18.3857 51.6143C18.495 51.6963 18.5717 51.8211 18.585 51.9678C18.5961 52.093 18.5579 52.2103 18.4893 52.3047C18.4991 52.3071 18.5089 52.3095 18.5186 52.3125C18.67 52.0999 18.8361 51.8986 19.0156 51.71C18.8073 51.6904 18.5985 51.6584 18.3857 51.6143ZM29.668 50.7168C29.3486 50.7781 28.9829 50.9367 28.7061 51.2207C28.5268 51.4047 28.3155 51.6081 28.1123 51.7988C28.6151 51.8058 29.5897 51.8203 30.8379 51.8291C31.0123 51.7985 31.1707 51.7639 31.3154 51.7305C31.213 51.6602 31.1099 51.5991 30.9941 51.5244L30.9854 51.5186L30.9766 51.5117C30.7251 51.3334 30.188 50.977 29.668 50.7168ZM16.1123 47.6562C16.1184 47.7184 16.1135 47.7831 16.0947 47.8467C16.0425 48.0232 16.0447 48.1209 16.0303 48.291L16.0283 48.3164C16.0006 48.5196 15.982 48.9105 16.0537 49.3047C16.1767 49.4957 16.3671 49.7216 16.7041 49.9033C17.8281 50.5091 18.6429 50.7155 19.4414 50.7363C19.6213 50.7411 19.7752 50.8405 19.8594 50.9854C20.2117 50.7398 20.5942 50.5355 21 50.377V50.1504C20.9903 50.1578 20.9808 50.1653 20.9707 50.1719C20.9304 50.2318 20.8779 50.2851 20.8115 50.3242C20.5736 50.4642 20.2671 50.3853 20.127 50.1475C20.105 50.1102 20.0844 50.0719 20.0625 50.0342C20.0727 50.1047 20.0699 50.1783 20.0479 50.251C19.9676 50.5149 19.6888 50.6638 19.4248 50.584C19.1202 50.4915 18.7093 50.3202 18.3271 50.124C17.9554 49.9331 17.552 49.6891 17.2998 49.4375C16.8564 48.9949 16.5311 48.4509 16.3027 48.0254C16.2332 47.8958 16.1683 47.7664 16.1123 47.6562ZM25 50.377C25.0185 50.3842 25.0372 50.391 25.0557 50.3984C24.9775 50.2411 24.9826 50.0485 25.0889 49.8936C25.1675 49.7793 25.3325 49.4128 25.4531 48.917C25.5715 48.4305 25.6275 47.8958 25.5508 47.4521C25.4676 46.9719 25.2805 46.7564 25 46.5068V50.377ZM20 12.5C11.1634 12.5 4 19.6634 4 28.5V42.1436L4.02832 42.1279C9.31525 39.1476 15.1381 37.5436 21 37.3086V12.5H20ZM25 37.3604C30.54 37.7273 36.0136 39.3197 41 42.1328V28.5C41 19.6634 33.8366 12.5 25 12.5V37.3604Z" fill="#1F6FF1"/>
</svg>
