<svg width="90" height="65" viewBox="0 0 90 65" fill="none" xmlns="http://www.w3.org/2000/svg">
<path fill-rule="evenodd" clip-rule="evenodd" d="M46.5 8C47.6046 8 48.5 8.89543 48.5 10V13H70.5L70.8096 13.0039C77.2939 13.1681 82.5 18.4761 82.5 25V46C82.5 52.6274 77.1274 58 70.5 58H19.5C12.9761 58 7.66811 52.7939 7.50391 46.3096L7.5 46V25C7.5 18.4761 12.7061 13.1681 19.1904 13.0039L19.5 13H41.5V10C41.5 8.89543 42.3954 8 43.5 8H46.5ZM19.5 15C13.9772 15 9.5 19.4772 9.5 25V46C9.5 51.5228 13.9772 56 19.5 56H70.5C76.0228 56 80.5 51.5228 80.5 46V25C80.5 19.4772 76.0228 15 70.5 15H48.5V26L48.4893 26.2041C48.3938 27.1457 47.6457 27.8938 46.7041 27.9893L46.5 28H43.5L43.2959 27.9893C42.3543 27.8938 41.6062 27.1457 41.5107 26.2041L41.5 26V15H19.5ZM43.5 26H46.5V10H43.5V26Z" fill="#1F6FF1"/>
<path fill-rule="evenodd" clip-rule="evenodd" d="M78 0C84.6274 0 90 5.37258 90 12V53C90 59.5239 84.7939 64.8319 78.3096 64.9961L78 65H12L11.6904 64.9961C5.30896 64.8345 0.165501 59.691 0.00390625 53.3096L0 53V12C0 5.37258 5.37258 3.38235e-07 12 0H78ZM12 4C7.58172 4 4 7.58172 4 12V53C4 57.4183 7.58172 61 12 61H78C82.4183 61 86 57.4183 86 53V12C86 7.58172 82.4183 4 78 4H12Z" fill="#1F6FF1"/>
</svg>
