<svg width="250" height="250" viewBox="0 0 250 250" fill="none" xmlns="http://www.w3.org/2000/svg">
<rect x="2.5" y="2.5" width="245" height="245" rx="57.5" fill="url(#paint0_linear_40_292)" stroke="#1F6FF1" stroke-width="5"/>
<g filter="url(#filter0_d_40_292)">
<path d="M69.5398 97.4488H58.9148C58.6117 95.7064 58.053 94.1629 57.2386 92.8182C56.4242 91.4545 55.411 90.2992 54.1989 89.3523C52.9867 88.4053 51.6042 87.6951 50.0511 87.2216C48.517 86.7291 46.8598 86.4829 45.0795 86.4829C41.9167 86.4829 39.1136 87.2784 36.6704 88.8693C34.2273 90.4413 32.3144 92.7519 30.9318 95.8011C29.5492 98.8314 28.8579 102.534 28.8579 106.909C28.8579 111.36 29.5492 115.11 30.9318 118.159C32.3333 121.189 34.2462 123.481 36.6704 125.034C39.1136 126.568 41.9072 127.335 45.0511 127.335C46.7936 127.335 48.4223 127.108 49.9375 126.653C51.4716 126.18 52.8447 125.489 54.0568 124.58C55.2879 123.67 56.3201 122.553 57.1534 121.227C58.0057 119.901 58.5928 118.386 58.9148 116.682L69.5398 116.739C69.142 119.504 68.2803 122.098 66.9545 124.523C65.6477 126.947 63.9337 129.087 61.8125 130.943C59.6913 132.78 57.2102 134.22 54.3693 135.261C51.5284 136.284 48.375 136.795 44.9091 136.795C39.7954 136.795 35.2311 135.612 31.2159 133.244C27.2007 130.877 24.0379 127.458 21.7273 122.989C19.4167 118.519 18.2614 113.159 18.2614 106.909C18.2614 100.64 19.4261 95.2803 21.7557 90.8295C24.0852 86.3598 27.2576 82.9413 31.2727 80.5738C35.2879 78.2064 39.8333 77.0227 44.9091 77.0227C48.1477 77.0227 51.1591 77.4773 53.9432 78.3863C56.7273 79.2954 59.2083 80.6307 61.3864 82.392C63.5644 84.1344 65.3542 86.2746 66.7557 88.8125C68.1761 91.3314 69.1042 94.2102 69.5398 97.4488Z" fill="#1F6FF1"/>
<path d="M89.0213 77.8182V136H78.7372V77.8182H89.0213Z" fill="#1F6FF1"/>
<path d="M118.915 136.852C114.54 136.852 110.761 135.943 107.58 134.125C104.417 132.288 101.983 129.693 100.278 126.341C98.5739 122.97 97.7216 119.002 97.7216 114.437C97.7216 109.949 98.5739 106.009 100.278 102.619C102.002 99.2102 104.407 96.5587 107.494 94.6647C110.581 92.7519 114.208 91.7954 118.375 91.7954C121.064 91.7954 123.602 92.231 125.989 93.1022C128.394 93.9545 130.515 95.2803 132.352 97.0795C134.208 98.8788 135.667 101.17 136.727 103.955C137.788 106.72 138.318 110.015 138.318 113.841V116.994H102.551V110.062H128.46C128.441 108.093 128.015 106.341 127.182 104.807C126.348 103.254 125.184 102.032 123.687 101.142C122.21 100.252 120.487 99.8068 118.517 99.8068C116.415 99.8068 114.568 100.318 112.977 101.341C111.386 102.345 110.146 103.67 109.256 105.318C108.384 106.947 107.939 108.737 107.92 110.687V116.739C107.92 119.276 108.384 121.455 109.312 123.273C110.241 125.072 111.538 126.455 113.205 127.42C114.871 128.367 116.822 128.841 119.057 128.841C120.553 128.841 121.907 128.633 123.119 128.216C124.331 127.78 125.383 127.146 126.273 126.312C127.163 125.479 127.835 124.447 128.29 123.216L137.892 124.295C137.286 126.833 136.131 129.049 134.426 130.943C132.741 132.818 130.581 134.276 127.949 135.318C125.316 136.341 122.305 136.852 118.915 136.852Z" fill="#1F6FF1"/>
<path d="M159.575 136.881C156.81 136.881 154.32 136.388 152.104 135.403C149.907 134.4 148.164 132.922 146.876 130.972C145.607 129.021 144.973 126.616 144.973 123.756C144.973 121.294 145.428 119.258 146.337 117.648C147.246 116.038 148.486 114.75 150.058 113.784C151.63 112.818 153.401 112.089 155.371 111.597C157.359 111.085 159.414 110.716 161.536 110.489C164.092 110.223 166.166 109.987 167.757 109.778C169.348 109.551 170.503 109.21 171.223 108.756C171.962 108.282 172.331 107.553 172.331 106.568V106.398C172.331 104.258 171.696 102.6 170.428 101.426C169.159 100.252 167.331 99.6648 164.945 99.6648C162.426 99.6648 160.428 100.214 158.95 101.312C157.492 102.411 156.507 103.708 155.996 105.205L146.393 103.841C147.151 101.189 148.401 98.9735 150.143 97.1932C151.886 95.3939 154.017 94.0492 156.536 93.1591C159.054 92.25 161.839 91.7954 164.888 91.7954C166.99 91.7954 169.083 92.0416 171.166 92.5341C173.25 93.0265 175.153 93.8409 176.876 94.9772C178.6 96.0947 179.982 97.6193 181.024 99.5511C182.085 101.483 182.615 103.898 182.615 106.795V136H172.729V130.006H172.388C171.763 131.218 170.882 132.354 169.746 133.415C168.628 134.456 167.217 135.299 165.513 135.943C163.827 136.568 161.848 136.881 159.575 136.881ZM162.246 129.324C164.31 129.324 166.1 128.917 167.615 128.102C169.13 127.269 170.295 126.17 171.109 124.807C171.943 123.443 172.359 121.956 172.359 120.347V115.205C172.037 115.47 171.488 115.716 170.712 115.943C169.954 116.17 169.102 116.369 168.155 116.54C167.208 116.71 166.27 116.862 165.342 116.994C164.414 117.127 163.609 117.241 162.928 117.335C161.393 117.544 160.02 117.884 158.808 118.358C157.596 118.831 156.64 119.494 155.939 120.347C155.238 121.18 154.888 122.259 154.888 123.585C154.888 125.479 155.579 126.909 156.962 127.875C158.344 128.841 160.106 129.324 162.246 129.324Z" fill="#1F6FF1"/>
<path d="M203.24 110.432V136H192.956V92.3636H202.786V99.7784H203.297C204.301 97.3352 205.901 95.3939 208.098 93.9545C210.314 92.5151 213.051 91.7954 216.308 91.7954C219.32 91.7954 221.943 92.4394 224.178 93.7272C226.431 95.0151 228.174 96.8807 229.405 99.3238C230.655 101.767 231.27 104.731 231.251 108.216V136H220.967V109.807C220.967 106.89 220.21 104.608 218.695 102.96C217.198 101.312 215.125 100.489 212.473 100.489C210.674 100.489 209.073 100.886 207.672 101.682C206.289 102.458 205.2 103.585 204.405 105.062C203.628 106.54 203.24 108.33 203.24 110.432Z" fill="#1F6FF1"/>
</g>
<path d="M104.173 195.234C111.684 209.997 128.951 216.935 144.589 211.474L145.899 211.016L148.208 217.625L146.896 218.082C127.952 224.698 107.034 216.292 97.9346 198.408L104.173 195.234Z" fill="#FEFFFF"/>
<path d="M172.75 169.814C177.948 188.296 169.291 207.865 152.119 216.451L148.988 210.19C163.157 203.105 170.301 186.958 166.012 171.708L165.185 168.768L171.923 166.873L172.75 169.814Z" fill="#FEFFFF"/>
<path d="M128.554 159.532C119.344 161.962 112.554 170.348 112.554 180.321C112.554 192.195 122.18 201.821 134.054 201.821C145.928 201.821 155.554 192.195 155.554 180.321C155.554 170.712 149.25 162.577 140.554 159.822V152.565C153.162 155.506 162.554 166.817 162.554 180.321C162.554 196.061 149.794 208.821 134.054 208.821C118.314 208.821 105.554 196.061 105.554 180.321C105.554 166.462 115.446 154.916 128.554 152.353V159.532Z" fill="#FEFFFF"/>
<path d="M118.032 150.708L115.315 152.57C102.407 161.414 97.2418 177.954 102.823 192.573L96.2842 195.069C89.5488 177.427 95.781 157.469 111.358 146.795L114.075 144.933L118.032 150.708Z" fill="#FEFFFF"/>
<path d="M138.554 172.321H130.554V147.321H138.554V172.321Z" fill="#FEFFFF"/>
<path d="M187.843 123.574C174.151 129 166.401 143.54 169.529 157.931L170.974 164.577L164.134 166.064L162.688 159.418C158.832 141.678 168.387 123.754 185.265 117.067L187.843 123.574Z" fill="#FEFFFF"/>
<path d="M139.622 105.274C144.617 122.626 136.688 141.095 120.668 149.426L117.439 143.215C130.503 136.421 136.969 121.361 132.896 107.21L131.19 101.288L137.917 99.3528L139.622 105.274Z" fill="#FEFFFF"/>
<path d="M113.053 57.9759C123.291 68.4832 131.179 81.0472 136.192 94.8343L136.843 96.6243L130.265 99.0169L129.613 97.2268C124.939 84.3723 117.585 72.6573 108.04 62.8606L104.047 58.763L109.061 53.8782L113.053 57.9759Z" fill="#FEFFFF"/>
<path d="M83.3555 29.0081C91.8146 28.878 100.225 30.3189 108.158 33.2571C109.734 33.8406 111.262 34.5457 112.728 35.3665L116.877 37.6907C121.495 40.2771 125.558 43.7511 128.828 47.9134C129.643 48.9508 130.337 50.0792 130.895 51.2747L132.266 54.2112C133.362 56.5601 134.151 59.0409 134.615 61.5911L134.722 62.177C134.955 63.4593 135.034 64.7657 134.957 66.0667L134.784 69.0022C134.567 72.6932 132.5 76.0252 129.29 77.8597L125.817 71.7815C126.974 71.1206 127.719 69.9206 127.797 68.5911L127.969 65.6556C128.013 64.9109 127.967 64.1629 127.834 63.429L127.728 62.844C127.371 60.884 126.764 58.9774 125.922 57.1722L124.552 54.2347C124.22 53.5247 123.808 52.8547 123.324 52.2386C120.624 48.8021 117.27 45.9335 113.457 43.7981L109.308 41.4739C108.159 40.8308 106.962 40.2778 105.728 39.8206C98.6062 37.1831 91.057 35.8903 83.4639 36.0071L77.959 36.0911C79.4318 37.7871 80.6309 39.7456 81.4766 41.9065L82.3135 44.0452L82.3555 44.1546L82.3916 44.2669L85.3359 53.5931L89.5957 63.4085C93.4248 72.2321 102.012 78.0436 111.625 78.3206H112.522C114.555 78.3206 116.553 77.79 118.317 76.7815L121.79 82.8597C118.968 84.4724 115.773 85.3206 112.522 85.3206H111.505L111.456 85.3196C99.1156 84.9766 88.0895 77.5204 83.1748 66.1956L78.8428 56.2141L78.7705 56.0472L75.751 46.4876L74.957 44.4573C73.2077 39.9871 69.1354 36.8536 64.377 36.3001L63.1074 36.3206L63 29.3206L83.3555 29.0081Z" fill="#FEFFFF"/>
<defs>
<filter id="filter0_d_40_292" x="15.2614" y="77.0227" width="222.99" height="69.8579" filterUnits="userSpaceOnUse" color-interpolation-filters="sRGB">
<feFlood flood-opacity="0" result="BackgroundImageFix"/>
<feColorMatrix in="SourceAlpha" type="matrix" values="0 0 0 0 0 0 0 0 0 0 0 0 0 0 0 0 0 0 127 0" result="hardAlpha"/>
<feOffset dx="2" dy="5"/>
<feGaussianBlur stdDeviation="2.5"/>
<feComposite in2="hardAlpha" operator="out"/>
<feColorMatrix type="matrix" values="0 0 0 0 0 0 0 0 0 0 0 0 0 0 0 0 0 0 0.25 0"/>
<feBlend mode="normal" in2="BackgroundImageFix" result="effect1_dropShadow_40_292"/>
<feBlend mode="normal" in="SourceGraphic" in2="effect1_dropShadow_40_292" result="shape"/>
</filter>
<linearGradient id="paint0_linear_40_292" x1="125" y1="0" x2="125" y2="250" gradientUnits="userSpaceOnUse">
<stop stop-color="#80CABB"/>
<stop offset="1" stop-color="#9CC737"/>
</linearGradient>
</defs>
</svg>
