<svg width="65" height="80" viewBox="0 0 65 80" fill="none" xmlns="http://www.w3.org/2000/svg">
<path fill-rule="evenodd" clip-rule="evenodd" d="M48 5C54.5239 5 59.8319 10.2061 59.9961 16.6904L60 17V63L59.9961 63.3096C59.8319 69.7939 54.5239 75 48 75H26C19.3726 75 14 69.6274 14 63V43.5H8C6.89543 43.5 6 42.6046 6 41.5V38.5C6 37.3954 6.89543 36.5 8 36.5H14V17C14 10.3726 19.3726 5 26 5H48ZM26 7C20.6498 7 16.2805 11.2017 16.0127 16.4854L16 17V36.5H34C35.0357 36.5 35.887 37.2872 35.9893 38.2959L36 38.5V41.5L35.9893 41.7041C35.8938 42.6457 35.1457 43.3938 34.2041 43.4893L34 43.5H16V63C16 68.5228 20.4772 73 26 73H48C53.5228 73 58 68.5228 58 63V17C58 11.4772 53.5228 7 48 7H26ZM8 41.5H34V38.5H8V41.5Z" fill="#1F6FF1"/>
<path fill-rule="evenodd" clip-rule="evenodd" d="M65 68L64.9961 68.3096C64.8345 74.691 59.691 79.8345 53.3096 79.9961L53 80H12C5.37258 80 2.57703e-07 74.6274 0 68V12C0 5.37258 5.37258 1.36909e-07 12 0H53C59.5239 0 64.8319 5.20608 64.9961 11.6904L65 12V68ZM61 12C61 7.58172 57.4183 4 53 4H12C7.58172 4 4 7.58172 4 12V68C4 72.4183 7.58172 76 12 76H53C57.4183 76 61 72.4183 61 68V12Z" fill="#1F6FF1"/>
</svg>
