<svg width="126" height="90" viewBox="0 0 126 90" fill="none" xmlns="http://www.w3.org/2000/svg">
<path d="M48.1924 85.9951C47.962 85.9982 47.7312 86 47.5 86C47.7312 86 47.962 85.9981 48.1924 85.9951ZM92.5 5C92.5667 5 92.6359 5.00591 92.708 5.01465C92.7415 5.01884 92.7758 5.02295 92.8105 5.0293C92.8439 5.03526 92.8776 5.0427 92.9121 5.05078C92.9353 5.05627 92.9588 5.06188 92.9824 5.06836C93.0228 5.07934 93.0636 5.09235 93.1055 5.10645C93.1194 5.11113 93.1334 5.11606 93.1475 5.12109C93.1921 5.13709 93.2378 5.15405 93.2842 5.17383C93.3069 5.18345 93.3294 5.19454 93.3525 5.20508C93.599 5.31853 93.8698 5.48529 94.165 5.72656L94.3184 5.85156C94.7489 6.22919 95.2198 6.75691 95.7236 7.48145C97.0468 9.38432 98.3188 12.269 99.4199 16.0127C101.614 23.4739 103 33.8998 103 45.5C103 57.1002 101.614 67.5261 99.4199 74.9873C98.3188 78.731 97.0468 81.6157 95.7236 83.5186C95.469 83.8847 95.2221 84.2 94.9854 84.4717L94.8271 84.6436C94.4398 85.0632 94.0832 85.3615 93.7598 85.5703C93.3916 85.8061 93.0625 85.9287 92.7764 85.9756C92.7489 85.98 92.7219 85.9833 92.6953 85.9863C92.6274 85.9943 92.5625 86 92.5 86C92.4411 86 92.3621 85.9943 92.251 85.9785L92.1816 85.9688C91.4559 85.8332 90.4568 85.2161 89.2764 83.5186C87.9532 81.6157 86.6812 78.731 85.5801 74.9873C85.3914 74.3458 85.2095 73.6822 85.0332 72.998C84.7613 71.9429 84.5035 70.8372 84.2627 69.6846L84.0205 68.4775C83.1602 64.0396 82.5378 58.9832 82.2266 53.5293C82.2223 53.4542 82.218 53.379 82.2139 53.3037C82.1992 53.0387 82.1851 52.7727 82.1719 52.5059C82.1667 52.4009 82.1622 52.2957 82.1572 52.1904C82.1455 51.9422 82.1345 51.6931 82.124 51.4434C82.1179 51.2958 82.1122 51.148 82.1064 51C82.0967 50.7472 82.0875 50.4936 82.0791 50.2393C82.0768 50.1687 82.0735 50.098 82.0713 50.0273C82.0609 49.6975 82.0521 49.3664 82.0439 49.0342C82.0427 48.9854 82.0412 48.9366 82.04 48.8877C82.032 48.5455 82.0251 48.202 82.0195 47.8574C82.0068 47.0772 82 46.2912 82 45.5C82 45.0408 82.0025 44.5835 82.0068 44.1279C82.0104 43.7539 82.0151 43.3811 82.0215 43.0098C82.0235 42.8954 82.0261 42.7811 82.0283 42.667C82.033 42.4268 82.038 42.1872 82.0439 41.9482C82.0572 41.4137 82.0737 40.8821 82.0928 40.3535C82.1044 40.0294 82.117 39.7064 82.1309 39.3848C82.1686 38.5096 82.2143 37.6435 82.2676 36.7871L82.3477 35.5898C82.6856 30.8521 83.2599 26.445 84.0205 22.5215C84.3303 20.9237 84.6702 19.4087 85.0371 17.9863C85.2122 17.3077 85.3928 16.6493 85.5801 16.0127C86.6812 12.269 87.9532 9.38432 89.2764 7.48145C90.3962 5.87104 91.3525 5.2318 92.0674 5.05469C92.1031 5.04582 92.1384 5.03885 92.1729 5.03223C92.1863 5.02965 92.1996 5.02667 92.2129 5.02441C92.2503 5.01805 92.2871 5.01362 92.3232 5.00977C92.3364 5.00836 92.3494 5.00597 92.3623 5.00488C92.4092 5.00096 92.4551 5 92.5 5ZM48.8516 85.9814C48.6348 85.9871 48.4177 85.9912 48.2002 85.9941C48.4177 85.9912 48.6349 85.987 48.8516 85.9814ZM49.4717 85.9619C49.3377 85.967 49.2036 85.9706 49.0693 85.9746C49.2036 85.9706 49.3377 85.9669 49.4717 85.9619ZM50.0557 85.9365C50.0394 85.9373 50.0231 85.9377 50.0068 85.9385C50.0231 85.9377 50.0394 85.9373 50.0557 85.9365ZM50.7666 85.8965C50.6934 85.9011 50.6202 85.9058 50.5469 85.9102C50.6202 85.9059 50.6934 85.9011 50.7666 85.8965ZM38.6514 85.2344C39.1549 85.3225 39.6613 85.4033 40.1709 85.4766C39.6613 85.4033 39.1549 85.3225 38.6514 85.2344ZM33.2725 83.9824C33.5993 84.078 33.9277 84.1706 34.2578 84.2598C33.9277 84.1706 33.5993 84.078 33.2725 83.9824ZM28.9316 82.4883C29.4343 82.6885 29.9418 82.8811 30.4541 83.0654C29.9418 82.8811 29.4343 82.6885 28.9316 82.4883ZM27.0244 81.6797C27.2945 81.8011 27.5656 81.9213 27.8389 82.0381C27.5656 81.9214 27.2945 81.8011 27.0244 81.6797ZM24.9668 80.6953C25.3815 80.9063 25.8007 81.1109 26.2236 81.3105C25.8007 81.1109 25.3815 80.9063 24.9668 80.6953ZM22.5898 79.3975C23.106 79.699 23.6295 79.9913 24.1602 80.2744C23.6295 79.9913 23.106 79.699 22.5898 79.3975ZM20.9658 78.4053C21.0337 78.4488 21.1018 78.492 21.1699 78.5352C21.1018 78.492 21.0337 78.4488 20.9658 78.4053ZM15.6387 74.4053C16.3552 75.0321 17.0944 75.6386 17.8564 76.2227C17.0944 75.6386 16.3552 75.0321 15.6387 74.4053ZM80.1416 73.7031C80.1133 73.7291 80.0851 73.7553 80.0566 73.7812C80.085 73.7553 80.1133 73.7292 80.1416 73.7031ZM14.2158 73.1035C14.3206 73.2037 14.4244 73.305 14.5303 73.4043C14.4244 73.305 14.3206 73.2037 14.2158 73.1035ZM80.9062 72.9844C80.8661 73.023 80.8245 73.0601 80.7842 73.0986C80.8246 73.0599 80.865 73.0213 80.9053 72.9824L80.9062 72.9844ZM11.6992 70.4863C12.2138 71.0705 12.7476 71.6403 13.2969 72.1982C12.7476 71.6403 12.2138 71.0704 11.6992 70.4863ZM4.09473 57.6562C5.71072 62.2227 8.21355 66.4506 11.4287 70.1738C8.21359 66.4508 5.71075 62.223 4.09473 57.6562ZM3.02051 54.0332C3.26214 55.0323 3.54509 56.018 3.86816 56.9893C3.54511 56.018 3.26212 55.0323 3.02051 54.0332ZM2.23242 49.6064C2.27463 49.9774 2.32449 50.3467 2.37793 50.7148C2.32454 50.347 2.2746 49.9781 2.23242 49.6074V49.6064ZM2.43262 39.9355C2.35756 40.4192 2.28802 40.9049 2.23242 41.3936L2.13086 42.4102C2.2018 41.5782 2.30571 40.7535 2.43262 39.9355ZM3.99316 33.6348C3.6368 34.669 3.32809 35.7208 3.06445 36.7871C3.32807 35.7207 3.63682 34.669 3.99316 33.6348ZM11.5322 20.7031C8.33849 24.3729 5.84261 28.5398 4.20605 33.0391C5.84264 28.5396 8.33852 24.3727 11.5322 20.7031ZM13.5088 18.5879C13.0251 19.0723 12.5541 19.5667 12.0967 20.0713C12.5541 19.5667 13.0251 19.0723 13.5088 18.5879ZM80.9062 18.0127C80.9059 18.014 80.9056 18.0153 80.9053 18.0166C80.8511 17.9643 80.7976 17.9114 80.7432 17.8594C80.7972 17.9109 80.8525 17.961 80.9062 18.0127ZM80.0137 17.1787C80.0646 17.2251 80.1153 17.2718 80.166 17.3184C80.1154 17.2717 80.0646 17.2252 80.0137 17.1787ZM18.3652 14.3916C17.5438 15.0028 16.7469 15.6387 15.9766 16.2988C16.7469 15.6387 17.5438 15.0027 18.3652 14.3916ZM21.0645 12.5303L21.0674 12.5283C21.1791 12.4571 21.2928 12.3887 21.4053 12.3184C21.2918 12.3893 21.1772 12.4584 21.0645 12.5303ZM24.3945 10.6016C23.8828 10.8708 23.3763 11.1463 22.8779 11.4326C23.3763 11.1463 23.8828 10.8708 24.3945 10.6016ZM26.4512 9.58203C26.1368 9.72838 25.8246 9.87763 25.5146 10.0303C25.8246 9.87763 26.1368 9.72838 26.4512 9.58203ZM28.5352 8.6709C28.2085 8.80441 27.8839 8.94091 27.5615 9.08105C27.8839 8.94091 28.2085 8.80441 28.5352 8.6709ZM30.4541 7.93457C30.0724 8.07188 29.6937 8.21418 29.3174 8.36035C29.6937 8.21418 30.0725 8.07188 30.4541 7.93457ZM34.3936 6.7041C34.075 6.78914 33.7579 6.87674 33.4424 6.96777C33.7579 6.87673 34.075 6.78914 34.3936 6.7041ZM40.1855 5.52051C39.6711 5.59428 39.1597 5.67571 38.6514 5.76465C39.1597 5.6757 39.6711 5.59428 40.1855 5.52051ZM50.543 5.08887C50.6192 5.09335 50.6954 5.09772 50.7715 5.10254C50.6954 5.09777 50.6192 5.09331 50.543 5.08887ZM50.0068 5.06055C50.0231 5.06133 50.0394 5.0617 50.0557 5.0625C50.0394 5.06171 50.0231 5.06133 50.0068 5.06055ZM49.0693 5.02441C49.2036 5.02846 49.3377 5.03203 49.4717 5.03711C49.3377 5.03207 49.2036 5.02843 49.0693 5.02441ZM48.2002 5.00488C48.4177 5.0078 48.6348 5.01195 48.8516 5.01758C48.6349 5.01201 48.4177 5.00777 48.2002 5.00488ZM47.5 5C47.7312 5 47.962 5.00085 48.1924 5.00391C47.962 5.00088 47.7312 5 47.5 5Z" stroke="#1F6FF1" stroke-width="4"/>
</svg>
