<svg width="70" height="69" viewBox="0 0 70 69" fill="none" xmlns="http://www.w3.org/2000/svg">
<path fill-rule="evenodd" clip-rule="evenodd" d="M35 29C38.3137 29 41 31.6863 41 35C41 38.3137 38.3137 41 35 41C31.6863 41 29 38.3137 29 35C29 31.6863 31.6863 29 35 29ZM35 31C32.7909 31 31 32.7909 31 35C31 37.2091 32.7909 39 35 39C37.2091 39 39 37.2091 39 35C39 32.7909 37.2091 31 35 31Z" fill="#1F6FF1"/>
<path fill-rule="evenodd" clip-rule="evenodd" d="M63 0C63.6723 0 64.2653 0.333063 64.6279 0.841797C64.9308 1.14079 65.1429 1.53693 65.2051 1.99121L69.7285 35.0186C69.7444 35.1346 69.7472 35.2501 69.7432 35.3633C69.9113 36.5553 70 37.769 70 39C69.9998 55.5684 54.3298 69 35 69C15.6702 69 0.000211671 55.5684 0 39C1.81845e-05 37.6382 0.104536 36.2971 0.30957 34.9834C0.289483 34.816 0.289198 34.6436 0.313477 34.4688L4.7627 2.43066C4.7875 2.25218 4.83718 2.08317 4.9043 1.9248C4.94388 0.85512 5.82103 0 6.90039 0H63ZM64.8125 28.6094C47.0142 15.7685 22.9545 15.7741 5.16211 28.627L4.29785 34.8535C4.30422 34.962 4.31891 35.0689 4.3418 35.1729C4.11619 36.4284 4.00002 37.7075 4 39C4.00022 52.803 17.2786 65 35 65C52.7214 65 65.9998 52.803 66 39C66 37.8475 65.9046 36.706 65.7246 35.582C65.7338 35.5194 65.7388 35.4556 65.7422 35.3916L64.8125 28.6094ZM8.58301 4L5.53613 25.9326C23.3396 14.0055 46.6369 14.0014 64.4443 25.9199L61.4434 4H8.58301Z" fill="#1F6FF1"/>
</svg>
